<?xml version="1.0" standalone="no"?>
<!DOCTYPE svg PUBLIC "-//W3C//DTD SVG 1.1//EN" "http://www.w3.org/Graphics/SVG/1.1/DTD/svg11.dtd" >
<svg xmlns="http://www.w3.org/2000/svg" xmlns:xlink="http://www.w3.org/1999/xlink" version="1.1">
<metadata>
Created by FontForge 20170731 at Wed Feb  2 18:20:31 2022
 By Aleksey,,,
Copyright (c) 2015 by Radomir Tinkov. All rights reserved.
</metadata>
<defs>
<font id="Gilroy-ExtraBoldItalic" horiz-adv-x="1187" >
  <font-face 
    font-family="Gilroy ExtraBold Italic"
    font-weight="800"
    font-style="italic"
    font-stretch="normal"
    units-per-em="2048"
    panose-1="0 0 9 0 0 0 0 0 0 0"
    ascent="1638"
    descent="-410"
    x-height="1024"
    cap-height="1434"
    bbox="-807 -553 2272.37 2007"
    underline-thickness="102"
    underline-position="-307"
    slope="-10"
    unicode-range="U+0020-FB02"
  />
<missing-glyph horiz-adv-x="1024" 
d="M840 1638v-2048h-650v2048h650zM682 1501h-338v-67h133v-76h-135v-68h340v68h-135v76h135v67zM547 1237h-205v-213h340v70h-135v143zM477 1167v-73h-67v73h67zM682 969h-340v-68h135v-76h-135v-67h205v143h135v68zM682 846h-68v-135h-272v-70h340v205zM682 596h-205v-115
h70v47h67v-96h-204v164h-68v-231h340v231zM682 242h-340v-232h340v232zM614 174v-96h-204v96h204zM682 -37h-340v-67h143l-143 -97v-67h340v67h-209l143 97h66v67z" />
    <glyph glyph-name="fi" unicode="fi" horiz-adv-x="1167" 
d="M1145 1024l-180 -1024h-308l129 729h-262l-129 -729h-307l129 729h-137l51 295h137q39 228 179 333t397 105q119 0 250 -28l-50 -283q-91 16 -204 16q-241 0 -265 -143h570z" />
    <glyph glyph-name="fl" unicode="fl" horiz-adv-x="1167" 
d="M844 1462q161 0 370 -49l-249 -1413h-308l209 1194q-23 2 -69 2q-90 0 -148.5 -43t-73.5 -129h150l-51 -295h-150l-129 -729h-307l129 729h-137l51 295h137q39 228 179 333t397 105z" />
    <glyph glyph-name="f_f" unicode="ff" horiz-adv-x="1249" 
d="M1368 1188q-188 17 -215 -144l-4 -20h190l-51 -295h-190l-129 -729h-307l129 729h-267l-129 -729h-307l129 729h-137l51 295h137q81 467 576 438l-51 -295q-191 17 -218 -143h267l4 20q81 468 575 439z" />
    <glyph glyph-name="f_f_i" unicode="ffi" horiz-adv-x="1740" 
d="M1718 1024l-180 -1024h-307l129 729h-262l-129 -729h-307l129 729h-267l-129 -729h-307l129 729h-137l51 295h137q81 467 576 438l-51 -295q-191 17 -218 -143h267l4 20q39 227 176 333t379 106q135 0 270 -29l-49 -283q-96 17 -205 17q-240 0 -264 -144l-4 -20h569z" />
    <glyph glyph-name="f_f_l" unicode="ffl" horiz-adv-x="1740" 
d="M1421 1483q164 0 369 -49l-252 -1434h-307l213 1214q-35 3 -70 3q-89 0 -147.5 -43t-73.5 -130l-4 -20h149l-51 -295h-149l-129 -729h-307l129 729h-267l-129 -729h-307l129 729h-137l51 295h137q81 467 576 438l-51 -295q-191 17 -218 -143h267l4 20q39 229 178.5 334
t396.5 105z" />
    <glyph glyph-name=".notdef" horiz-adv-x="1024" 
d="M840 1638v-2048h-650v2048h650zM682 1501h-338v-67h133v-76h-135v-68h340v68h-135v76h135v67zM547 1237h-205v-213h340v70h-135v143zM477 1167v-73h-67v73h67zM682 969h-340v-68h135v-76h-135v-67h205v143h135v68zM682 846h-68v-135h-272v-70h340v205zM682 596h-205v-115
h70v47h67v-96h-204v164h-68v-231h340v231zM682 242h-340v-232h340v232zM614 174v-96h-204v96h204zM682 -37h-340v-67h143l-143 -97v-67h340v67h-209l143 97h66v67z" />
    <glyph glyph-name=".null" horiz-adv-x="0" 
 />
    <glyph glyph-name="nonmarkingreturn" horiz-adv-x="682" 
 />
    <glyph glyph-name="space" unicode=" " horiz-adv-x="512" 
 />
    <glyph glyph-name="exclam" unicode="!" horiz-adv-x="573" 
d="M164 512l29 512l71 410h369l-72 -410l-151 -512h-246zM190 -29q-79 0 -126 59.5t-33 139.5t79 135t150 55q79 0 126.5 -59t33.5 -139q-14 -81 -78 -136t-152 -55z" />
    <glyph glyph-name="quotedbl" unicode="&#x22;" horiz-adv-x="819" 
d="M199 942l45 492h286l-127 -492h-204zM567 942l45 492h287l-127 -492h-205z" />
    <glyph glyph-name="numbersign" unicode="#" horiz-adv-x="1271" 
d="M1245 799h-215l-57 -164h217l-76 -225h-217l-106 -308h-234l107 308h-189l-106 -308h-234l107 308h-219l77 225h217l58 164h-219l75 225h222l104 307h234l-105 -307h188l105 307h233l-104 -307h213zM739 635l58 164h-189l-57 -164h188z" />
    <glyph glyph-name="dollar" unicode="$" horiz-adv-x="1144" 
d="M723 852q142 -64 194 -98q152 -98 168 -251q7 -60 -6 -132q-33 -185 -170 -287t-342 -111l-30 -178h-144l33 182q-165 20 -274 107t-148 221l299 154q48 -138 178 -166l51 293q-1 0 -2 1t-2 1q-34 14 -62 27t-59 29.5t-55.5 33t-49.5 36.5t-44 42t-36 47t-27.5 54
t-16.5 61t-5.5 69t7.5 78q22 129 102 221t184 133.5t222 42.5l31 176h143l-35 -192q113 -27 199 -100.5t131 -186.5l-289 -151q-41 77 -98 112zM514 1038q-6 -38 14 -65.5t64 -54.5l39 227q-48 -8 -79.5 -36.5t-37.5 -70.5zM741 408q7 40 -11.5 66.5t-63.5 51.5l-41 -231
q50 13 79 43.5t37 69.5z" />
    <glyph glyph-name="percent" unicode="%" horiz-adv-x="1605" 
d="M494 766q-104 0 -179.5 50.5t-107 128.5t-19.5 165q19 143 128 247.5t280 104.5q81 0 146.5 -33.5t101.5 -87t52 -121t-1 -135.5q-30 -134 -135.5 -226.5t-265.5 -92.5zM199 227l1104 1026l131 -84l-1104 -1028zM522 1001q48 0 84.5 33.5t44.5 79.5q8 49 -16 81t-72 32
q-47 0 -83 -32.5t-44 -80.5q-9 -48 15 -80.5t71 -32.5zM1085 -25q-106 0 -181.5 53t-105.5 133t-16 169q10 67 41.5 127t81.5 109t123.5 77.5t159.5 28.5q105 0 181.5 -55.5t106.5 -139.5t11 -174q-28 -136 -134.5 -232t-267.5 -96zM1114 211q48 0 84.5 33.5t44.5 79.5
q8 49 -16 80.5t-72 31.5q-47 0 -82.5 -32t-44.5 -80t15 -80.5t71 -32.5z" />
    <glyph glyph-name="ampersand" unicode="&#x26;" horiz-adv-x="1415" 
d="M1335 588q-85 -182 -192 -309l153 -213l-276 -146l-113 156q-182 -105 -395 -105q-157 0 -267.5 61.5t-155.5 165t-21 230.5q51 255 311 393q-55 119 -33 252q30 180 170 284.5t340 104.5q343 0 449 -313l-299 -158q-50 152 -179 152q-62 0 -106 -32.5t-53 -94.5
q-5 -34 6.5 -69.5t26.5 -59.5t47 -68l213 -293q55 91 106 226zM586 270q81 0 153 35l-204 281l-17 22q-99 -64 -117 -166q-13 -73 35 -122.5t150 -49.5z" />
    <glyph glyph-name="quotesingle" unicode="'" horiz-adv-x="450" 
d="M199 942l45 492h286l-127 -492h-204z" />
    <glyph glyph-name="parenleft" unicode="(" horiz-adv-x="655" 
d="M201 -205q-70 209 -86 451.5t26 490.5q82 472 385 901h308q-306 -451 -388 -921q-82 -472 62 -922h-307z" />
    <glyph glyph-name="parenright" unicode=")" horiz-adv-x="653" 
d="M526 1638q70 -209 86 -451.5t-26 -490.5q-82 -472 -385 -901h-307q305 448 387 922q82 472 -62 921h307z" />
    <glyph glyph-name="asterisk" unicode="*" horiz-adv-x="819" 
d="M846 1245l-31 -180l-182 18l88 -141l-158 -94l-55 174l-117 -174l-141 94l137 141l-186 -18l30 180l183 -18l-88 141l157 94l56 -174l116 174l142 -94l-138 -141z" />
    <glyph glyph-name="plus" unicode="+" horiz-adv-x="1146" 
d="M1106 860l-51 -287h-328l-57 -327h-287l57 327h-327l51 287h328l57 328h287l-58 -328h328z" />
    <glyph glyph-name="comma" unicode="," horiz-adv-x="593" 
d="M467 317l-270 -604h-246l188 604h328z" />
    <glyph glyph-name="hyphen" unicode="-" horiz-adv-x="1024" 
d="M115 465l51 295h778l-51 -295h-778z" />
    <glyph glyph-name="period" unicode="." horiz-adv-x="573" 
d="M190 -29q-79 0 -125 59.5t-32 139.5q14 81 78 135.5t149 54.5q79 0 126.5 -59t33.5 -139q-14 -81 -78 -136t-152 -55z" />
    <glyph glyph-name="slash" unicode="/" horiz-adv-x="1064" 
d="M68 -205h-134l1135 1843h133z" />
    <glyph glyph-name="zero" unicode="0" horiz-adv-x="1290" 
d="M571 -29q-186 0 -307 99.5t-162 272.5t-2 394q59 336 242 530.5t451 194.5q186 0 306.5 -99.5t161 -272t1.5 -394.5q-59 -336 -241 -530.5t-450 -194.5zM606 291q252 0 328 426t-178 426q-252 0 -328 -426t178 -426z" />
    <glyph glyph-name="one" unicode="1" horiz-adv-x="827" 
d="M559 1434h287l-252 -1434h-328l189 1075l-265 -69l-30 292z" />
    <glyph glyph-name="two" unicode="2" horiz-adv-x="1093" 
d="M-43 0l41 238l569 499q83 73 132 134.5t59 119.5q12 68 -20.5 110t-98.5 42q-67 0 -127.5 -44.5t-105.5 -117.5l-263 168q96 156 236 234.5t303 78.5q92 0 173.5 -34.5t139.5 -95t84.5 -151.5t7.5 -196q-22 -123 -90 -223t-192 -207l-279 -240h461l-55 -315h-975z" />
    <glyph glyph-name="three" unicode="3" horiz-adv-x="1126" 
d="M1169 1434l-45 -267l-301 -323q123 -57 187.5 -165.5t40.5 -248.5q-20 -115 -75 -204t-133.5 -144t-173 -83t-200.5 -28q-169 0 -293 77.5t-176 230.5l301 159q23 -74 69 -110.5t134 -36.5q96 0 151 44.5t68 115.5q11 71 -27.5 115t-134.5 44h-69l-93 187l306 329h-510
l53 308h921z" />
    <glyph glyph-name="four" unicode="4" 
d="M1171 532l-53 -303h-143l-41 -229h-332l41 229h-651l53 303l598 902h369l-600 -902h284l54 308h331l-53 -308h143z" />
    <glyph glyph-name="five" unicode="5" horiz-adv-x="1124" 
d="M1110 1126h-514l-49 -196h108q93 0 174.5 -34.5t140 -96.5t84 -158.5t5.5 -210.5q-20 -115 -74.5 -204t-132.5 -144t-170.5 -83t-194.5 -28q-175 0 -302 77t-185 231l303 157q50 -145 219 -145q90 0 144 45t65 115q11 71 -25.5 115t-125.5 44h-449l203 824h829z" />
    <glyph glyph-name="six" unicode="6" horiz-adv-x="1146" 
d="M725 977q124 -20 216.5 -92.5t135 -185t19.5 -242.5q-38 -223 -199 -354.5t-397 -131.5q-156 0 -270.5 69.5t-165 190t-25.5 267.5q34 183 147 305l539 631h393zM768 477q17 91 -32 145t-134 54q-86 0 -152 -53.5t-83 -145.5t30.5 -145t134.5 -53q85 0 152 53.5t84 144.5
z" />
    <glyph glyph-name="seven" unicode="7" horiz-adv-x="1003" 
d="M182 1434h942l-47 -275l-655 -1159h-365l633 1118h-563z" />
    <glyph glyph-name="eight" unicode="8" horiz-adv-x="1175" 
d="M1157 1024q-33 -189 -194 -287q80 -63 114 -156t15 -198q-35 -198 -185.5 -305t-396.5 -107t-373.5 127t-91.5 326q19 107 83 192.5t167 141.5q-125 109 -92 291q24 135 103 230t190.5 139t246.5 44q97 0 179.5 -29.5t141.5 -84t85 -139t8 -185.5zM526 1016
q-9 -61 24 -100t101 -39t116.5 39t57.5 100q11 61 -23 100t-102 39t-115.5 -39t-58.5 -100zM774 451q13 80 -32.5 126t-133.5 46t-152 -46t-77 -126q-15 -80 32.5 -126t135.5 -46t150 46t77 126z" />
    <glyph glyph-name="nine" unicode="9" horiz-adv-x="1146" 
d="M719 1462q156 0 270.5 -69t165 -189.5t25.5 -267.5q-34 -182 -148 -305l-538 -631h-394l394 459q-93 15 -170 61t-127 113.5t-70.5 156.5t-3.5 187q38 223 199 354t397 131zM451 956q-17 -91 31.5 -144.5t133.5 -53.5q86 0 152.5 53t83.5 145t-31 145.5t-135 53.5
q-85 0 -151.5 -54t-83.5 -145z" />
    <glyph glyph-name="colon" unicode=":" horiz-adv-x="573" 
d="M313 668q-79 0 -125 59t-32 139q14 81 78 136t149 55q79 0 126.5 -59.5t33.5 -139.5q-14 -81 -78 -135.5t-152 -54.5zM190 -29q-79 0 -125 59.5t-32 139.5q14 81 78 135.5t149 54.5q79 0 126.5 -59t33.5 -139q-14 -81 -78 -136t-152 -55z" />
    <glyph glyph-name="semicolon" unicode=";" horiz-adv-x="593" 
d="M334 668q-79 0 -125.5 59t-32.5 139q14 81 78 136t149 55q79 0 126.5 -59.5t33.5 -139.5q-14 -81 -77.5 -135.5t-151.5 -54.5zM467 317l-270 -604h-246l188 604h328z" />
    <glyph glyph-name="less" unicode="&#x3c;" horiz-adv-x="1085" 
d="M1135 1249l-60 -331l-610 -218l534 -217l-53 -299l-852 400l25 133l22 133z" />
    <glyph glyph-name="equal" unicode="=" horiz-adv-x="1064" 
d="M131 788l51 287h899l-51 -287h-899zM55 358l51 287h900l-52 -287h-899z" />
    <glyph glyph-name="greater" unicode="&#x3e;" horiz-adv-x="1085" 
d="M213 1249l850 -399l-23 -133l-24 -133l-991 -400l59 332l612 217l-536 217z" />
    <glyph glyph-name="question" unicode="?" horiz-adv-x="1146" 
d="M389 512q10 66 43.5 123t76 95t92 76t91 68t73 69t38.5 81q9 54 -21 86.5t-90 32.5q-92 0 -151.5 -47.5t-104.5 -132.5l-266 170q78 156 229.5 242.5t331.5 86.5q128 0 228 -51t150.5 -150.5t27.5 -228.5q-11 -62 -39 -117t-64 -95t-77.5 -75.5t-81.5 -65t-73.5 -56
t-56.5 -55t-28 -56.5h-328zM457 -29q-79 0 -125.5 59.5t-32.5 139.5q14 81 78 135.5t149 54.5q79 0 126.5 -59t33.5 -139q-14 -81 -77.5 -136t-151.5 -55z" />
    <glyph glyph-name="at" unicode="@" horiz-adv-x="1585" 
d="M930 1253q96 0 180.5 -22t148.5 -61t117 -92.5t85.5 -117t54 -134t22 -143.5t-9.5 -146q-38 -213 -149 -323t-263 -110q-95 0 -159.5 42t-88.5 114q-89 -86 -213 -86q-128 0 -195 103t-40 251q26 144 117.5 233t207.5 89t185 -88l12 63h250l-86 -483q-22 -135 92 -135
q87 0 154 87.5t98 258.5q30 174 -28 317.5t-189 226.5t-307 83q-138 0 -270 -51.5t-236 -140.5t-178 -213t-99 -263q-25 -142 6 -266.5t108 -212.5t198.5 -138.5t271.5 -50.5q182 0 334 50l-14 -78q-146 -45 -330 -45q-220 0 -383 99t-235.5 272.5t-35.5 385.5
q27 152 106.5 286t194 230.5t262 152.5t304.5 56zM760 395q47 0 81.5 33t43.5 84q9 53 -14 85t-70 32q-49 0 -83.5 -32t-43.5 -85q-9 -52 14 -84.5t72 -32.5z" />
    <glyph glyph-name="A" unicode="A" horiz-adv-x="1392" 
d="M944 0l-29 225h-532l-115 -225h-358l739 1434h418l236 -1434h-359zM537 532h342l-68 543z" />
    <glyph glyph-name="B" unicode="B" horiz-adv-x="1228" 
d="M1225 1014q-27 -180 -172 -279q144 -114 116 -325q-24 -185 -166 -297.5t-389 -112.5h-581l252 1434h540q94 0 174 -30.5t135 -84.5t80 -133.5t11 -171.5zM782 1126h-223l-45 -254h223q62 0 104.5 35t53.5 92q10 53 -19 90t-94 37zM848 444q11 61 -21 99.5t-100 38.5
h-264l-49 -275h264q68 0 113.5 38t56.5 99z" />
    <glyph glyph-name="C" unicode="C" horiz-adv-x="1480" 
d="M735 -29q-216 0 -374.5 103.5t-227 279t-33.5 383.5q26 155 103 290t188.5 230.5t256.5 150t302 54.5q205 0 351.5 -88.5t218.5 -245.5l-301 -157q-84 172 -304 172q-186 0 -319.5 -117t-167.5 -309q-34 -191 57 -308.5t269 -117.5q236 0 372 182l267 -174
q-116 -154 -289 -241t-369 -87z" />
    <glyph glyph-name="D" unicode="D" horiz-adv-x="1458" 
d="M858 1434q138 0 257 -59t197 -157.5t111 -235.5t7 -286q-36 -201 -151.5 -359.5t-291.5 -247.5t-381 -89h-573l252 1434h573zM1114 727q32 182 -54 286.5t-257 104.5h-246l-141 -803h225q183 0 312 113t161 299z" />
    <glyph glyph-name="E" unicode="E" horiz-adv-x="1085" 
d="M1120 1118h-563l-43 -239h514l-55 -308h-512l-45 -256h573l-55 -315h-901l252 1434h891z" />
    <glyph glyph-name="F" unicode="F" horiz-adv-x="1064" 
d="M1100 1118h-543l-49 -276h532l-55 -316h-532l-93 -526h-327l252 1434h870z" />
    <glyph glyph-name="G" unicode="G" horiz-adv-x="1605" 
d="M1593 799l-20 -123q-56 -330 -284 -517.5t-548 -187.5q-165 0 -299 61t-217 164.5t-117 244t-8 296.5q26 155 103 290t188.5 230.5t256.5 150t302 54.5q213 0 367 -90t233 -254l-301 -157q-96 182 -334 182q-186 0 -319.5 -117t-167.5 -309q-34 -193 60.5 -309.5
t285.5 -116.5q307 0 420 221h-369l49 287h719z" />
    <glyph glyph-name="H" unicode="H" horiz-adv-x="1351" 
d="M1063 1434h328l-252 -1434h-328l100 569h-450l-101 -569h-327l252 1434h327l-96 -549h451z" />
    <glyph glyph-name="I" unicode="I" horiz-adv-x="573" 
d="M285 1434h327l-252 -1434h-327z" />
    <glyph glyph-name="J" unicode="J" horiz-adv-x="1167" 
d="M475 -29q-179 0 -292 71.5t-167 217.5l301 164q20 -71 64 -102t123 -31q192 0 223 170l172 973h328l-172 -973q-43 -246 -194.5 -368t-385.5 -122z" />
    <glyph glyph-name="K" unicode="K" horiz-adv-x="1282" 
d="M1444 1434l-651 -705l399 -729h-338l-375 682l-119 -682h-327l252 1434h327l-106 -600l551 600h387z" />
    <glyph glyph-name="L" unicode="L" horiz-adv-x="983" 
d="M416 315h512l-56 -315h-839l55 315l197 1119h327z" />
    <glyph glyph-name="M" unicode="M" horiz-adv-x="1679" 
d="M1718 1434l-252 -1434h-327l147 840l-489 -615h-37l-252 619l-148 -844h-327l252 1434h327l248 -648l502 648h356z" />
    <glyph glyph-name="N" unicode="N" horiz-adv-x="1372" 
d="M33 0l252 1434h245l412 -805l141 805h328l-252 -1434h-246l-409 805l-144 -805h-327z" />
    <glyph glyph-name="O" unicode="O" horiz-adv-x="1613" 
d="M721 -29q-153 0 -282.5 61t-213 163.5t-118.5 244.5t-7 297q28 157 104 291t188.5 230t260.5 150t314 54q150 0 278.5 -61t212 -163.5t119 -244.5t8.5 -297q-38 -210 -156.5 -374.5t-302.5 -257.5t-405 -93zM756 291q179 0 323.5 119t177.5 307q33 189 -64 307.5
t-275 118.5t-317.5 -118.5t-172.5 -307.5q-33 -190 59.5 -308t268.5 -118z" />
    <glyph glyph-name="P" unicode="P" horiz-adv-x="1208" 
d="M803 1434q147 0 254 -67.5t154.5 -184.5t27.5 -260q-30 -210 -187 -340.5t-401 -130.5h-211l-80 -451h-327l252 1434h518zM911 942q16 84 -23.5 134t-137.5 50h-191l-65 -368h190q92 0 150.5 49t76.5 135z" />
    <glyph glyph-name="Q" unicode="Q" horiz-adv-x="1624" 
d="M967 1462q150 0 278.5 -61t212 -163.5t119 -244.5t8.5 -297q-49 -274 -244 -469l109 -141l-252 -188l-115 151q-170 -78 -362 -78q-146 0 -274 61t-213.5 163t-123.5 245t-10 297q36 208 160.5 374t310 258.5t396.5 92.5zM965 719l184 -240q85 106 108 238
q33 189 -64 307.5t-275 118.5t-317.5 -118.5t-172.5 -307.5q-33 -190 59.5 -308t268.5 -118q61 0 127 16l-170 223z" />
    <glyph glyph-name="R" unicode="R" horiz-adv-x="1259" 
d="M1264 922q-26 -143 -114 -248.5t-220 -157.5l209 -516h-332l-186 471h-179l-82 -471h-327l252 1434h553q134 0 241 -70.5t158 -189.5t27 -252zM936 942q14 79 -28 131.5t-124 52.5h-225l-65 -368h245q74 0 128.5 52.5t68.5 131.5z" />
    <glyph glyph-name="S" unicode="S" horiz-adv-x="1200" 
d="M553 -29q-224 0 -365 96t-180 259l299 153q53 -192 275 -192q97 0 149 34t62 87q5 27 -3 48.5t-24.5 38t-51 33.5t-67 29.5t-88.5 30.5q-46 15 -84.5 31t-78 36.5t-69 42.5t-58 50t-45 59.5t-29.5 70.5t-12 82.5t7 96.5q17 103 69 183t126 127t160 71t180 24
q176 0 306 -83.5t186 -239.5l-287 -152q-37 79 -92 119.5t-142 40.5q-74 0 -118 -31t-54 -78q-7 -32 4 -56.5t43 -46.5t70.5 -39t103.5 -40q39 -14 64 -23.5t62.5 -25t61.5 -29t55 -33t50.5 -39.5t41 -45.5t32.5 -55t19 -64t7.5 -75.5t-8.5 -87q-35 -197 -189 -302.5
t-388 -105.5z" />
    <glyph glyph-name="T" unicode="T" horiz-adv-x="1105" 
d="M1247 1434l-55 -316h-369l-196 -1118h-328l197 1118h-369l55 316h1065z" />
    <glyph glyph-name="U" unicode="U" horiz-adv-x="1312" 
d="M594 -29q-259 0 -398.5 138t-101.5 354l172 971h328l-166 -942q-33 -201 190 -201q228 0 261 201l165 942h328l-172 -971q-43 -243 -206.5 -367.5t-399.5 -124.5z" />
    <glyph glyph-name="V" unicode="V" horiz-adv-x="1310" 
d="M356 0l-194 1434h342l112 -1055l482 1055h375l-699 -1434h-418z" />
    <glyph glyph-name="W" unicode="W" horiz-adv-x="2043" 
d="M326 0l-144 1434h328l76 -1004l452 1004h267l100 -1004l424 1004h356l-647 -1434h-373l-86 846l-381 -846h-372z" />
    <glyph glyph-name="X" unicode="X" horiz-adv-x="1269" 
d="M1391 1434l-533 -713l301 -721h-356l-174 414l-310 -414h-389l559 748l-286 686h356l160 -379l282 379h390z" />
    <glyph glyph-name="Y" unicode="Y" horiz-adv-x="1249" 
d="M1411 1434l-602 -807l-111 -627h-327l110 629l-319 805h354l168 -484l336 484h391z" />
    <glyph glyph-name="Z" unicode="Z" horiz-adv-x="1105" 
d="M1206 1434l-43 -254l-696 -865h553l-55 -315h-983l45 254l698 864h-537l56 316h962z" />
    <glyph glyph-name="bracketleft" unicode="[" horiz-adv-x="655" 
d="M762 1343h-205l-223 -1253h207l-54 -295h-512l326 1843h512z" />
    <glyph glyph-name="backslash" unicode="\" horiz-adv-x="1064" 
d="M758 -205l-498 1843h119l498 -1843h-119z" />
    <glyph glyph-name="bracketright" unicode="]" horiz-adv-x="655" 
d="M752 1638l-326 -1843h-512l53 295h203l223 1253h-205l52 295h512z" />
    <glyph glyph-name="asciicircum" unicode="^" 
d="M866 1434l279 -697h-320l-118 342l-250 -342h-336l524 697h221z" />
    <glyph glyph-name="underscore" unicode="_" horiz-adv-x="1064" 
d="M-94 -371l51 295h942l-51 -295h-942z" />
    <glyph glyph-name="grave" unicode="`" horiz-adv-x="614" 
d="M686 1147l-129 287h-354l194 -287h289z" />
    <glyph glyph-name="a" unicode="a" horiz-adv-x="1275" 
d="M946 1024h307l-180 -1024h-307l12 70q-119 -99 -307 -99q-81 0 -149 23t-115.5 62.5t-82.5 94t-50 117t-19 131.5t11 138q18 100 65.5 191.5t119 164.5t173 116.5t217.5 43.5q193 0 287 -138zM569 262q107 0 187 67.5t100 180.5v2q20 114 -36 182t-163 68t-185.5 -68
t-98.5 -182t34.5 -182t161.5 -68z" />
    <glyph glyph-name="b" unicode="b" horiz-adv-x="1275" 
d="M797 1053q112 0 200 -47.5t139 -126t70.5 -179.5t3.5 -208q-12 -80 -42.5 -155t-80 -141.5t-113 -116.5t-146.5 -79t-175 -29q-211 0 -303 146l-20 -117h-307l251 1434h308l-88 -496q127 115 303 115zM903 512q20 116 -35.5 183t-160.5 67q-106 0 -186.5 -67.5
t-100.5 -182.5t38.5 -182.5t164.5 -67.5q105 0 182.5 67t97.5 183z" />
    <glyph glyph-name="c" unicode="c" horiz-adv-x="1095" 
d="M543 -29q-161 0 -279 74.5t-170 202.5t-28 284q23 148 108.5 267t217 186.5t284.5 67.5q160 0 272 -72.5t164 -194.5l-281 -147q-48 111 -182 111q-102 0 -180 -64.5t-96 -169.5q-19 -105 36.5 -173.5t155.5 -68.5q132 0 213 115l248 -158q-79 -129 -207.5 -194.5
t-275.5 -65.5z" />
    <glyph glyph-name="d" unicode="d" horiz-adv-x="1280" 
d="M1022 1434h307l-252 -1434h-307l12 74q-119 -103 -311 -103q-81 0 -149 23t-115.5 62.5t-82.5 94t-50 117t-19 131.5t11 138q18 100 65.5 191.5t119 164.5t173 116.5t217.5 43.5q197 0 289 -142zM573 262q104 0 183 65.5t102 174.5l4 20q15 110 -40 175t-160 65
q-108 0 -188.5 -68t-100.5 -182t36.5 -182t163.5 -68z" />
    <glyph glyph-name="e" unicode="e" horiz-adv-x="1191" 
d="M678 1053q147 0 260.5 -69.5t166.5 -194.5t25 -277q-10 -65 -32 -123h-733q23 -143 210 -143q130 0 216 80l215 -176q-176 -179 -451 -179q-130 0 -232.5 44.5t-164 121t-86 178.5t-6.5 217q36 223 209 372t403 149zM408 623h434q-7 81 -57.5 119t-127.5 38
q-82 0 -146.5 -40.5t-102.5 -116.5z" />
    <glyph glyph-name="f" unicode="f" horiz-adv-x="677" 
d="M793 1167q-191 17 -218 -143h191l-51 -295h-191l-129 -729h-307l129 729h-137l51 295h137q39 225 183.5 339t392.5 99z" />
    <glyph glyph-name="g" unicode="g" horiz-adv-x="1277" 
d="M956 1024h299l-172 -973q-18 -107 -58.5 -191t-95.5 -139.5t-126 -91.5t-147.5 -51.5t-163.5 -15.5q-172 0 -297 62.5t-181 185.5l275 143q59 -121 225 -121q110 0 181 56t89 163l13 72q-121 -111 -308 -111q-80 0 -148.5 21.5t-117 59t-85.5 89t-54 112t-22.5 127.5
t8.5 136q16 95 61.5 182.5t115 158t169 113t213.5 42.5q216 0 307 -150zM580 299q103 0 182 59t104 154l8 43q8 94 -50 152.5t-160 58.5q-109 0 -189.5 -65.5t-99.5 -168.5t38.5 -168t166.5 -65z" />
    <glyph glyph-name="h" unicode="h" 
d="M795 1053q166 0 260.5 -114t60.5 -310l-110 -629h-308l103 584q16 93 -26.5 139.5t-121.5 46.5q-84 0 -145.5 -53t-79.5 -158l-98 -559h-307l251 1434h308l-88 -506q52 58 132.5 91.5t168.5 33.5z" />
    <glyph glyph-name="i" unicode="i" horiz-adv-x="532" 
d="M375 1114q-77 0 -121.5 54.5t-32.5 129.5q12 74 74.5 129.5t138.5 55.5t122 -55t34 -130q-12 -76 -75 -130t-140 -54zM23 0l180 1024h307l-180 -1024h-307z" />
    <glyph glyph-name="j" unicode="j" horiz-adv-x="563" 
d="M465 1483q76 0 122 -55t34 -130q-12 -76 -75 -130t-140 -54t-121.5 54.5t-32.5 129.5q12 74 74.5 129.5t138.5 55.5zM53 0l180 1024h308l-181 -1024q-44 -251 -173 -351.5t-375 -86.5l53 295q84 -5 129.5 28.5t58.5 114.5z" />
    <glyph glyph-name="k" unicode="k" horiz-adv-x="1075" 
d="M1155 1024l-453 -512l283 -512h-328l-245 467l-82 -467h-307l251 1434h308l-148 -834l367 424h354z" />
    <glyph glyph-name="l" unicode="l" horiz-adv-x="534" 
d="M25 0l114 653l148 842h307l-150 -856l-112 -639h-307z" />
    <glyph glyph-name="m" unicode="m" horiz-adv-x="1740" 
d="M1343 1053q178 0 268 -118t58 -306l-110 -629h-308l105 602q14 78 -15.5 123t-101.5 45q-74 0 -122.5 -46.5t-67.5 -131.5l-105 -592h-307l104 602q14 79 -15 123.5t-101 44.5q-74 0 -123 -44.5t-68 -129.5l-104 -596h-307l180 1024h307l-16 -92q48 55 121.5 88t162.5 33
q182 0 250 -140q127 140 315 140z" />
    <glyph glyph-name="n" unicode="n" 
d="M795 1053q166 0 260.5 -114t60.5 -310l-110 -629h-308l103 584q16 93 -26.5 139.5t-121.5 46.5q-81 0 -141.5 -49.5t-81.5 -149.5l-100 -571h-307l180 1024h307l-16 -96q52 58 133 91.5t168 33.5z" />
    <glyph glyph-name="o" unicode="o" horiz-adv-x="1208" 
d="M541 -29q-79 0 -148 18t-120 49.5t-93 75t-66.5 94.5t-40 108.5t-14.5 117t11 119.5q20 100 71 189.5t127.5 159t184 110.5t231.5 41t222.5 -51t154 -133.5t77.5 -184t3 -205.5q-18 -99 -71 -191.5t-131 -162.5t-182 -112t-216 -42zM561 270q101 0 178.5 67t96.5 175
q20 107 -34 174.5t-155 67.5q-100 0 -175 -67t-95 -175q-19 -108 32.5 -175t151.5 -67z" />
    <glyph glyph-name="p" unicode="p" horiz-adv-x="1275" 
d="M801 1053q146 0 248.5 -81.5t142.5 -208.5t18 -271q-14 -98 -58.5 -189.5t-113.5 -166.5t-170 -120t-217 -45q-205 0 -301 146l-92 -527h-307l252 1434h307l-14 -86q124 115 305 115zM903 512q20 114 -33.5 182t-160.5 68q-104 0 -184 -65.5t-103 -174.5l-4 -18
q-15 -111 41.5 -176.5t161.5 -65.5q107 0 184.5 68t97.5 182z" />
    <glyph glyph-name="q" unicode="q" horiz-adv-x="1275" 
d="M946 1024h307l-252 -1434h-307l84 480q-119 -99 -307 -99q-81 0 -149 23t-114.5 62.5t-81.5 94t-50.5 117t-19.5 131.5t10 138q18 100 65.5 191.5t119 164.5t173 116.5t217.5 43.5q193 0 287 -138zM569 262q107 0 187 68t100 182t-36 182t-163 68t-185.5 -68t-98.5 -182
t34.5 -182t161.5 -68z" />
    <glyph glyph-name="r" unicode="r" horiz-adv-x="759" 
d="M477 840q46 100 138 152t206 52l-59 -348q-37 3 -78.5 3t-85.5 -16.5t-81 -41.5t-65.5 -71t-39.5 -107l2 12l-84 -475h-307l180 1024h307z" />
    <glyph glyph-name="s" unicode="s" horiz-adv-x="958" 
d="M422 -29q-317 0 -432 252l276 139q45 -116 183 -116q103 0 112 53q4 25 -22 43t-70 31t-97.5 28t-105 40.5t-91 61t-57.5 97.5t-3 143q14 79 57.5 140.5t104.5 97.5t129 54t139 18q135 0 238 -58.5t153 -160.5l-277 -138q-35 90 -133 90q-92 0 -104 -63q-6 -30 19 -50
t69 -32t97.5 -25t105.5 -36t92 -57.5t58 -98t3 -148.5q-19 -105 -84.5 -175t-156 -100t-203.5 -30z" />
    <glyph glyph-name="t" unicode="t" horiz-adv-x="796" 
d="M541 729l-64 -362q-8 -44 13.5 -65.5t68 -24.5t115.5 2l-49 -279q-275 -31 -384.5 59.5t-70.5 307.5l63 362h-163l53 295h162l34 195l324 92l-51 -287h213l-53 -295h-211z" />
    <glyph glyph-name="u" unicode="u" 
d="M858 1024h307l-180 -1024h-307l16 96q-52 -58 -133 -91.5t-168 -33.5q-166 0 -260.5 114t-60.5 310l110 629h307l-102 -584q-16 -93 26.5 -139.5t121.5 -46.5q81 0 141.5 49.5t81.5 149.5z" />
    <glyph glyph-name="v" unicode="v" horiz-adv-x="1044" 
d="M795 1024h340l-549 -1024h-307l-189 1024h316l86 -627z" />
    <glyph glyph-name="w" unicode="w" horiz-adv-x="1597" 
d="M1329 1024h338l-508 -1024h-287l-67 539l-240 -539h-307l-147 1024h307l63 -549l244 549h297l68 -549z" />
    <glyph glyph-name="x" unicode="x" horiz-adv-x="1085" 
d="M1163 1024l-448 -514l280 -510h-331l-152 276l-242 -276h-360l463 530l-271 494h332l141 -260l228 260h360z" />
    <glyph glyph-name="y" unicode="y" horiz-adv-x="1085" 
d="M836 1024h340l-525 -993q-92 -174 -197.5 -275.5t-215.5 -137t-248 -28.5l49 287q110 0 167.5 35.5t110.5 132.5l-227 979h316l126 -627z" />
    <glyph glyph-name="z" unicode="z" horiz-adv-x="931" 
d="M950 1024l-35 -205l-469 -532h396l-51 -287h-820l37 205l467 532h-354l51 287h778z" />
    <glyph glyph-name="braceleft" unicode="{" horiz-adv-x="739" 
d="M567 -219q-208 -15 -312 92t-69 305l52 291q13 69 -19 89.5t-106 12.5l53 297q71 -8 110 13t52 90l51 291q39 228 162.5 320t357.5 77l-53 -295q-71 8 -110 -12.5t-50 -89.5l-51 -291q-17 -96 -53.5 -153t-100.5 -97q95 -80 64 -252l-51 -291q-11 -69 21 -89.5t106 -12.5
z" />
    <glyph glyph-name="bar" unicode="|" horiz-adv-x="552" 
d="M-39 -410l332 1885h307l-332 -1885h-307z" />
    <glyph glyph-name="braceright" unicode="}" horiz-adv-x="737" 
d="M244 1657q208 15 312 -92t69 -305l-52 -291q-13 -69 19 -90t106 -13l-53 -297q-71 8 -110 -12.5t-52 -89.5l-51 -291q-39 -228 -162.5 -320t-357.5 -77l53 295q71 -8 110 12.5t50 89.5l51 291q17 96 53.5 153t100.5 97q-95 80 -64 252l51 291q11 69 -21 89.5t-106 12.5z
" />
    <glyph glyph-name="asciitilde" unicode="~" horiz-adv-x="1228" 
d="M326 500l-226 118q39 107 99.5 178t131.5 101t149 27t157 -39q66 -29 102.5 -42.5t75 -21t63 3t48.5 34t49 67.5l223 -119q-39 -107 -99 -178t-131 -100.5t-148.5 -26.5t-155.5 39q-47 21 -76 32.5t-61 22t-52.5 11t-42.5 -3t-38.5 -17t-33.5 -34t-34 -52.5z" />
    <glyph glyph-name="exclamdown" unicode="&#xa1;" horiz-adv-x="573" 
d="M383 1053q79 0 126.5 -59.5t33.5 -139.5t-79.5 -135t-150.5 -55q-79 0 -126 59t-33 139q14 81 77.5 136t151.5 55zM410 512l-29 -512l-72 -410h-368l71 410l152 512h246z" />
    <glyph glyph-name="cent" unicode="&#xa2;" horiz-adv-x="1095" 
d="M600 479q132 0 213 115l248 -158q-79 -129 -207.5 -194.5t-275.5 -65.5q-65 0 -138 17l-94 -193h-127l115 231q-133 67 -196.5 202t-37.5 304q35 225 207 372.5t404 147.5q67 0 125 -12l94 189h127l-113 -228q141 -69 203 -215l-281 -147q-22 53 -63 78l-219 -443h16z
M408 721q-12 -65 6.5 -118.5t60.5 -84.5l217 436h-8q-102 0 -180 -64t-96 -169z" />
    <glyph glyph-name="sterling" unicode="&#xa3;" 
d="M530 551l-41 -236h644l-56 -315h-1106l56 315h135l41 236h-113l51 287h113l29 166q41 229 179 343.5t343 114.5q156 0 269.5 -80.5t160.5 -224.5l-295 -156q-25 73 -65.5 107.5t-106.5 34.5q-60 0 -103 -37t-55 -102l-28 -166h399l-51 -287h-400z" />
    <glyph glyph-name="currency" unicode="&#xa4;" horiz-adv-x="1105" 
d="M1153 1126l-168 -141q72 -118 45 -268q-27 -153 -139 -268l117 -142l-93 -76l-114 144q-134 -88 -287 -88q-147 0 -246 80l-166 -142l-77 82l168 144q-69 116 -43 266q27 153 137 266l-117 143l86 78l121 -147q133 90 289 90q144 0 241 -78l164 139zM565 578
q63 0 106.5 38t55.5 101q11 63 -19.5 101t-93.5 38t-106.5 -38t-54.5 -101q-12 -63 18.5 -101t93.5 -38z" />
    <glyph glyph-name="yen" unicode="&#xa5;" horiz-adv-x="1249" 
d="M1411 1434l-508 -682h246l-33 -181h-317l-15 -82h318l-31 -180h-317l-56 -309h-327l55 309h-317l30 180h318l14 82h-317l32 181h246l-270 682h354l168 -484l336 484h391z" />
    <glyph glyph-name="brokenbar" unicode="&#xa6;" horiz-adv-x="552" 
d="M160 717l133 758h307l-133 -758h-307zM-39 -410l133 758h307l-133 -758h-307z" />
    <glyph glyph-name="section" unicode="&#xa7;" horiz-adv-x="1138" 
d="M813 942q58 -22 107.5 -54.5t91 -78t60 -107.5t5.5 -133q-29 -160 -168 -252q49 -84 29 -211q-16 -89 -60 -155.5t-108 -105t-138.5 -56.5t-162.5 -18q-162 0 -271 60t-167 194l274 149q57 -137 191 -137q119 0 133 74q4 18 -1 34t-19.5 30.5t-30.5 26t-44 25t-49.5 23
t-57.5 24.5t-58 25q-57 26 -103.5 59.5t-85 80.5t-54.5 110t-3 135q28 157 168 240q-43 87 -23 211q16 87 57.5 152t102 102t130 55t149.5 18q135 0 242 -65t163 -197l-258 -129q-58 125 -166 125q-47 0 -77 -21t-36 -57q-4 -29 11 -53t51 -45t73 -37t97 -39q4 -1 6 -2z
M551 541q16 -7 48.5 -19t61 -23.5t52.5 -23.5q43 29 51 82q8 51 -26.5 80.5t-112.5 60.5q-122 49 -144 60q-41 -29 -49 -82q-8 -47 23 -78t96 -57z" />
    <glyph glyph-name="dieresis" unicode="&#xa8;" horiz-adv-x="716" 
d="M299 1106q-63 0 -100.5 45.5t-26.5 108.5q10 63 63.5 108t116.5 45t100.5 -45t26.5 -108q-10 -63 -63.5 -108.5t-116.5 -45.5zM688 1106q-63 0 -100.5 45.5t-26.5 108.5q10 63 63.5 108t116.5 45t100.5 -45t26.5 -108q-10 -63 -63.5 -108.5t-116.5 -45.5z" />
    <glyph glyph-name="copyright" unicode="&#xa9;" horiz-adv-x="1605" 
d="M727 -25q-147 0 -276 60.5t-215.5 162t-124.5 241.5t-11 290q36 203 157.5 369.5t305 263t389.5 96.5q118 0 225.5 -39t188.5 -108t138.5 -164t75.5 -206.5t-1 -235.5q-27 -152 -105.5 -286.5t-190.5 -232.5t-256.5 -154.5t-299.5 -56.5zM731 49q138 0 268.5 53
t231.5 142.5t172.5 212.5t95.5 260q23 135 -10.5 259t-109 213t-189 142t-244.5 53q-138 0 -268.5 -52.5t-231.5 -142t-172 -212.5t-94 -260q-24 -135 9 -259.5t108.5 -213.5t189 -142t244.5 -53zM774 313q-113 0 -198 60t-121 157.5t-17 206.5q29 165 156 274t293 109
q107 0 196.5 -55.5t137.5 -146.5l-240 -125q-31 67 -117 67q-64 0 -111.5 -42.5t-56.5 -100.5q-11 -57 20 -100.5t89 -43.5q86 0 139 70l215 -133q-69 -94 -172 -145.5t-213 -51.5z" />
    <glyph glyph-name="guillemotleft" unicode="&#xab;" horiz-adv-x="1150" 
d="M700 1022l-286 -397l147 -381h-266l-152 389l281 389h276zM1118 1022l-293 -408l146 -370h-266l-148 379l285 399h276z" />
    <glyph glyph-name="logicalnot" unicode="&#xac;" horiz-adv-x="1146" 
d="M1126 860l-94 -532h-307l43 245h-676l51 287h983z" />
    <glyph glyph-name="registered" unicode="&#xae;" horiz-adv-x="1605" 
d="M952 1458q118 0 225.5 -39t188.5 -108t138.5 -164t75.5 -206.5t-1 -235.5q-27 -152 -105.5 -286.5t-190.5 -232.5t-256.5 -154.5t-299.5 -56.5q-147 0 -276 60.5t-215.5 162t-124.5 241.5t-11 290q36 203 157.5 369.5t305 263t389.5 96.5zM1499 717q23 135 -10.5 259
t-109 213t-189 142t-244.5 53q-138 0 -268.5 -52.5t-231.5 -142t-172 -212.5t-94 -260q-24 -135 9 -259.5t108.5 -213.5t189 -142t244.5 -53q138 0 268.5 53t231.5 142.5t172.5 212.5t95.5 260zM938 1096q117 0 194 -84.5t56 -200.5q-26 -147 -139 -211l102 -262h-260
l-62 209h-65l-37 -209h-250l133 758h328zM821 870l-22 -118h51q32 0 54.5 16.5t27.5 42.5q6 32 -10 45.5t-50 13.5h-51z" />
    <glyph glyph-name="macron" unicode="&#xaf;" horiz-adv-x="698" 
d="M154 1145l43 246h614l-43 -246h-614z" />
    <glyph glyph-name="degree" unicode="&#xb0;" horiz-adv-x="831" 
d="M500 963q-149 0 -236.5 107t-60.5 251q25 147 139 242.5t272 95.5q149 0 235.5 -106.5t61.5 -252.5q-27 -146 -139.5 -241.5t-271.5 -95.5zM539 1208q46 0 78 28.5t40 74.5q8 45 -15 73.5t-67 28.5t-77 -29t-41 -73q-8 -45 15 -74t67 -29z" />
    <glyph glyph-name="plusminus" unicode="&#xb1;" horiz-adv-x="1146" 
d="M813 1065h330l-51 -287h-328l-51 -286h-287l51 286h-327l51 287h325l52 287h286zM27 82l51 287h942l-51 -287h-942z" />
    <glyph glyph-name="acute" unicode="&#xb4;" horiz-adv-x="614" 
d="M154 1147h303l278 287h-377z" />
    <glyph glyph-name="uni00B5" unicode="&#xb5;" horiz-adv-x="1269" 
d="M1118 287h72l-51 -287h-133q-140 0 -213 92q-52 -57 -132 -89t-165 -32q-94 0 -164 37l-74 -418h-307l252 1434h307l-104 -592q-11 -89 30.5 -133.5t118.5 -44.5q79 0 138 45.5t81 138.5l105 586h307l-119 -676q-9 -61 51 -61z" />
    <glyph glyph-name="paragraph" unicode="&#xb6;" horiz-adv-x="1429" 
d="M1491 1434l-45 -267h-127l-277 -1577h-286l276 1577h-139l-277 -1577h-286l166 942q-123 1 -216.5 67.5t-134 174.5t-18.5 230q32 185 184 307.5t342 122.5h838z" />
    <glyph glyph-name="periodcentered" unicode="&#xb7;" horiz-adv-x="571" 
d="M285 514q-79 0 -125.5 59.5t-32.5 139.5q14 81 78 135.5t149 54.5q79 0 126.5 -59t33.5 -139q-14 -81 -77.5 -136t-151.5 -55z" />
    <glyph glyph-name="cedilla" unicode="&#xb8;" horiz-adv-x="542" 
d="M266 -94q48 -17 80.5 -61t20.5 -115q-9 -47 -38 -81.5t-87.5 -60t-148.5 -32t-220 1.5l37 213q192 -15 201 28q3 18 -23 27t-80 14l29 160h246z" />
    <glyph glyph-name="guillemotright" unicode="&#xbb;" horiz-adv-x="1153" 
d="M489 1022l148 -379l-285 -399h-276l293 407l-146 371h266zM899 1022l152 -389l-281 -389h-276l286 397l-147 381h266z" />
    <glyph glyph-name="onequarter" unicode="&#xbc;" horiz-adv-x="1660" 
d="M1204 1434h215l-1061 -1434h-215zM334 1169l-166 -45l-23 219l267 91h219l-146 -820h-249zM1602 350l-39 -225h-74l-23 -125h-237l22 125h-368l39 225l319 469h275l-312 -469h86l23 125h237l-22 -125h74z" />
    <glyph glyph-name="onehalf" unicode="&#xbd;" horiz-adv-x="1669" 
d="M1204 1434h215l-1061 -1434h-215zM334 1169l-166 -45l-23 219l267 91h219l-146 -820h-249zM1606 555q-6 -33 -21 -63t-43.5 -61t-51 -52t-65.5 -57l-112 -97h243l-38 -225h-627l27 158l354 309q4 4 15.5 13.5t14.5 12.5t12 11t11.5 11.5t8.5 10t8.5 10.5t6 10t5 11.5
t2.5 11.5q4 25 -9.5 39.5t-39.5 14.5q-39 0 -69 -25.5t-60 -75.5l-195 123q57 94 147.5 148.5t208.5 54.5q136 0 214 -78.5t53 -214.5z" />
    <glyph glyph-name="threequarters" unicode="&#xbe;" horiz-adv-x="1808" 
d="M721 850q-24 -134 -117 -199t-242 -65q-240 0 -307 184l219 117q20 -48 47 -67t68 -19q73 0 82 63q4 31 -15.5 46.5t-56.5 15.5h-51l-63 125l149 157h-264l39 226h575l-30 -174l-162 -170q74 -33 109 -95.5t20 -144.5zM1352 1434h215l-1061 -1434h-215zM1749 350
l-39 -225h-74l-22 -125h-238l23 125h-369l39 225l320 469h274l-311 -469h86l22 125h238l-23 -125h74z" />
    <glyph glyph-name="questiondown" unicode="&#xbf;" horiz-adv-x="1146" 
d="M690 1053q79 0 125.5 -59.5t32.5 -139.5q-14 -81 -78 -135.5t-149 -54.5q-79 0 -126.5 59t-33.5 139q14 81 77.5 136t151.5 55zM758 512q-10 -66 -43.5 -123t-76 -95t-92 -76t-91 -68t-73 -69t-38.5 -81q-9 -54 21 -86.5t90 -32.5q92 0 151.5 47.5t104.5 132.5l266 -170
q-78 -156 -229.5 -242.5t-331.5 -86.5q-128 0 -228 51t-150.5 150.5t-27.5 228.5q11 62 39 117t64 95t77.5 75.5t81.5 65t73.5 56t56.5 55t28 56.5h328z" />
    <glyph glyph-name="Agrave" unicode="&#xc0;" horiz-adv-x="1392" 
d="M1065 1556h-289l-194 287h354zM944 0l-29 225h-532l-115 -225h-358l739 1434h418l236 -1434h-359zM537 532h342l-68 543z" />
    <glyph glyph-name="Aacute" unicode="&#xc1;" horiz-adv-x="1392" 
d="M1278 1843l-279 -287h-303l205 287h377zM944 0l-29 225h-532l-115 -225h-358l739 1434h418l236 -1434h-359zM537 532h342l-68 543z" />
    <glyph glyph-name="Acircumflex" unicode="&#xc2;" horiz-adv-x="1392" 
d="M891 1649l-96 -113h-297l270 307h303l164 -307h-297zM944 0l-29 225h-532l-115 -225h-358l739 1434h418l236 -1434h-359zM537 532h342l-68 543z" />
    <glyph glyph-name="Atilde" unicode="&#xc3;" horiz-adv-x="1392" 
d="M862 1591q-47 33 -71.5 22.5t-34.5 -71.5h-246q11 122 58 201.5t111 106.5t134.5 18t134.5 -53q46 -33 71.5 -22.5t35.5 71.5h245q-11 -122 -58 -201.5t-111 -106.5t-134.5 -18t-134.5 53zM944 0l-29 225h-532l-115 -225h-358l739 1434h418l236 -1434h-359zM537 532h342
l-68 543z" />
    <glyph glyph-name="Adieresis" unicode="&#xc4;" horiz-adv-x="1392" 
d="M678 1516q-63 0 -100.5 45t-26.5 108q10 63 63.5 108.5t116.5 45.5t100.5 -45.5t26.5 -108.5q-10 -63 -63.5 -108t-116.5 -45zM1067 1516q-63 0 -100.5 45t-26.5 108q10 63 63.5 108.5t116.5 45.5t100.5 -45.5t26.5 -108.5q-10 -63 -63.5 -108t-116.5 -45zM944 0l-29 225
h-532l-115 -225h-358l739 1434h418l236 -1434h-359zM537 532h342l-68 543z" />
    <glyph glyph-name="Aring" unicode="&#xc5;" horiz-adv-x="1392" 
d="M944 0l-29 225h-532l-115 -225h-358l731 1419q-48 70 -33 166q20 110 106.5 179t205.5 69t186 -77t47 -187q-15 -93 -82 -160l232 -1409h-359zM809 1579q-5 -31 10 -51.5t49 -20.5q36 0 58.5 19t27.5 49q6 31 -10 51.5t-51 20.5q-34 0 -56 -19t-28 -49zM537 532h342
l-68 543z" />
    <glyph glyph-name="AE" unicode="&#xc6;" horiz-adv-x="1802" 
d="M1837 1118h-491l-43 -239h442l-55 -308h-441l-45 -256h502l-55 -315h-820l39 225h-417l-174 -225h-369l1089 1434h893zM690 532h236l69 396z" />
    <glyph glyph-name="Ccedilla" unicode="&#xc7;" horiz-adv-x="1480" 
d="M754 291q236 0 372 182l267 -174q-98 -131 -238 -213.5t-303 -105.5l-12 -74q48 -17 80 -61t20 -115q-9 -47 -38 -81.5t-87.5 -60t-148.5 -32t-220 1.5l37 213q192 -15 201 28q3 18 -22.5 27t-79.5 14l24 142q-178 29 -305 136.5t-179.5 269.5t-21.5 349q26 155 103 290
t188.5 230.5t256.5 150t302 54.5q205 0 351.5 -88.5t218.5 -245.5l-301 -157q-84 172 -304 172q-186 0 -319.5 -117t-167.5 -309q-34 -191 57 -308.5t269 -117.5z" />
    <glyph glyph-name="Egrave" unicode="&#xc8;" horiz-adv-x="1085" 
d="M938 1556h-289l-194 287h354zM1120 1118h-563l-43 -239h514l-55 -308h-512l-45 -256h573l-55 -315h-901l252 1434h891z" />
    <glyph glyph-name="Eacute" unicode="&#xc9;" horiz-adv-x="1085" 
d="M1151 1843l-279 -287h-303l205 287h377zM1120 1118h-563l-43 -239h514l-55 -308h-512l-45 -256h573l-55 -315h-901l252 1434h891z" />
    <glyph glyph-name="Ecircumflex" unicode="&#xca;" horiz-adv-x="1085" 
d="M764 1649l-96 -113h-297l270 307h303l164 -307h-297zM1120 1118h-563l-43 -239h514l-55 -308h-512l-45 -256h573l-55 -315h-901l252 1434h891z" />
    <glyph glyph-name="Edieresis" unicode="&#xcb;" horiz-adv-x="1085" 
d="M551 1516q-63 0 -100.5 45t-26.5 108q10 63 63.5 108.5t116.5 45.5t100.5 -45.5t26.5 -108.5q-10 -63 -63.5 -108t-116.5 -45zM940 1516q-63 0 -100.5 45t-26.5 108q10 63 63.5 108.5t116.5 45.5t100.5 -45.5t26.5 -108.5q-10 -63 -63.5 -108t-116.5 -45zM1120 1118h-563
l-43 -239h514l-55 -308h-512l-45 -256h573l-55 -315h-901l252 1434h891z" />
    <glyph glyph-name="Igrave" unicode="&#xcc;" horiz-adv-x="573" 
d="M655 1556l-129 287h-354l195 -287h288zM285 1434h327l-252 -1434h-327z" />
    <glyph glyph-name="Iacute" unicode="&#xcd;" horiz-adv-x="573" 
d="M287 1556h303l278 287h-376zM285 1434h327l-252 -1434h-327z" />
    <glyph glyph-name="Icircumflex" unicode="&#xce;" horiz-adv-x="573" 
d="M481 1649l-96 -113h-297l270 307h304l163 -307h-297zM33 0l252 1434h327l-252 -1434h-327z" />
    <glyph glyph-name="Idieresis" unicode="&#xcf;" horiz-adv-x="573" 
d="M268 1516q-63 0 -100.5 45t-26.5 108q10 63 64 108.5t117 45.5t100.5 -45.5t26.5 -108.5q-10 -63 -64 -108t-117 -45zM657 1516q-63 0 -100.5 45t-26.5 108q10 63 64 108.5t117 45.5t100.5 -45.5t26.5 -108.5q-10 -63 -64 -108t-117 -45zM285 1434h327l-252 -1434h-327z
" />
    <glyph glyph-name="Eth" unicode="&#xd0;" horiz-adv-x="1542" 
d="M942 1434q185 0 329 -99t210.5 -269.5t31.5 -369.5q-36 -201 -151.5 -359.5t-291 -247.5t-380.5 -89h-573l96 549h-164l51 295h164l105 590h573zM1198 727q32 182 -54 286.5t-257 104.5h-246l-49 -274h287l-52 -295h-286l-41 -234h225q183 0 312 113t161 299z" />
    <glyph glyph-name="Ntilde" unicode="&#xd1;" horiz-adv-x="1372" 
d="M500 1542q11 122 58 201.5t111 106.5t134.5 18t134.5 -53q46 -33 71 -22.5t35 71.5h246q-11 -122 -58 -201.5t-111 -106.5t-134.5 -18t-134.5 53q-47 33 -72 22.5t-35 -71.5h-245zM33 0l252 1434h245l412 -805l141 805h328l-252 -1434h-246l-409 805l-144 -805h-327z" />
    <glyph glyph-name="Ograve" unicode="&#xd2;" horiz-adv-x="1613" 
d="M1180 1577l-129 287h-355l195 -287h289zM721 -29q-153 0 -282.5 61t-213 163.5t-118.5 244.5t-7 297q28 157 104 291t188.5 230t260.5 150t314 54q150 0 278.5 -61t212 -163.5t119 -244.5t8.5 -297q-38 -210 -156.5 -374.5t-302.5 -257.5t-405 -93zM756 291
q179 0 323.5 119t177.5 307q33 189 -64 307.5t-275 118.5t-317.5 -118.5t-172.5 -307.5q-33 -190 59.5 -308t268.5 -118z" />
    <glyph glyph-name="Oacute" unicode="&#xd3;" horiz-adv-x="1613" 
d="M811 1577h303l279 287h-377zM721 -29q-153 0 -282.5 61t-213 163.5t-118.5 244.5t-7 297q28 157 104 291t188.5 230t260.5 150t314 54q150 0 278.5 -61t212 -163.5t119 -244.5t8.5 -297q-38 -210 -156.5 -374.5t-302.5 -257.5t-405 -93zM756 291q179 0 323.5 119
t177.5 307q33 189 -64 307.5t-275 118.5t-317.5 -118.5t-172.5 -307.5q-33 -190 59.5 -308t268.5 -118z" />
    <glyph glyph-name="Ocircumflex" unicode="&#xd4;" horiz-adv-x="1613" 
d="M1006 1669l-97 -113h-297l271 308h303l164 -308h-297zM967 1462q150 0 278.5 -61t212 -163.5t119 -244.5t8.5 -297q-38 -210 -156.5 -374.5t-302.5 -257.5t-405 -93q-153 0 -282.5 61t-213 163.5t-118.5 244.5t-7 297q28 157 104 291t188.5 230t260.5 150t314 54z
M1257 717q33 189 -64 307.5t-275 118.5t-317.5 -118.5t-172.5 -307.5q-33 -190 59.5 -308t268.5 -118q179 0 323.5 119t177.5 307z" />
    <glyph glyph-name="Otilde" unicode="&#xd5;" horiz-adv-x="1613" 
d="M625 1563q9 98 41.5 169.5t78.5 107t101 47t111 -2.5t106 -49q46 -33 71 -22.5t35 71.5h246q-9 -98 -41.5 -169.5t-78.5 -107t-101 -47t-111 2.5t-106 49q-47 33 -72 22.5t-35 -71.5h-245zM721 -29q-153 0 -282.5 61t-213 163.5t-118.5 244.5t-7 297q28 157 104 291
t188.5 230t260.5 150t314 54q150 0 278.5 -61t212 -163.5t119 -244.5t8.5 -297q-38 -210 -156.5 -374.5t-302.5 -257.5t-405 -93zM756 291q179 0 323.5 119t177.5 307q33 189 -64 307.5t-275 118.5t-317.5 -118.5t-172.5 -307.5q-33 -190 59.5 -308t268.5 -118z" />
    <glyph glyph-name="Odieresis" unicode="&#xd6;" horiz-adv-x="1613" 
d="M793 1536q-63 0 -100.5 45.5t-26.5 108.5q10 63 63.5 108t116.5 45t100.5 -45t26.5 -108q-10 -63 -63.5 -108.5t-116.5 -45.5zM1182 1536q-63 0 -100.5 45.5t-26.5 108.5q10 63 63.5 108t116.5 45t100.5 -45t26.5 -108q-10 -63 -63.5 -108.5t-116.5 -45.5zM721 -29
q-153 0 -282.5 61t-213 163.5t-118.5 244.5t-7 297q28 157 104 291t188.5 230t260.5 150t314 54q150 0 278.5 -61t212 -163.5t119 -244.5t8.5 -297q-38 -210 -156.5 -374.5t-302.5 -257.5t-405 -93zM756 291q179 0 323.5 119t177.5 307q33 189 -64 307.5t-275 118.5
t-317.5 -118.5t-172.5 -307.5q-33 -190 59.5 -308t268.5 -118z" />
    <glyph glyph-name="multiply" unicode="&#xd7;" horiz-adv-x="1075" 
d="M1051 950l-277 -239l195 -228l-224 -200l-196 233l-268 -233l-183 200l275 240l-193 227l221 201l197 -231l268 231z" />
    <glyph glyph-name="Oslash" unicode="&#xd8;" horiz-adv-x="1624" 
d="M1466 1237q88 -105 123 -245.5t6 -295.5q-38 -210 -156.5 -374.5t-302.5 -257.5t-405 -93q-225 0 -389 123l-121 -123l-149 95l149 151q-77 105 -106.5 238.5t-3.5 281.5q37 210 156 374.5t304 257.5t406 93q208 0 362 -108l107 108l149 -94zM438 717q-24 -149 25 -254
l633 645q-72 35 -168 35q-178 0 -317.5 -118.5t-172.5 -307.5zM1268 717q26 163 -41 276l-647 -657q79 -45 186 -45q179 0 324 119t178 307z" />
    <glyph glyph-name="Ugrave" unicode="&#xd9;" horiz-adv-x="1312" 
d="M1026 1556l-129 287h-354l194 -287h289zM594 -29q-259 0 -398.5 138t-101.5 354l172 971h328l-166 -942q-33 -201 190 -201q228 0 261 201l165 942h328l-172 -971q-43 -243 -206.5 -367.5t-399.5 -124.5z" />
    <glyph glyph-name="Uacute" unicode="&#xda;" horiz-adv-x="1312" 
d="M657 1556h304l278 287h-377zM594 -29q-259 0 -398.5 138t-101.5 354l172 971h328l-166 -942q-33 -201 190 -201q228 0 261 201l165 942h328l-172 -971q-43 -243 -206.5 -367.5t-399.5 -124.5z" />
    <glyph glyph-name="Ucircumflex" unicode="&#xdb;" horiz-adv-x="1312" 
d="M852 1649l-96 -113h-297l270 307h303l164 -307h-297zM1044 1434h328l-172 -971q-43 -243 -206.5 -367.5t-399.5 -124.5q-259 0 -398.5 138t-101.5 354l172 971h328l-166 -942q-33 -201 190 -201q228 0 261 201z" />
    <glyph glyph-name="Udieresis" unicode="&#xdc;" horiz-adv-x="1312" 
d="M639 1516q-63 0 -100.5 45t-26.5 108q10 63 63.5 108.5t116.5 45.5t100.5 -45.5t26.5 -108.5q-10 -63 -63.5 -108t-116.5 -45zM1028 1516q-63 0 -100.5 45t-26.5 108q10 63 63.5 108.5t116.5 45.5t100.5 -45.5t26.5 -108.5q-10 -63 -63.5 -108t-116.5 -45zM594 -29
q-259 0 -398.5 138t-101.5 354l172 971h328l-166 -942q-33 -201 190 -201q228 0 261 201l165 942h328l-172 -971q-43 -243 -206.5 -367.5t-399.5 -124.5z" />
    <glyph glyph-name="Yacute" unicode="&#xdd;" horiz-adv-x="1249" 
d="M1206 1843l-278 -287h-303l204 287h377zM1411 1434l-602 -807l-111 -627h-327l110 629l-319 805h354l168 -484l336 484h391z" />
    <glyph glyph-name="Thorn" unicode="&#xde;" horiz-adv-x="1208" 
d="M764 1208q147 0 254 -67.5t154.5 -184.5t27.5 -260q-30 -210 -187 -340.5t-401 -130.5h-213l-39 -225h-327l252 1434h327l-39 -226h191zM872 717q16 84 -23.5 134t-137.5 50h-193l-63 -369h190q92 0 150.5 49.5t76.5 135.5z" />
    <glyph glyph-name="germandbls" unicode="&#xdf;" horiz-adv-x="1114" 
d="M473 -14l47 270q109 -16 164.5 13t65.5 87q7 39 -17.5 100t-57.5 115.5t-57 118.5t-16 107q8 45 44 98t72.5 100.5t43.5 77.5q13 52 -16 81.5t-84 29.5q-124 0 -146 -129l-186 -1055h-307l186 1055q70 407 504 407q115 0 204.5 -47t132.5 -128.5t25 -178.5
q-9 -48 -34 -96.5t-49.5 -80.5t-46.5 -69t-27 -65q-6 -38 16 -100t51.5 -120.5t49 -141t7.5 -156.5q-10 -59 -34.5 -108t-68.5 -92t-108.5 -67t-153.5 -34t-204 8z" />
    <glyph glyph-name="agrave" unicode="&#xe0;" horiz-adv-x="1275" 
d="M911 1147h-288l-195 287h354zM946 1024h307l-180 -1024h-307l12 70q-119 -99 -307 -99q-81 0 -149 23t-115.5 62.5t-82.5 94t-50 117t-19 131.5t11 138q18 100 65.5 191.5t119 164.5t173 116.5t217.5 43.5q193 0 287 -138zM569 262q107 0 187 67.5t100 180.5v2
q20 114 -36 182t-163 68t-185.5 -68t-98.5 -182t34.5 -182t161.5 -68z" />
    <glyph glyph-name="aacute" unicode="&#xe1;" horiz-adv-x="1275" 
d="M1124 1434l-278 -287h-303l205 287h376zM946 1024h307l-180 -1024h-307l12 70q-119 -99 -307 -99q-81 0 -149 23t-115.5 62.5t-82.5 94t-50 117t-19 131.5t11 138q18 100 65.5 191.5t119 164.5t173 116.5t217.5 43.5q193 0 287 -138zM569 262q107 0 187 67.5t100 180.5v2
q20 114 -36 182t-163 68t-185.5 -68t-98.5 -182t34.5 -182t161.5 -68z" />
    <glyph glyph-name="acircumflex" unicode="&#xe2;" horiz-adv-x="1275" 
d="M737 1239l-96 -113h-297l270 308h304l163 -308h-297zM946 1024h307l-180 -1024h-307l12 70q-119 -99 -307 -99q-81 0 -149 23t-115.5 62.5t-82.5 94t-50 117t-19 131.5t11 138q18 100 65.5 191.5t119 164.5t173 116.5t217.5 43.5q193 0 287 -138zM569 262q107 0 187 67.5
t100 180.5v2q20 114 -36 182t-163 68t-185.5 -68t-98.5 -182t34.5 -182t161.5 -68z" />
    <glyph glyph-name="atilde" unicode="&#xe3;" horiz-adv-x="1275" 
d="M709 1182q-47 33 -72 22.5t-35 -71.5h-246q9 98 41.5 169.5t78.5 107t101.5 47t111.5 -2.5t106 -49q46 -33 71 -22.5t35 71.5h246q-9 -98 -41.5 -169.5t-78.5 -107t-101 -47t-111 2.5t-106 49zM946 1024h307l-180 -1024h-307l12 70q-119 -99 -307 -99q-81 0 -149 23
t-115.5 62.5t-82.5 94t-50 117t-19 131.5t11 138q18 100 65.5 191.5t119 164.5t173 116.5t217.5 43.5q193 0 287 -138zM569 262q107 0 187 67.5t100 180.5v2q20 114 -36 182t-163 68t-185.5 -68t-98.5 -182t34.5 -182t161.5 -68z" />
    <glyph glyph-name="adieresis" unicode="&#xe4;" horiz-adv-x="1275" 
d="M524 1106q-63 0 -100.5 45.5t-26.5 108.5q10 63 64 108t117 45t100.5 -45t26.5 -108q-10 -63 -64 -108.5t-117 -45.5zM913 1106q-63 0 -100.5 45.5t-26.5 108.5q10 63 64 108t117 45t100.5 -45t26.5 -108q-10 -63 -64 -108.5t-117 -45.5zM946 1024h307l-180 -1024h-307
l12 70q-119 -99 -307 -99q-81 0 -149 23t-115.5 62.5t-82.5 94t-50 117t-19 131.5t11 138q18 100 65.5 191.5t119 164.5t173 116.5t217.5 43.5q193 0 287 -138zM569 262q107 0 187 67.5t100 180.5v2q20 114 -36 182t-163 68t-185.5 -68t-98.5 -182t34.5 -182t161.5 -68z" />
    <glyph glyph-name="aring" unicode="&#xe5;" horiz-adv-x="1275" 
d="M723 1096q-117 0 -185 77.5t-49 186.5q20 110 106.5 179t205.5 69t186 -77.5t47 -187.5q-19 -110 -104 -178.5t-207 -68.5zM690 1354q-5 -31 10.5 -51.5t49.5 -20.5q36 0 58.5 19t27.5 49q6 30 -10 50.5t-52 20.5q-34 0 -56 -18.5t-28 -48.5zM946 1024h307l-180 -1024
h-307l12 70q-119 -99 -307 -99q-81 0 -149 23t-115.5 62.5t-82.5 94t-50 117t-19 131.5t11 138q18 100 65.5 191.5t119 164.5t173 116.5t217.5 43.5q193 0 287 -138zM569 262q107 0 187 67.5t100 180.5v2q20 114 -36 182t-163 68t-185.5 -68t-98.5 -182t34.5 -182t161.5 -68
z" />
    <glyph glyph-name="ae" unicode="&#xe6;" horiz-adv-x="1986" 
d="M1534 1053q141 0 239.5 -70t137.5 -193t14 -278q-10 -60 -33 -123h-733q23 -143 211 -143q129 0 215 80l215 -176q-91 -93 -187.5 -136t-221.5 -43q-210 0 -320 129l-18 -100h-287l16 92q-131 -121 -311 -121q-81 0 -149 23t-115.5 62.5t-82.5 94t-50 117t-19 131.5
t11 138q18 100 65.5 191.5t119 164.5t173 116.5t217.5 43.5q198 0 289 -125l16 96h287l-12 -66q135 95 313 95zM1202 623h434q-7 81 -57 119t-127 38q-82 0 -147 -40.5t-103 -116.5zM569 262q107 0 187 67.5t100 180.5v2q20 114 -36 182t-163 68t-187.5 -68t-100.5 -182
t36.5 -182t163.5 -68z" />
    <glyph glyph-name="ccedilla" unicode="&#xe7;" horiz-adv-x="1095" 
d="M565 274q132 0 213 115l248 -158q-64 -104 -161.5 -167t-213.5 -82l-12 -76q48 -17 80 -61t20 -115q-12 -64 -60.5 -105t-157 -60.5t-275.5 -6.5l37 213q191 -15 200 28q3 18 -22.5 27t-79.5 14l27 146q-184 44 -278.5 194.5t-63.5 351.5q23 148 108.5 267t217 186.5
t284.5 67.5q160 0 272 -72.5t164 -194.5l-281 -147q-48 111 -182 111q-102 0 -180 -64.5t-96 -169.5q-19 -105 36.5 -173.5t155.5 -68.5z" />
    <glyph glyph-name="egrave" unicode="&#xe8;" horiz-adv-x="1191" 
d="M918 1157h-289l-195 287h354zM678 1053q147 0 260.5 -69.5t166.5 -194.5t25 -277q-10 -65 -32 -123h-733q23 -143 210 -143q130 0 216 80l215 -176q-176 -179 -451 -179q-130 0 -232.5 44.5t-164 121t-86 178.5t-6.5 217q36 223 209 372t403 149zM408 623h434
q-7 81 -57.5 119t-127.5 38q-82 0 -146.5 -40.5t-102.5 -116.5z" />
    <glyph glyph-name="eacute" unicode="&#xe9;" horiz-adv-x="1191" 
d="M1130 1444l-278 -287h-303l205 287h376zM678 1053q147 0 260.5 -69.5t166.5 -194.5t25 -277q-10 -65 -32 -123h-733q23 -143 210 -143q130 0 216 80l215 -176q-176 -179 -451 -179q-130 0 -232.5 44.5t-164 121t-86 178.5t-6.5 217q36 223 209 372t403 149zM408 623h434
q-7 81 -57.5 119t-127.5 38q-82 0 -146.5 -40.5t-102.5 -116.5z" />
    <glyph glyph-name="ecircumflex" unicode="&#xea;" horiz-adv-x="1191" 
d="M743 1249l-96 -112h-297l271 307h303l163 -307h-296zM678 1053q147 0 260.5 -69.5t166.5 -194.5t25 -277q-10 -65 -32 -123h-733q23 -143 210 -143q130 0 216 80l215 -176q-176 -179 -451 -179q-130 0 -232.5 44.5t-164 121t-86 178.5t-6.5 217q36 223 209 372t403 149z
M408 623h434q-7 81 -57.5 119t-127.5 38q-82 0 -146.5 -40.5t-102.5 -116.5z" />
    <glyph glyph-name="edieresis" unicode="&#xeb;" horiz-adv-x="1191" 
d="M530 1116q-63 0 -100.5 45.5t-26.5 108.5q10 63 64 108t117 45t100.5 -45t26.5 -108q-10 -63 -64 -108.5t-117 -45.5zM920 1116q-63 0 -100.5 45.5t-26.5 108.5q10 63 63.5 108t116.5 45t100.5 -45t26.5 -108q-10 -63 -63.5 -108.5t-116.5 -45.5zM678 1053
q147 0 260.5 -69.5t166.5 -194.5t25 -277q-10 -65 -32 -123h-733q23 -143 210 -143q130 0 216 80l215 -176q-176 -179 -451 -179q-130 0 -232.5 44.5t-164 121t-86 178.5t-6.5 217q36 223 209 372t403 149zM408 623h434q-7 81 -57.5 119t-127.5 38q-82 0 -146.5 -40.5
t-102.5 -116.5z" />
    <glyph glyph-name="igrave" unicode="&#xec;" horiz-adv-x="532" 
d="M518 1126l-49 308h-328l92 -308h285zM330 0h-307l180 1024h307z" />
    <glyph glyph-name="iacute" unicode="&#xed;" horiz-adv-x="532" 
d="M221 1126h295l189 308h-349zM23 0l180 1024h307l-180 -1024h-307z" />
    <glyph glyph-name="icircumflex" unicode="&#xee;" horiz-adv-x="532" 
d="M397 1217l-63 -91h-307l249 308h304l143 -308h-287zM23 0l180 1024h307l-180 -1024h-307z" />
    <glyph glyph-name="idieresis" unicode="&#xef;" horiz-adv-x="532" 
d="M188 1116q-63 0 -100.5 45.5t-26.5 108.5q10 63 64 108t117 45t100.5 -45t26.5 -108q-10 -63 -64 -108.5t-117 -45.5zM557 1116q-63 0 -100.5 45.5t-26.5 108.5q10 63 63.5 108t116.5 45t100.5 -45t26.5 -108q-10 -63 -63.5 -108.5t-116.5 -45.5zM23 0l180 1024h307
l-180 -1024h-307z" />
    <glyph glyph-name="eth" unicode="&#xf0;" horiz-adv-x="1165" 
d="M1028 758q37 -64 57.5 -146.5t8.5 -160.5q-20 -114 -76 -206t-135 -150t-175 -89t-200 -31q-103 0 -194 37.5t-155 103t-93 164t-9 212.5q32 186 184.5 312t344.5 126l-76 139l-295 -123l37 215l170 70l-111 203h322l53 -93l291 121l-37 -215l-160 -65zM786 471
q11 69 -16 121q-49 80 -160 80q-95 0 -162.5 -54t-82.5 -147q-18 -98 30 -153.5t144 -55.5q95 0 161.5 55.5t85.5 153.5z" />
    <glyph glyph-name="ntilde" unicode="&#xf1;" 
d="M690 1202q-47 33 -71.5 22.5t-34.5 -71.5h-246q9 98 41.5 169.5t78.5 107t101 47t111 -2.5t106 -49q46 -33 71.5 -22t35.5 72h245q-11 -122 -58 -201.5t-111 -106.5t-134.5 -18t-134.5 53zM795 1053q166 0 260.5 -114t60.5 -310l-110 -629h-308l103 584
q16 93 -26.5 139.5t-121.5 46.5q-81 0 -141.5 -49.5t-81.5 -149.5l-100 -571h-307l180 1024h307l-16 -96q52 58 133 91.5t168 33.5z" />
    <glyph glyph-name="ograve" unicode="&#xf2;" horiz-adv-x="1208" 
d="M905 1167l-129 287h-354l194 -287h289zM541 -29q-79 0 -148 18t-120 49.5t-93 75t-66.5 94.5t-40 108.5t-14.5 117t11 119.5q20 100 71 189.5t127.5 159t184 110.5t231.5 41t222.5 -51t154 -133.5t77.5 -184t3 -205.5q-18 -99 -71 -191.5t-131 -162.5t-182 -112t-216 -42
zM561 270q101 0 178.5 67t96.5 175q20 107 -34 174.5t-155 67.5q-100 0 -175 -67t-95 -175q-19 -108 32.5 -175t151.5 -67z" />
    <glyph glyph-name="oacute" unicode="&#xf3;" horiz-adv-x="1208" 
d="M537 1167h303l278 287h-377zM541 -29q-79 0 -148 18t-120 49.5t-93 75t-66.5 94.5t-40 108.5t-14.5 117t11 119.5q20 100 71 189.5t127.5 159t184 110.5t231.5 41t222.5 -51t154 -133.5t77.5 -184t3 -205.5q-18 -99 -71 -191.5t-131 -162.5t-182 -112t-216 -42zM561 270
q101 0 178.5 67t96.5 175q20 107 -34 174.5t-155 67.5q-100 0 -175 -67t-95 -175q-19 -108 32.5 -175t151.5 -67z" />
    <glyph glyph-name="ocircumflex" unicode="&#xf4;" horiz-adv-x="1208" 
d="M731 1260l-96 -113h-297l270 307h303l164 -307h-297zM684 1053q124 0 222.5 -51t154 -133.5t77.5 -184t3 -205.5q-18 -99 -71 -191.5t-131 -162.5t-182 -112t-216 -42q-79 0 -148 18t-120 49.5t-93 75t-66.5 94.5t-40 108.5t-14.5 117t11 119.5q20 100 71 189.5
t127.5 159t184 110.5t231.5 41zM836 512q20 107 -34 174.5t-155 67.5q-100 0 -175 -67t-95 -175q-19 -108 32.5 -175t151.5 -67q101 0 178.5 67t96.5 175z" />
    <glyph glyph-name="otilde" unicode="&#xf5;" horiz-adv-x="1208" 
d="M350 1153q9 98 41.5 169.5t78.5 107t101 47t111 -2.5t106 -49q46 -33 71.5 -22t35.5 72h246q-9 -98 -41.5 -169.5t-78.5 -107t-101.5 -47.5t-111.5 2t-106 49q-47 33 -71.5 22.5t-34.5 -71.5h-246zM541 -29q-79 0 -148 18t-120 49.5t-93 75t-66.5 94.5t-40 108.5
t-14.5 117t11 119.5q20 100 71 189.5t127.5 159t184 110.5t231.5 41t222.5 -51t154 -133.5t77.5 -184t3 -205.5q-18 -99 -71 -191.5t-131 -162.5t-182 -112t-216 -42zM561 270q101 0 178.5 67t96.5 175q20 107 -34 174.5t-155 67.5q-100 0 -175 -67t-95 -175
q-19 -108 32.5 -175t151.5 -67z" />
    <glyph glyph-name="odieresis" unicode="&#xf6;" horiz-adv-x="1208" 
d="M518 1126q-63 0 -100.5 45.5t-26.5 108.5q10 63 63.5 108.5t116.5 45.5t100.5 -45.5t26.5 -108.5q-10 -63 -63.5 -108.5t-116.5 -45.5zM907 1126q-63 0 -100.5 45.5t-26.5 108.5q10 63 64 108.5t117 45.5t100 -45.5t26 -108.5q-10 -63 -63.5 -108.5t-116.5 -45.5z
M541 -29q-79 0 -148 18t-120 49.5t-93 75t-66.5 94.5t-40 108.5t-14.5 117t11 119.5q20 100 71 189.5t127.5 159t184 110.5t231.5 41t222.5 -51t154 -133.5t77.5 -184t3 -205.5q-18 -99 -71 -191.5t-131 -162.5t-182 -112t-216 -42zM561 270q101 0 178.5 67t96.5 175
q20 107 -34 174.5t-155 67.5q-100 0 -175 -67t-95 -175q-19 -108 32.5 -175t151.5 -67z" />
    <glyph glyph-name="divide" unicode="&#xf7;" horiz-adv-x="1146" 
d="M651 936q-78 0 -123.5 55t-31.5 133q13 78 75 129.5t140 51.5t122.5 -55.5t30.5 -133.5q-13 -78 -74 -129t-139 -51zM92 573l51 287h983l-51 -287h-983zM508 129q-78 0 -123 55t-31 133q13 78 75 129.5t140 51.5t123 -55.5t31 -133.5q-13 -78 -75 -129t-140 -51z" />
    <glyph glyph-name="oslash" unicode="&#xf8;" horiz-adv-x="1208" 
d="M1163 973l-102 -105q57 -82 78 -184t2 -205q-18 -101 -68 -192t-126 -161.5t-181.5 -112.5t-224.5 -42q-165 0 -289 80l-70 -71l-129 69l99 98q-62 84 -83.5 192t1.5 214q20 100 71 189.5t127.5 159t184 110.5t231.5 41q163 0 277 -84l73 75zM377 512q-12 -76 8 -127
l348 352q-46 17 -86 17q-100 0 -175 -67t-95 -175zM836 512q12 69 -7 123l-346 -352q37 -13 78 -13q101 0 178.5 67t96.5 175z" />
    <glyph glyph-name="ugrave" unicode="&#xf9;" 
d="M868 1147h-288l-195 287h354zM858 1024h307l-180 -1024h-307l16 96q-52 -58 -133 -91.5t-168 -33.5q-166 0 -260.5 114t-60.5 310l110 629h307l-102 -584q-16 -93 26.5 -139.5t121.5 -46.5q81 0 141.5 49.5t81.5 149.5z" />
    <glyph glyph-name="uacute" unicode="&#xfa;" 
d="M1081 1434l-278 -287h-303l205 287h376zM858 1024h307l-180 -1024h-307l16 96q-52 -58 -133 -91.5t-168 -33.5q-166 0 -260.5 114t-60.5 310l110 629h307l-102 -584q-16 -93 26.5 -139.5t121.5 -46.5q81 0 141.5 49.5t81.5 149.5z" />
    <glyph glyph-name="ucircumflex" unicode="&#xfb;" 
d="M694 1239l-96 -113h-297l270 308h303l164 -308h-297zM858 1024h307l-180 -1024h-307l16 96q-52 -58 -133 -91.5t-168 -33.5q-166 0 -260.5 114t-60.5 310l110 629h307l-102 -584q-16 -93 26.5 -139.5t121.5 -46.5q81 0 141.5 49.5t81.5 149.5z" />
    <glyph glyph-name="udieresis" unicode="&#xfc;" 
d="M481 1106q-63 0 -100.5 45.5t-26.5 108.5q10 63 64 108t117 45t100.5 -45t26.5 -108q-10 -63 -64 -108.5t-117 -45.5zM870 1106q-63 0 -100.5 45.5t-26.5 108.5q10 63 64 108t117 45t100.5 -45t26.5 -108q-10 -63 -64 -108.5t-117 -45.5zM858 1024h307l-180 -1024h-307
l16 96q-52 -58 -133 -91.5t-168 -33.5q-166 0 -260.5 114t-60.5 310l110 629h307l-102 -584q-16 -93 26.5 -139.5t121.5 -46.5q81 0 141.5 49.5t81.5 149.5z" />
    <glyph glyph-name="yacute" unicode="&#xfd;" horiz-adv-x="1085" 
d="M1024 1434l-279 -287h-303l205 287h377zM836 1024h340l-525 -993q-92 -174 -197.5 -275.5t-215.5 -137t-248 -28.5l49 287q110 0 167.5 35.5t110.5 132.5l-227 979h316l126 -627z" />
    <glyph glyph-name="thorn" unicode="&#xfe;" horiz-adv-x="1275" 
d="M801 1053q146 0 248.5 -81.5t142.5 -208.5t18 -271q-14 -98 -58.5 -189.5t-113.5 -166.5t-170 -120t-217 -45q-205 0 -301 146l-92 -527h-307l323 1844h308l-86 -496q124 115 305 115zM903 512q20 114 -33.5 182t-160.5 68q-108 0 -188.5 -68t-100.5 -182t36.5 -182
t164.5 -68q107 0 184.5 68t97.5 182z" />
    <glyph glyph-name="ydieresis" unicode="&#xff;" horiz-adv-x="1085" 
d="M424 1106q-63 0 -100.5 45.5t-26.5 108.5q10 63 63.5 108t116.5 45t100.5 -45t26.5 -108q-10 -63 -63.5 -108.5t-116.5 -45.5zM813 1106q-63 0 -100.5 45.5t-26.5 108.5q10 63 63.5 108t116.5 45t100.5 -45t26.5 -108q-10 -63 -63.5 -108.5t-116.5 -45.5zM836 1024h340
l-525 -993q-92 -174 -197.5 -275.5t-215.5 -137t-248 -28.5l49 287q110 0 167.5 35.5t110.5 132.5l-227 979h316l126 -627z" />
    <glyph glyph-name="Amacron" unicode="&#x100;" horiz-adv-x="1392" 
d="M1231 1800l-43 -246h-615l43 246h615zM944 0l-29 225h-532l-115 -225h-358l739 1434h418l236 -1434h-359zM537 532h342l-68 543z" />
    <glyph glyph-name="amacron" unicode="&#x101;" horiz-adv-x="1275" 
d="M1077 1391l-43 -246h-614l43 246h614zM946 1024h307l-180 -1024h-307l12 70q-119 -99 -307 -99q-81 0 -149 23t-115.5 62.5t-82.5 94t-50 117t-19 131.5t11 138q18 100 65.5 191.5t119 164.5t173 116.5t217.5 43.5q193 0 287 -138zM569 262q107 0 187 67.5t100 180.5v2
q20 114 -36 182t-163 68t-185.5 -68t-98.5 -182t34.5 -182t161.5 -68z" />
    <glyph glyph-name="Abreve" unicode="&#x102;" horiz-adv-x="1392" 
d="M889 1520q-173 0 -259.5 83t-60.5 224h271q-7 -44 12 -69t59 -25q89 0 105 94h270q-24 -148 -125 -227.5t-272 -79.5zM944 0l-29 225h-532l-115 -225h-358l739 1434h418l236 -1434h-359zM537 532h342l-68 543z" />
    <glyph glyph-name="abreve" unicode="&#x103;" horiz-adv-x="1275" 
d="M735 1110q-173 0 -259 83t-60 224h270q-7 -44 12.5 -69t59.5 -25q48 0 72 23.5t32 70.5h271q-23 -148 -124.5 -227.5t-273.5 -79.5zM946 1024h307l-180 -1024h-307l12 70q-119 -99 -307 -99q-81 0 -149 23t-115.5 62.5t-82.5 94t-50 117t-19 131.5t11 138
q18 100 65.5 191.5t119 164.5t173 116.5t217.5 43.5q193 0 287 -138zM569 262q107 0 187 67.5t100 180.5v2q20 114 -36 182t-163 68t-185.5 -68t-98.5 -182t34.5 -182t161.5 -68z" />
    <glyph glyph-name="Aogonek" unicode="&#x104;" horiz-adv-x="1392" 
d="M1180 -160q-6 -25 4 -42t33 -17q25 0 49 8l-35 -192q-90 -35 -187 -35q-88 0 -139 56.5t-33 150.5q21 115 164 231h-92l-29 225h-532l-115 -225h-358l739 1434h418l236 -1434q-108 -94 -123 -160zM537 532h342l-68 543z" />
    <glyph glyph-name="aogonek" unicode="&#x105;" horiz-adv-x="1275" 
d="M946 1024h307l-180 -1024q-50 -44 -86 -98.5t-39 -89.5q-3 -39 37 -39q25 0 49 8l-33 -184q-71 -35 -161 -35q-99 0 -157 48.5t-40 141.5q17 107 176 248h-53l12 70q-119 -99 -307 -99q-81 0 -149 23t-115.5 62.5t-82.5 94t-50 117t-19 131.5t11 138q18 100 65.5 191.5
t119 164.5t173 116.5t217.5 43.5q193 0 287 -138zM569 262q107 0 187 67.5t100 180.5v2q20 114 -36 182t-163 68t-185.5 -68t-98.5 -182t34.5 -182t161.5 -68z" />
    <glyph glyph-name="Cacute" unicode="&#x106;" horiz-adv-x="1480" 
d="M813 1577h303l279 287h-377zM735 -29q-216 0 -374.5 103.5t-227 279t-33.5 383.5q26 155 103 290t188.5 230.5t256.5 150t302 54.5q205 0 351.5 -88.5t218.5 -245.5l-301 -157q-84 172 -304 172q-186 0 -319.5 -117t-167.5 -309q-34 -191 57 -308.5t269 -117.5
q236 0 372 182l267 -174q-116 -154 -289 -241t-369 -87z" />
    <glyph glyph-name="cacute" unicode="&#x107;" horiz-adv-x="1095" 
d="M510 1147h303l279 287h-377zM543 -29q-161 0 -279 74.5t-170 202.5t-28 284q23 148 108.5 267t217 186.5t284.5 67.5q160 0 272 -72.5t164 -194.5l-281 -147q-48 111 -182 111q-102 0 -180 -64.5t-96 -169.5q-19 -105 36.5 -173.5t155.5 -68.5q132 0 213 115l248 -158
q-79 -129 -207.5 -194.5t-275.5 -65.5z" />
    <glyph glyph-name="Cdotaccent" unicode="&#x10a;" horiz-adv-x="1480" 
d="M993 1546q-71 0 -113.5 52t-29.5 122q12 71 72.5 122.5t130.5 51.5q71 0 114 -52t31 -122q-14 -71 -74.5 -122.5t-130.5 -51.5zM735 -29q-216 0 -374.5 103.5t-227 279t-33.5 383.5q26 155 103 290t188.5 230.5t256.5 150t302 54.5q205 0 351.5 -88.5t218.5 -245.5
l-301 -157q-84 172 -304 172q-186 0 -319.5 -117t-167.5 -309q-34 -191 57 -308.5t269 -117.5q236 0 372 182l267 -174q-116 -154 -289 -241t-369 -87z" />
    <glyph glyph-name="cdotaccent" unicode="&#x10b;" horiz-adv-x="1095" 
d="M690 1116q-71 0 -113.5 52t-29.5 122q12 71 72.5 122.5t130.5 51.5q71 0 114 -52t31 -122q-14 -71 -74.5 -122.5t-130.5 -51.5zM543 -29q-161 0 -279 74.5t-170 202.5t-28 284q23 148 108.5 267t217 186.5t284.5 67.5q160 0 272 -72.5t164 -194.5l-281 -147
q-48 111 -182 111q-102 0 -180 -64.5t-96 -169.5q-19 -105 36.5 -173.5t155.5 -68.5q132 0 213 115l248 -158q-79 -129 -207.5 -194.5t-275.5 -65.5z" />
    <glyph glyph-name="Ccaron" unicode="&#x10c;" horiz-adv-x="1480" 
d="M831 1556l-163 308h286l52 -113l92 113h307l-270 -308h-304zM754 291q236 0 372 182l267 -174q-116 -154 -289 -241t-369 -87q-216 0 -374.5 103.5t-227 279t-33.5 383.5q26 155 103 290t188.5 230.5t256.5 150t302 54.5q205 0 351.5 -88.5t218.5 -245.5l-301 -157
q-84 172 -304 172q-186 0 -319.5 -117t-167.5 -309q-34 -191 57 -308.5t269 -117.5z" />
    <glyph glyph-name="ccaron" unicode="&#x10d;" horiz-adv-x="1095" 
d="M528 1126l-163 308h286l51 -113l93 113h307l-271 -308h-303zM565 274q132 0 213 115l248 -158q-79 -129 -207.5 -194.5t-275.5 -65.5q-161 0 -279 74.5t-170 202.5t-28 284q23 148 108.5 267t217 186.5t284.5 67.5q160 0 272 -72.5t164 -194.5l-281 -147
q-48 111 -182 111q-102 0 -180 -64.5t-96 -169.5q-19 -105 36.5 -173.5t155.5 -68.5z" />
    <glyph glyph-name="Dcaron" unicode="&#x10e;" horiz-adv-x="1458" 
d="M674 1536l-164 307h287l51 -112l92 112h307l-270 -307h-303zM858 1434q138 0 257 -59t197 -157.5t111 -235.5t7 -286q-36 -201 -151.5 -359.5t-291.5 -247.5t-381 -89h-573l252 1434h573zM1114 727q32 182 -54 286.5t-257 104.5h-246l-141 -803h225q183 0 312 113
t161 299z" />
    <glyph glyph-name="dcaron" unicode="&#x10f;" horiz-adv-x="1538" 
d="M930 911l92 523h307l-252 -1434h-307l12 74q-119 -103 -311 -103q-81 0 -149 23t-115.5 62.5t-82.5 94t-50 117t-19 131.5t11 138q18 100 65.5 191.5t119 164.5t173 116.5t217.5 43.5q197 0 289 -142zM1434 1434h286l-137 -430h-246zM573 262q104 0 183 65.5t102 174.5
l4 20q15 110 -40 175t-160 65q-108 0 -188.5 -68t-100.5 -182t36.5 -182t163.5 -68z" />
    <glyph glyph-name="Dcroat" unicode="&#x110;" horiz-adv-x="1542" 
d="M942 1434q185 0 329 -99t210.5 -269.5t31.5 -369.5q-36 -201 -151.5 -359.5t-291 -247.5t-380.5 -89h-573l96 549h-164l51 295h164l105 590h573zM1198 727q32 182 -54 286.5t-257 104.5h-246l-49 -274h287l-52 -295h-286l-41 -234h225q183 0 312 113t161 299z" />
    <glyph glyph-name="dcroat" unicode="&#x111;" horiz-adv-x="1286" 
d="M1427 1311l-34 -193h-119l-197 -1118h-307l12 74q-119 -103 -311 -103q-81 0 -149 23t-115.5 62.5t-82.5 94t-50 117t-19 131.5t11 138q18 100 65.5 191.5t119 164.5t173 116.5t217.5 43.5q197 0 289 -142l37 207h-291l35 193h288l23 123h307l-22 -123h120zM573 262
q104 0 183 65.5t102 174.5l4 20q15 110 -40 175t-160 65q-108 0 -188.5 -68t-100.5 -182t36.5 -182t163.5 -68z" />
    <glyph glyph-name="Emacron" unicode="&#x112;" horiz-adv-x="1085" 
d="M1104 1800l-43 -246h-615l43 246h615zM1120 1118h-563l-43 -239h514l-55 -308h-512l-45 -256h573l-55 -315h-901l252 1434h891z" />
    <glyph glyph-name="emacron" unicode="&#x113;" horiz-adv-x="1191" 
d="M1083 1401l-43 -246h-614l43 246h614zM678 1053q147 0 260.5 -69.5t166.5 -194.5t25 -277q-10 -65 -32 -123h-733q23 -143 210 -143q130 0 216 80l215 -176q-176 -179 -451 -179q-130 0 -232.5 44.5t-164 121t-86 178.5t-6.5 217q36 223 209 372t403 149zM408 623h434
q-7 81 -57.5 119t-127.5 38q-82 0 -146.5 -40.5t-102.5 -116.5z" />
    <glyph glyph-name="Edotaccent" unicode="&#x116;" horiz-adv-x="1085" 
d="M750 1526q-71 0 -114 52t-30 122q12 71 72.5 122.5t130.5 51.5q71 0 114 -52t31 -122q-14 -71 -74 -122.5t-130 -51.5zM1120 1118h-563l-43 -239h514l-55 -308h-512l-45 -256h573l-55 -315h-901l252 1434h891z" />
    <glyph glyph-name="edotaccent" unicode="&#x117;" horiz-adv-x="1191" 
d="M729 1126q-71 0 -113.5 52t-29.5 122q12 71 72 123t130 52q71 0 114.5 -52.5t31.5 -122.5q-14 -71 -74.5 -122.5t-130.5 -51.5zM678 1053q147 0 260.5 -69.5t166.5 -194.5t25 -277q-10 -65 -32 -123h-733q23 -143 210 -143q130 0 216 80l215 -176q-176 -179 -451 -179
q-130 0 -232.5 44.5t-164 121t-86 178.5t-6.5 217q36 223 209 372t403 149zM408 623h434q-7 81 -57.5 119t-127.5 38q-82 0 -146.5 -40.5t-102.5 -116.5z" />
    <glyph glyph-name="Eogonek" unicode="&#x118;" horiz-adv-x="1085" 
d="M1120 1118h-563l-43 -239h514l-55 -308h-512l-45 -256h573l-55 -315q-109 -100 -123 -174q-13 -53 35 -53q17 -3 49 8l-33 -184q-90 -35 -186 -35q-90 0 -139 47t-33 139q20 113 176 252h-647l252 1434h891z" />
    <glyph glyph-name="eogonek" unicode="&#x119;" horiz-adv-x="1191" 
d="M678 1053q147 0 260.5 -69.5t166.5 -194.5t25 -277q-10 -65 -32 -123h-733q23 -143 210 -143q130 0 216 80l215 -176q-45 -45 -84 -72q-94 -79 -137 -141.5t-52 -102.5q-13 -61 41 -61q24 0 45 8l-33 -184q-75 -35 -168 -35q-108 0 -158 53.5t-36 132.5q18 102 162 223
h-31q-130 0 -232.5 44.5t-164 121t-86 178.5t-6.5 217q36 223 209 372t403 149zM408 623h434q-7 81 -57.5 119t-127.5 38q-82 0 -146.5 -40.5t-102.5 -116.5z" />
    <glyph glyph-name="Ecaron" unicode="&#x11a;" horiz-adv-x="1085" 
d="M588 1536l-164 307h287l51 -112l92 112h307l-270 -307h-303zM1120 1118h-563l-43 -239h514l-55 -308h-512l-45 -256h573l-55 -315h-901l252 1434h891z" />
    <glyph glyph-name="ecaron" unicode="&#x11b;" horiz-adv-x="1191" 
d="M567 1137l-164 307h287l51 -113l93 113h307l-271 -307h-303zM678 1053q147 0 260.5 -69.5t166.5 -194.5t25 -277q-10 -65 -32 -123h-733q23 -143 210 -143q130 0 216 80l215 -176q-176 -179 -451 -179q-130 0 -232.5 44.5t-164 121t-86 178.5t-6.5 217q36 223 209 372
t403 149zM408 623h434q-7 81 -57.5 119t-127.5 38q-82 0 -146.5 -40.5t-102.5 -116.5z" />
    <glyph glyph-name="Gbreve" unicode="&#x11e;" horiz-adv-x="1605" 
d="M1006 1540q-173 0 -259.5 83t-60.5 224h270q-7 -44 12.5 -69t59.5 -25q89 0 105 94h270q-24 -148 -125 -227.5t-272 -79.5zM1593 799l-20 -123q-56 -330 -284 -517.5t-548 -187.5q-165 0 -299 61t-217 164.5t-117 244t-8 296.5q26 155 103 290t188.5 230.5t256.5 150
t302 54.5q213 0 367 -90t233 -254l-301 -157q-96 182 -334 182q-186 0 -319.5 -117t-167.5 -309q-34 -193 60.5 -309.5t285.5 -116.5q307 0 420 221h-369l49 287h719z" />
    <glyph glyph-name="gbreve" unicode="&#x11f;" horiz-adv-x="1277" 
d="M727 1130q-173 0 -259 83.5t-60 224.5h270q-7 -44 12.5 -69.5t59.5 -25.5q88 0 104 95h270q-24 -148 -125 -228t-272 -80zM956 1024h299l-172 -973q-18 -107 -58.5 -191t-95.5 -139.5t-126 -91.5t-147.5 -51.5t-163.5 -15.5q-172 0 -297 62.5t-181 185.5l275 143
q59 -121 225 -121q110 0 181 56t89 163l13 72q-121 -111 -308 -111q-80 0 -148.5 21.5t-117 59t-85.5 89t-54 112t-22.5 127.5t8.5 136q16 95 61.5 182.5t115 158t169 113t213.5 42.5q216 0 307 -150zM580 299q103 0 182 59t104 154l8 43q8 94 -50 152.5t-160 58.5
q-109 0 -189.5 -65.5t-99.5 -168.5t38.5 -168t166.5 -65z" />
    <glyph glyph-name="Gdotaccent" unicode="&#x120;" horiz-adv-x="1605" 
d="M993 1546q-71 0 -113.5 52t-29.5 122q12 71 72.5 122.5t130.5 51.5q71 0 114 -52t31 -122q-14 -71 -74.5 -122.5t-130.5 -51.5zM1593 799l-20 -123q-56 -330 -284 -517.5t-548 -187.5q-165 0 -299 61t-217 164.5t-117 244t-8 296.5q26 155 103 290t188.5 230.5t256.5 150
t302 54.5q213 0 367 -90t233 -254l-301 -157q-96 182 -334 182q-186 0 -319.5 -117t-167.5 -309q-34 -193 60.5 -309.5t285.5 -116.5q307 0 420 221h-369l49 287h719z" />
    <glyph glyph-name="gdotaccent" unicode="&#x121;" horiz-adv-x="1277" 
d="M715 1137q-71 0 -114 52t-30 122q12 71 72.5 122.5t130.5 51.5q71 0 114.5 -52t31.5 -122q-14 -71 -74.5 -122.5t-130.5 -51.5zM956 1024h299l-172 -973q-18 -107 -58.5 -191t-95.5 -139.5t-126 -91.5t-147.5 -51.5t-163.5 -15.5q-172 0 -297 62.5t-181 185.5l275 143
q59 -121 225 -121q110 0 181 56t89 163l13 72q-121 -111 -308 -111q-80 0 -148.5 21.5t-117 59t-85.5 89t-54 112t-22.5 127.5t8.5 136q16 95 61.5 182.5t115 158t169 113t213.5 42.5q216 0 307 -150zM580 299q103 0 182 59t104 154l8 43q8 94 -50 152.5t-160 58.5
q-109 0 -189.5 -65.5t-99.5 -168.5t38.5 -168t166.5 -65z" />
    <glyph glyph-name="Gcommaaccent" unicode="&#x122;" horiz-adv-x="1605" 
d="M1593 799l-20 -123q-56 -330 -284 -517.5t-548 -187.5q-165 0 -299 61t-217 164.5t-117 244t-8 296.5q26 155 103 290t188.5 230.5t256.5 150t302 54.5q213 0 367 -90t233 -254l-301 -157q-96 182 -334 182q-186 0 -319.5 -117t-167.5 -309q-34 -193 60.5 -309.5
t285.5 -116.5q307 0 420 221h-369l49 287h719zM473 -553l96 430h287l-137 -430h-246z" />
    <glyph glyph-name="gcommaaccent" unicode="&#x123;" horiz-adv-x="1277" 
d="M948 1618l-96 -430h-287l137 430h246zM956 1024h299l-172 -973q-18 -107 -58.5 -191t-95.5 -139.5t-126 -91.5t-147.5 -51.5t-163.5 -15.5q-172 0 -297 62.5t-181 185.5l275 143q59 -121 225 -121q110 0 181 56t89 163l13 72q-121 -111 -308 -111q-80 0 -148.5 21.5
t-117 59t-85.5 89t-54 112t-22.5 127.5t8.5 136q16 95 61.5 182.5t115 158t169 113t213.5 42.5q216 0 307 -150zM580 299q103 0 182 59t104 154l8 43q8 94 -50 152.5t-160 58.5q-109 0 -189.5 -65.5t-99.5 -168.5t38.5 -168t166.5 -65z" />
    <glyph glyph-name="Hbar" unicode="&#x126;" horiz-adv-x="1433" 
d="M1524 1255l-41 -237h-125l-178 -1018h-328l90 518h-450l-91 -518h-327l178 1018h-121l41 237h123l31 179h327l-30 -179h450l31 179h328l-31 -179h123zM999 834l31 184h-450l-31 -184h450z" />
    <glyph glyph-name="hbar" unicode="&#x127;" horiz-adv-x="1198" 
d="M805 1053q166 0 260.5 -114t60.5 -310l-110 -629h-307l102 584q16 93 -26 139.5t-121 46.5q-85 0 -146.5 -53t-79.5 -158l-98 -559h-307l196 1118h-123l35 193h121l23 123h307l-23 -123h289l-35 -193h-286l-33 -190q52 58 132.5 91.5t168.5 33.5z" />
    <glyph glyph-name="Imacron" unicode="&#x12a;" horiz-adv-x="573" 
d="M164 1554l43 246h614l-43 -246h-614zM285 1434h327l-252 -1434h-327z" />
    <glyph glyph-name="imacron" unicode="&#x12b;" horiz-adv-x="532" 
d="M133 1145l45 266h492l-45 -266h-492zM23 0l180 1024h307l-180 -1024h-307z" />
    <glyph glyph-name="Iogonek" unicode="&#x12e;" horiz-adv-x="573" 
d="M360 0q-92 -106 -98 -176q-4 -51 41 -51q17 -3 49 8l-33 -184q-90 -35 -186 -35q-92 0 -137 51.5t-37 130.5q15 126 145 256h-71l252 1434h327z" />
    <glyph glyph-name="iogonek" unicode="&#x12f;" horiz-adv-x="532" 
d="M434 1483q76 0 122 -55t34 -130q-12 -76 -75 -130t-140 -54t-121.5 54.5t-32.5 129.5q12 74 74.5 129.5t138.5 55.5zM23 0l180 1024h307l-180 -1024q-87 -110 -99 -178q-7 -49 37 -49q17 -3 49 8l-32 -184q-84 -35 -187 -35q-87 0 -133.5 49.5t-40.5 122.5q9 113 142 266
h-43z" />
    <glyph glyph-name="Idotaccent" unicode="&#x130;" horiz-adv-x="573" 
d="M467 1526q-71 0 -113.5 52t-29.5 122q12 71 72 122.5t130 51.5q71 0 114.5 -52t31.5 -122q-14 -71 -74.5 -122.5t-130.5 -51.5zM285 1434h327l-252 -1434h-327z" />
    <glyph glyph-name="dotlessi" unicode="&#x131;" horiz-adv-x="532" 
d="M23 0l180 1024h307l-180 -1024h-307z" />
    <glyph glyph-name="Kcommaaccent" unicode="&#x136;" horiz-adv-x="1282" 
d="M1444 1434l-651 -705l399 -729h-338l-375 682l-119 -682h-327l252 1434h327l-106 -600l551 600h387zM293 -553l96 430h287l-137 -430h-246z" />
    <glyph glyph-name="kcommaaccent" unicode="&#x137;" horiz-adv-x="1075" 
d="M1155 1024l-453 -512l283 -512h-328l-245 467l-82 -467h-307l251 1434h308l-148 -834l367 424h354zM248 -553l96 430h287l-137 -430h-246z" />
    <glyph glyph-name="Lacute" unicode="&#x139;" horiz-adv-x="983" 
d="M893 1843l-279 -287h-303l205 287h377zM416 315h512l-56 -315h-839l55 315l197 1119h327z" />
    <glyph glyph-name="lacute" unicode="&#x13a;" horiz-adv-x="534" 
d="M291 1556h303l278 287h-376zM25 0l114 653l148 842h307l-150 -856l-112 -639h-307z" />
    <glyph glyph-name="Lcommaaccent" unicode="&#x13b;" horiz-adv-x="983" 
d="M416 315h512l-56 -315h-839l55 315l197 1119h327zM197 -553l96 430h287l-138 -430h-245z" />
    <glyph glyph-name="lcommaaccent" unicode="&#x13c;" horiz-adv-x="534" 
d="M25 0l114 653l148 842h307l-150 -856l-112 -639h-307zM166 -553l137 430h-287l-96 -430h246z" />
    <glyph glyph-name="Lcaron" unicode="&#x13d;" horiz-adv-x="983" 
d="M612 1434l-196 -1119h512l-56 -315h-839l55 315l197 1119h327zM1053 1434l-129 -390h-267l88 390h308z" />
    <glyph glyph-name="lcaron" unicode="&#x13e;" horiz-adv-x="770" 
d="M25 0l114 653l148 842h307l-150 -856l-112 -639h-307zM827 1065l138 430h-287l-96 -430h245z" />
    <glyph glyph-name="Lslash" unicode="&#x141;" horiz-adv-x="1044" 
d="M477 315h512l-55 -315h-840l56 315l18 99l-137 -80l57 334l137 80l121 686h328l-82 -471l274 161l-59 -333l-275 -162z" />
    <glyph glyph-name="lslash" unicode="&#x142;" horiz-adv-x="552" 
d="M623 1024l-52 -293l-114 -69l-4 -23l-113 -639h-307l80 451l-115 -70l51 293l115 69l131 752h307l-94 -541z" />
    <glyph glyph-name="Nacute" unicode="&#x143;" horiz-adv-x="1372" 
d="M686 1556h303l279 287h-377zM33 0l252 1434h245l412 -805l141 805h328l-252 -1434h-246l-409 805l-144 -805h-327z" />
    <glyph glyph-name="nacute" unicode="&#x144;" 
d="M1106 1454l-279 -287h-303l205 287h377zM795 1053q166 0 260.5 -114t60.5 -310l-110 -629h-308l103 584q16 93 -26.5 139.5t-121.5 46.5q-81 0 -141.5 -49.5t-81.5 -149.5l-100 -571h-307l180 1024h307l-16 -96q52 58 133 91.5t168 33.5z" />
    <glyph glyph-name="Ncommaaccent" unicode="&#x145;" horiz-adv-x="1372" 
d="M33 0l252 1434h245l412 -805l141 805h328l-252 -1434h-246l-409 805l-144 -805h-327zM596 -553l137 430h-287l-96 -430h246z" />
    <glyph glyph-name="ncommaaccent" unicode="&#x146;" 
d="M795 1053q166 0 260.5 -114t60.5 -310l-110 -629h-308l103 584q16 93 -26.5 139.5t-121.5 46.5q-81 0 -141.5 -49.5t-81.5 -149.5l-100 -571h-307l180 1024h307l-16 -96q52 58 133 91.5t168 33.5zM274 -553l97 430h286l-137 -430h-246z" />
    <glyph glyph-name="Ncaron" unicode="&#x147;" horiz-adv-x="1372" 
d="M705 1536l-164 307h286l52 -112l92 112h307l-270 -307h-303zM1083 1434h328l-252 -1434h-246l-409 805l-144 -805h-327l252 1434h245l412 -805z" />
    <glyph glyph-name="ncaron" unicode="&#x148;" 
d="M543 1147l-164 307h287l51 -113l92 113h307l-270 -307h-303zM795 1053q166 0 260.5 -114t60.5 -310l-110 -629h-308l103 584q16 93 -26.5 139.5t-121.5 46.5q-81 0 -141.5 -49.5t-81.5 -149.5l-100 -571h-307l180 1024h307l-16 -96q52 58 133 91.5t168 33.5z" />
    <glyph glyph-name="Eng" unicode="&#x14a;" horiz-adv-x="1372" 
d="M1083 1434h328l-252 -1434q-39 -224 -175 -328.5t-388 -81.5l53 297q83 -2 128.5 30.5t60.5 111.5l16 90l-350 686l-144 -805h-327l252 1434h245l412 -805z" />
    <glyph glyph-name="eng" unicode="&#x14b;" 
d="M795 1053q166 0 260.5 -114t60.5 -310l-110 -629q-40 -233 -169.5 -343t-359.5 -95l53 295q68 -8 111 25t57 118l103 584q16 93 -26.5 139.5t-121.5 46.5q-81 0 -141.5 -49.5t-81.5 -149.5l-100 -571h-307l180 1024h307l-16 -96q52 58 133 91.5t168 33.5z" />
    <glyph glyph-name="Omacron" unicode="&#x14c;" horiz-adv-x="1613" 
d="M688 1575l43 246h615l-43 -246h-615zM721 -29q-153 0 -282.5 61t-213 163.5t-118.5 244.5t-7 297q28 157 104 291t188.5 230t260.5 150t314 54q150 0 278.5 -61t212 -163.5t119 -244.5t8.5 -297q-38 -210 -156.5 -374.5t-302.5 -257.5t-405 -93zM756 291q179 0 323.5 119
t177.5 307q33 189 -64 307.5t-275 118.5t-317.5 -118.5t-172.5 -307.5q-33 -190 59.5 -308t268.5 -118z" />
    <glyph glyph-name="omacron" unicode="&#x14d;" horiz-adv-x="1208" 
d="M414 1165l43 246h614l-43 -246h-614zM541 -29q-79 0 -148 18t-120 49.5t-93 75t-66.5 94.5t-40 108.5t-14.5 117t11 119.5q20 100 71 189.5t127.5 159t184 110.5t231.5 41t222.5 -51t154 -133.5t77.5 -184t3 -205.5q-18 -99 -71 -191.5t-131 -162.5t-182 -112t-216 -42z
M561 270q101 0 178.5 67t96.5 175q20 107 -34 174.5t-155 67.5q-100 0 -175 -67t-95 -175q-19 -108 32.5 -175t151.5 -67z" />
    <glyph glyph-name="Ohungarumlaut" unicode="&#x150;" horiz-adv-x="1613" 
d="M602 1556h303l228 287h-316zM977 1556h303l248 287h-316zM721 -29q-153 0 -282.5 61t-213 163.5t-118.5 244.5t-7 297q28 157 104 291t188.5 230t260.5 150t314 54q150 0 278.5 -61t212 -163.5t119 -244.5t8.5 -297q-38 -210 -156.5 -374.5t-302.5 -257.5t-405 -93z
M756 291q179 0 323.5 119t177.5 307q33 189 -64 307.5t-275 118.5t-317.5 -118.5t-172.5 -307.5q-33 -190 59.5 -308t268.5 -118z" />
    <glyph glyph-name="ohungarumlaut" unicode="&#x151;" horiz-adv-x="1208" 
d="M328 1147h303l227 287h-315zM702 1147h304l247 287h-315zM541 -29q-79 0 -148 18t-120 49.5t-93 75t-66.5 94.5t-40 108.5t-14.5 117t11 119.5q20 100 71 189.5t127.5 159t184 110.5t231.5 41t222.5 -51t154 -133.5t77.5 -184t3 -205.5q-18 -99 -71 -191.5t-131 -162.5
t-182 -112t-216 -42zM561 270q101 0 178.5 67t96.5 175q20 107 -34 174.5t-155 67.5q-100 0 -175 -67t-95 -175q-19 -108 32.5 -175t151.5 -67z" />
    <glyph glyph-name="OE" unicode="&#x152;" horiz-adv-x="1875" 
d="M1911 1118h-481l-44 -239h433l-56 -308h-430l-45 -256h492l-56 -315h-819q-113 -29 -213 -29q-202 0 -351.5 103t-214 279t-26.5 384q36 207 160.5 374t302 259t371.5 92q128 0 223 -28h809zM963 322l137 790q-74 31 -203 31q-175 0 -305 -117.5t-164 -308.5
q-34 -192 50.5 -309t258.5 -117q137 0 226 31z" />
    <glyph glyph-name="oe" unicode="&#x153;" horiz-adv-x="1966" 
d="M1473 1053q102 0 190.5 -41.5t148 -112t86 -172t7.5 -215.5q-10 -60 -33 -123h-733q23 -143 211 -143q129 0 215 80l215 -176q-176 -179 -439 -179q-145 0 -247 51.5t-158 143.5q-79 -92 -187 -143.5t-229 -51.5q-89 0 -164 22.5t-127 61.5t-91 93t-56.5 116t-23.5 130.5
t8 137.5q17 101 65.5 193t123 166t182.5 118t233 44q120 0 212 -51.5t148 -143.5q80 92 194 143.5t249 51.5zM1182 623h434q-7 81 -57 119t-127 38q-82 0 -147 -40.5t-103 -116.5zM840 512q20 107 -36 174.5t-157 67.5q-100 0 -177 -67t-97 -175q-19 -108 34 -175t154 -67
t181 67.5t98 174.5z" />
    <glyph glyph-name="Racute" unicode="&#x154;" horiz-adv-x="1259" 
d="M1155 1843l-278 -287h-304l205 287h377zM1264 922q-26 -143 -114 -248.5t-220 -157.5l209 -516h-332l-186 471h-179l-82 -471h-327l252 1434h553q134 0 241 -70.5t158 -189.5t27 -252zM936 942q14 79 -28 131.5t-124 52.5h-225l-65 -368h245q74 0 128.5 52.5t68.5 131.5z
" />
    <glyph glyph-name="racute" unicode="&#x155;" horiz-adv-x="759" 
d="M913 1434l-278 -287h-303l205 287h376zM477 840q46 100 138 152t206 52l-59 -348q-37 3 -78.5 3t-85.5 -16.5t-81 -41.5t-65.5 -71t-39.5 -107l2 12l-84 -475h-307l180 1024h307z" />
    <glyph glyph-name="Rcommaaccent" unicode="&#x156;" horiz-adv-x="1259" 
d="M1264 922q-26 -143 -114 -248.5t-220 -157.5l209 -516h-332l-186 471h-179l-82 -471h-327l252 1434h553q134 0 241 -70.5t158 -189.5t27 -252zM936 942q14 79 -28 131.5t-124 52.5h-225l-65 -368h245q74 0 128.5 52.5t68.5 131.5zM350 -553l96 430h287l-137 -430h-246z
" />
    <glyph glyph-name="rcommaaccent" unicode="&#x157;" horiz-adv-x="759" 
d="M477 840q46 100 138 152t206 52l-59 -348q-37 3 -78.5 3t-85.5 -16.5t-81 -41.5t-65.5 -71t-39.5 -107l2 12l-84 -475h-307l180 1024h307zM-78 -553l96 430h287l-137 -430h-246z" />
    <glyph glyph-name="Rcaron" unicode="&#x158;" horiz-adv-x="1259" 
d="M592 1536l-164 307h287l51 -112l92 112h307l-270 -307h-303zM1264 922q-26 -143 -114 -248.5t-220 -157.5l209 -516h-332l-186 471h-179l-82 -471h-327l252 1434h553q134 0 241 -70.5t158 -189.5t27 -252zM936 942q14 79 -28 131.5t-124 52.5h-225l-65 -368h245
q74 0 128.5 52.5t68.5 131.5z" />
    <glyph glyph-name="rcaron" unicode="&#x159;" horiz-adv-x="759" 
d="M350 1126l-164 308h287l51 -113l92 113h308l-271 -308h-303zM477 840q46 100 138 152t206 52l-59 -348q-37 3 -78.5 3t-85.5 -16.5t-81 -41.5t-65.5 -71t-39.5 -107l2 12l-84 -475h-307l180 1024h307z" />
    <glyph glyph-name="Sacute" unicode="&#x15a;" horiz-adv-x="1200" 
d="M608 1577h303l279 287h-377zM553 -29q-224 0 -365 96t-180 259l299 153q53 -192 275 -192q97 0 149 34t62 87q5 27 -3 48.5t-24.5 38t-51 33.5t-67 29.5t-88.5 30.5q-46 15 -84.5 31t-78 36.5t-69 42.5t-58 50t-45 59.5t-29.5 70.5t-12 82.5t7 96.5q17 103 69 183
t126 127t160 71t180 24q176 0 306 -83.5t186 -239.5l-287 -152q-37 79 -92 119.5t-142 40.5q-74 0 -118 -31t-54 -78q-7 -32 4 -56.5t43 -46.5t70.5 -39t103.5 -40q39 -14 64 -23.5t62.5 -25t61.5 -29t55 -33t50.5 -39.5t41 -45.5t32.5 -55t19 -64t7.5 -75.5t-8.5 -87
q-35 -197 -189 -302.5t-388 -105.5z" />
    <glyph glyph-name="sacute" unicode="&#x15b;" horiz-adv-x="958" 
d="M414 1167h303l278 287h-377zM422 -29q-317 0 -432 252l276 139q45 -116 183 -116q103 0 112 53q4 25 -22 43t-70 31t-97.5 28t-105 40.5t-91 61t-57.5 97.5t-3 143q14 79 57.5 140.5t104.5 97.5t129 54t139 18q135 0 238 -58.5t153 -160.5l-277 -138q-35 90 -133 90
q-92 0 -104 -63q-6 -30 19 -50t69 -32t97.5 -25t105.5 -36t92 -57.5t58 -98t3 -148.5q-19 -105 -84.5 -175t-156 -100t-203.5 -30z" />
    <glyph glyph-name="Scedilla" unicode="&#x15e;" horiz-adv-x="1200" 
d="M745 856q39 -14 64 -23.5t62.5 -25t61.5 -29t55 -33t50.5 -39.5t41 -45.5t32.5 -55t19 -64t7.5 -75.5t-8.5 -87q-30 -173 -152.5 -275.5t-313.5 -126.5l-13 -71q48 -17 80.5 -61t20.5 -115q-9 -47 -38 -81.5t-87.5 -60t-148.5 -32t-220 1.5l37 213q192 -15 201 28
q3 18 -23 27t-80 14l25 142q-167 27 -272 117.5t-138 226.5l299 153q53 -192 275 -192q97 0 149 34t62 87q5 27 -3 48.5t-24.5 38t-51 33.5t-67 29.5t-88.5 30.5q-46 15 -84.5 31t-78 36.5t-69 42.5t-58 50t-45 59.5t-29.5 70.5t-12 82.5t7 96.5q17 103 69 183t126 127
t160 71t180 24q176 0 306 -83.5t186 -239.5l-287 -152q-37 79 -92 119.5t-142 40.5q-74 0 -118 -31t-54 -78q-7 -32 4 -56.5t43 -46.5t70.5 -39t103.5 -40z" />
    <glyph glyph-name="scedilla" unicode="&#x15f;" horiz-adv-x="958" 
d="M422 723q-6 -30 19 -50t69 -32t97.5 -25t105.5 -36t92 -57.5t58 -98t3 -148.5q-22 -125 -107.5 -198t-213.5 -96l-13 -76q48 -17 80.5 -61t20.5 -115q-9 -47 -38 -81.5t-87.5 -60t-148.5 -32t-220 1.5l37 213q192 -15 201 28q3 18 -23 27t-80 14l25 142q-218 43 -309 241
l276 139q45 -116 183 -116q103 0 112 53q4 25 -22 43t-70 31t-97.5 28t-105 40.5t-91 61t-57.5 97.5t-3 143q14 79 57.5 140.5t104.5 97.5t129 54t139 18q135 0 238 -58.5t153 -160.5l-277 -138q-35 90 -133 90q-92 0 -104 -63z" />
    <glyph glyph-name="Scaron" unicode="&#x160;" horiz-adv-x="1200" 
d="M627 1556l-164 308h287l51 -113l92 113h307l-270 -308h-303zM745 856q39 -14 64 -23.5t62.5 -25t61.5 -29t55 -33t50.5 -39.5t41 -45.5t32.5 -55t19 -64t7.5 -75.5t-8.5 -87q-35 -197 -189 -302.5t-388 -105.5q-224 0 -365 96t-180 259l299 153q53 -192 275 -192
q97 0 149 34t62 87q5 27 -3 48.5t-24.5 38t-51 33.5t-67 29.5t-88.5 30.5q-46 15 -84.5 31t-78 36.5t-69 42.5t-58 50t-45 59.5t-29.5 70.5t-12 82.5t7 96.5q17 103 69 183t126 127t160 71t180 24q176 0 306 -83.5t186 -239.5l-287 -152q-37 79 -92 119.5t-142 40.5
q-74 0 -118 -31t-54 -78q-7 -32 4 -56.5t43 -46.5t70.5 -39t103.5 -40z" />
    <glyph glyph-name="scaron" unicode="&#x161;" horiz-adv-x="958" 
d="M432 1147l-164 307h287l51 -113l92 113h308l-271 -307h-303zM526 786q-92 0 -104 -63q-6 -30 19 -50t69 -32t97.5 -25t105.5 -36t92 -57.5t58 -98t3 -148.5q-19 -105 -84.5 -175t-156 -100t-203.5 -30q-317 0 -432 252l276 139q45 -116 183 -116q103 0 112 53
q4 25 -22 43t-70 31t-97.5 28t-105 40.5t-91 61t-57.5 97.5t-3 143q14 79 57.5 140.5t104.5 97.5t129 54t139 18q135 0 238 -58.5t153 -160.5l-277 -138q-35 90 -133 90z" />
    <glyph glyph-name="uni0162" unicode="&#x162;" horiz-adv-x="1105" 
d="M1247 1434l-55 -316h-369l-196 -1118h-328l197 1118h-369l55 316h1065zM207 -553l96 430h287l-137 -430h-246z" />
    <glyph glyph-name="uni0163" unicode="&#x163;" horiz-adv-x="796" 
d="M541 729l-64 -362q-8 -44 13.5 -65.5t68 -24.5t115.5 2l-49 -279q-275 -31 -384.5 59.5t-70.5 307.5l63 362h-163l53 295h162l34 195l324 92l-51 -287h213l-53 -295h-211zM125 -553l96 430h287l-137 -430h-246z" />
    <glyph glyph-name="Tcaron" unicode="&#x164;" horiz-adv-x="1105" 
d="M571 1536l-163 307h286l51 -112l93 112h307l-271 -307h-303zM1247 1434l-55 -316h-369l-196 -1118h-328l197 1118h-369l55 316h1065z" />
    <glyph glyph-name="tcaron" unicode="&#x165;" horiz-adv-x="851" 
d="M780 1495h287l-129 -389h-246zM643 1311l-51 -287h213l-53 -295h-211l-64 -362q-8 -44 13.5 -65.5t68 -24.5t115.5 2l-49 -279q-275 -31 -384.5 59.5t-70.5 307.5l63 362h-163l53 295h162l34 195z" />
    <glyph glyph-name="Tbar" unicode="&#x166;" horiz-adv-x="1105" 
d="M1192 1118h-369l-49 -274h225l-51 -295h-225l-96 -549h-328l96 549h-225l51 295h225l50 274h-369l55 316h1065z" />
    <glyph glyph-name="tbar" unicode="&#x167;" horiz-adv-x="796" 
d="M752 729h-211l-17 -98h154l-43 -246h-154l-4 -18q-8 -44 13.5 -65.5t68 -24.5t115.5 2l-49 -279q-275 -31 -384.5 59.5t-70.5 307.5l4 18h-113l43 246h113l16 98h-163l53 295h162l34 195l324 92l-51 -287h213z" />
    <glyph glyph-name="Umacron" unicode="&#x16a;" horiz-adv-x="1312" 
d="M535 1554l43 246h614l-43 -246h-614zM594 -29q-259 0 -398.5 138t-101.5 354l172 971h328l-166 -942q-33 -201 190 -201q228 0 261 201l165 942h328l-172 -971q-43 -243 -206.5 -367.5t-399.5 -124.5z" />
    <glyph glyph-name="umacron" unicode="&#x16b;" 
d="M1034 1391l-43 -246h-614l43 246h614zM858 1024h307l-180 -1024h-307l16 96q-52 -58 -133 -91.5t-168 -33.5q-166 0 -260.5 114t-60.5 310l110 629h307l-102 -584q-16 -93 26.5 -139.5t121.5 -46.5q81 0 141.5 49.5t81.5 149.5z" />
    <glyph glyph-name="Uring" unicode="&#x16e;" horiz-adv-x="1312" 
d="M827 1444q-116 0 -184 77.5t-49 186.5q20 110 106 179t205 69t186.5 -77.5t47.5 -186.5q-19 -110 -104.5 -179t-207.5 -69zM854 1630q36 0 58.5 19t27.5 49q6 31 -10 51t-51 20q-34 0 -56 -18.5t-28 -48.5q-5 -31 10 -51.5t49 -20.5zM594 -29q-259 0 -398.5 138
t-101.5 354l172 971h328l-166 -942q-33 -201 190 -201q228 0 261 201l165 942h328l-172 -971q-43 -243 -206.5 -367.5t-399.5 -124.5z" />
    <glyph glyph-name="uring" unicode="&#x16f;" 
d="M680 1096q-117 0 -185 77.5t-49 186.5q20 110 106.5 179t205.5 69t186 -77.5t47 -187.5q-19 -110 -104 -178.5t-207 -68.5zM647 1354q-5 -31 10.5 -51.5t49.5 -20.5q36 0 58.5 19t27.5 49q6 30 -10 50.5t-52 20.5q-34 0 -56 -18.5t-28 -48.5zM858 1024h307l-180 -1024
h-307l16 96q-52 -58 -133 -91.5t-168 -33.5q-166 0 -260.5 114t-60.5 310l110 629h307l-102 -584q-16 -93 26.5 -139.5t121.5 -46.5q81 0 141.5 49.5t81.5 149.5z" />
    <glyph glyph-name="Uhungarumlaut" unicode="&#x170;" horiz-adv-x="1312" 
d="M449 1536h303l227 287h-315zM823 1536h303l248 287h-315zM594 -29q-259 0 -398.5 138t-101.5 354l172 971h328l-166 -942q-33 -201 190 -201q228 0 261 201l165 942h328l-172 -971q-43 -243 -206.5 -367.5t-399.5 -124.5z" />
    <glyph glyph-name="uhungarumlaut" unicode="&#x171;" 
d="M821 1413l-227 -287h-303l215 287h315zM969 1126h-303l235 287h316zM758 453l100 571h307l-180 -1024h-307l16 96q-52 -58 -133 -91.5t-168 -33.5q-166 0 -260.5 114t-60.5 310l110 629h307l-102 -584q-16 -93 26.5 -139.5t121.5 -46.5q81 0 141.5 49.5t81.5 149.5z" />
    <glyph glyph-name="Uogonek" unicode="&#x172;" horiz-adv-x="1312" 
d="M1044 1434h328l-172 -971q-45 -253 -223 -379q-120 -95 -174.5 -150t-65.5 -108q-10 -48 35 -53q18 -2 49 8l-33 -184q-90 -35 -172 -35q-109 0 -157 60.5t-29 146.5q23 113 137 202q-163 5 -279.5 69t-167 174.5t-26.5 248.5l172 971h328l-166 -942q-33 -201 190 -201
q228 0 261 201z" />
    <glyph glyph-name="uogonek" unicode="&#x173;" 
d="M858 1024h307l-180 -1024h-6q-50 -44 -86 -98.5t-39 -89.5q-3 -39 37 -39q25 0 49 8l-33 -184q-71 -35 -157 -35q-99 0 -158.5 47t-42.5 143q11 62 54 120t122 128h-47l16 96q-52 -58 -133 -91.5t-168 -33.5q-166 0 -260.5 114t-60.5 310l110 629h307l-102 -584
q-16 -93 26.5 -139.5t121.5 -46.5q81 0 141.5 49.5t81.5 149.5z" />
    <glyph glyph-name="Wcircumflex" unicode="&#x174;" horiz-adv-x="2043" 
d="M1217 1649l-97 -113h-297l271 307h303l164 -307h-297zM1829 1434h356l-647 -1434h-373l-86 846l-381 -846h-372l-144 1434h328l76 -1004l452 1004h267l100 -1004z" />
    <glyph glyph-name="wcircumflex" unicode="&#x175;" horiz-adv-x="1597" 
d="M922 1239l-97 -113h-297l271 308h303l164 -308h-297zM1329 1024h338l-508 -1024h-287l-67 539l-240 -539h-307l-147 1024h307l63 -549l244 549h297l68 -549z" />
    <glyph glyph-name="Ycircumflex" unicode="&#x176;" horiz-adv-x="1249" 
d="M819 1649l-96 -113h-297l270 307h303l164 -307h-297zM1411 1434l-602 -807l-111 -627h-327l110 629l-319 805h354l168 -484l336 484h391z" />
    <glyph glyph-name="ycircumflex" unicode="&#x177;" horiz-adv-x="1085" 
d="M637 1239l-96 -113h-297l270 308h303l164 -308h-297zM836 1024h340l-525 -993q-92 -174 -197.5 -275.5t-215.5 -137t-248 -28.5l49 287q110 0 167.5 35.5t110.5 132.5l-227 979h316l126 -627z" />
    <glyph glyph-name="Ydieresis" unicode="&#x178;" horiz-adv-x="1249" 
d="M606 1516q-63 0 -100.5 45t-26.5 108q10 63 63.5 108.5t116.5 45.5t100.5 -45.5t26.5 -108.5q-10 -63 -63.5 -108t-116.5 -45zM995 1516q-63 0 -100.5 45t-26.5 108q10 63 64 108.5t117 45.5t100.5 -45.5t26.5 -108.5q-10 -63 -64 -108t-117 -45zM1411 1434l-602 -807
l-111 -627h-327l110 629l-319 805h354l168 -484l336 484h391z" />
    <glyph glyph-name="Zacute" unicode="&#x179;" horiz-adv-x="1105" 
d="M1145 1843l-279 -287h-303l205 287h377zM1206 1434l-43 -254l-696 -865h553l-55 -315h-983l45 254l698 864h-537l56 316h962z" />
    <glyph glyph-name="zacute" unicode="&#x17a;" horiz-adv-x="931" 
d="M981 1434l-279 -287h-303l205 287h377zM121 737l51 287h778l-35 -205l-469 -532h396l-51 -287h-820l37 205l467 532h-354z" />
    <glyph glyph-name="Zdotaccent" unicode="&#x17b;" horiz-adv-x="1105" 
d="M743 1526q-71 0 -113.5 52t-29.5 122q12 71 72.5 122.5t130.5 51.5q71 0 114 -52t31 -122q-14 -71 -74.5 -122.5t-130.5 -51.5zM1206 1434l-43 -254l-696 -865h553l-55 -315h-983l45 254l698 864h-537l56 316h962z" />
    <glyph glyph-name="zdotaccent" unicode="&#x17c;" horiz-adv-x="931" 
d="M580 1116q-71 0 -114 52t-30 122q12 71 72.5 122.5t130.5 51.5q71 0 114 -52t31 -122q-14 -71 -74 -122.5t-130 -51.5zM950 1024l-35 -205l-469 -532h396l-51 -287h-820l37 205l467 532h-354l51 287h778z" />
    <glyph glyph-name="Zcaron" unicode="&#x17d;" horiz-adv-x="1105" 
d="M582 1536l-164 307h287l51 -112l92 112h307l-270 -307h-303zM1206 1434l-43 -254l-696 -865h553l-55 -315h-983l45 254l698 864h-537l56 316h962z" />
    <glyph glyph-name="zcaron" unicode="&#x17e;" horiz-adv-x="931" 
d="M418 1126l-164 308h287l51 -113l92 113h307l-270 -308h-303zM121 737l51 287h778l-35 -205l-469 -532h396l-51 -287h-820l37 205l467 532h-354z" />
    <glyph glyph-name="florin" unicode="&#x192;" horiz-adv-x="905" 
d="M496 1098q35 100 83 172.5t102.5 114.5t119.5 61.5t130.5 18t137.5 -20.5l-53 -307q-24 14 -56 16t-64 -8.5t-60 -40t-43 -74.5l-56 -162h168l-53 -295h-219l-221 -639q-35 -100 -83 -172.5t-103 -114t-119.5 -61.5t-130.5 -18.5t-138 20.5l53 308q24 -14 55.5 -16
t63.5 8t61 39.5t44 74.5l198 571h-157l53 295h207z" />
    <glyph glyph-name="Scommaaccent" unicode="&#x218;" horiz-adv-x="1200" 
d="M553 -29q-224 0 -365 96t-180 259l299 153q53 -192 275 -192q97 0 149 34t62 87q5 27 -3 48.5t-24.5 38t-51 33.5t-67 29.5t-88.5 30.5q-46 15 -84.5 31t-78 36.5t-69 42.5t-58 50t-45 59.5t-29.5 70.5t-12 82.5t7 96.5q17 103 69 183t126 127t160 71t180 24
q176 0 306 -83.5t186 -239.5l-287 -152q-37 79 -92 119.5t-142 40.5q-74 0 -118 -31t-54 -78q-7 -32 4 -56.5t43 -46.5t70.5 -39t103.5 -40q39 -14 64 -23.5t62.5 -25t61.5 -29t55 -33t50.5 -39.5t41 -45.5t32.5 -55t19 -64t7.5 -75.5t-8.5 -87q-35 -197 -189 -302.5
t-388 -105.5zM530 -553l138 430h-287l-96 -430h245z" />
    <glyph glyph-name="scommaaccent" unicode="&#x219;" horiz-adv-x="958" 
d="M422 -29q-317 0 -432 252l276 139q45 -116 183 -116q103 0 112 53q4 25 -22 43t-70 31t-97.5 28t-105 40.5t-91 61t-57.5 97.5t-3 143q14 79 57.5 140.5t104.5 97.5t129 54t139 18q135 0 238 -58.5t153 -160.5l-277 -138q-35 90 -133 90q-92 0 -104 -63q-6 -30 19 -50
t69 -32t97.5 -25t105.5 -36t92 -57.5t58 -98t3 -148.5q-19 -105 -84.5 -175t-156 -100t-203.5 -30zM412 -553l137 430h-287l-96 -430h246z" />
    <glyph glyph-name="uni021A" unicode="&#x21a;" horiz-adv-x="1105" 
d="M1247 1434l-55 -316h-369l-196 -1118h-328l197 1118h-369l55 316h1065zM207 -553l96 430h287l-137 -430h-246z" />
    <glyph glyph-name="uni021B" unicode="&#x21b;" horiz-adv-x="796" 
d="M541 729l-64 -362q-8 -44 13.5 -65.5t68 -24.5t115.5 2l-49 -279q-275 -31 -384.5 59.5t-70.5 307.5l63 362h-163l53 295h162l34 195l324 92l-51 -287h213l-53 -295h-211zM125 -553l96 430h287l-137 -430h-246z" />
    <glyph glyph-name="circumflex" unicode="&#x2c6;" horiz-adv-x="819" 
d="M887 1126h-297l-47 113l-97 -113h-296l270 308h303z" />
    <glyph glyph-name="caron" unicode="&#x2c7;" horiz-adv-x="819" 
d="M633 1434h307l-270 -308h-303l-164 308h286l52 -113z" />
    <glyph glyph-name="breve" unicode="&#x2d8;" horiz-adv-x="798" 
d="M520 1110q-173 0 -259 83t-60 224h270q-7 -44 12.5 -69t59.5 -25q48 0 72 23.5t32 70.5h271q-23 -148 -124.5 -227.5t-273.5 -79.5z" />
    <glyph glyph-name="dotaccent" unicode="&#x2d9;" horiz-adv-x="389" 
d="M322 1116q-71 0 -114 52t-30 122q12 71 72.5 122.5t130.5 51.5q71 0 114 -52t31 -122q-14 -71 -74 -122.5t-130 -51.5z" />
    <glyph glyph-name="ring" unicode="&#x2da;" horiz-adv-x="626" 
d="M414 1096q-117 0 -185 77.5t-49 186.5q20 110 106.5 179t205.5 69t186 -77.5t47 -187.5q-19 -110 -104 -178.5t-207 -68.5zM440 1282q36 0 58.5 19t27.5 49q6 31 -10 51t-51 20q-34 0 -56 -18.5t-28 -48.5q-5 -31 10 -51.5t49 -20.5z" />
    <glyph glyph-name="ogonek" unicode="&#x2db;" horiz-adv-x="466" 
d="M78 -438q-90 0 -139 47t-33 139q20 113 176 252h254q-109 -100 -123 -174q-13 -53 35 -53q17 -3 49 8l-33 -184q-90 -35 -186 -35z" />
    <glyph glyph-name="tilde" unicode="&#x2dc;" horiz-adv-x="815" 
d="M172 1133q9 98 41.5 169.5t78.5 107t101 47t111 -2.5t106 -49q46 -33 71.5 -22.5t35.5 71.5h246q-9 -98 -41.5 -169.5t-78.5 -107t-101.5 -47t-111.5 2.5t-106 49q-47 33 -71.5 22.5t-34.5 -71.5h-246z" />
    <glyph glyph-name="hungarumlaut" unicode="&#x2dd;" horiz-adv-x="956" 
d="M150 1126h303l227 287h-315zM524 1126h303l248 287h-315z" />
    <glyph glyph-name="gravecomb" unicode="&#x300;" horiz-adv-x="0" 
d="M72 1147l-129 287h-355l195 -287h289z" />
    <glyph glyph-name="acutecomb" unicode="&#x301;" horiz-adv-x="0" 
d="M-461 1147h303l279 287h-377z" />
    <glyph glyph-name="uni0302" unicode="&#x302;" horiz-adv-x="0" 
d="M68 1126h-297l-47 113l-97 -113h-297l271 308h303z" />
    <glyph glyph-name="tildecomb" unicode="&#x303;" horiz-adv-x="0" 
d="M-668 1133q9 98 41.5 169.5t78.5 107t101.5 47t111.5 -2.5t106 -49q46 -33 71 -22.5t35 71.5h246q-9 -98 -41.5 -169.5t-78.5 -107t-101 -47t-111 2.5t-106 49q-47 33 -72 22.5t-35 -71.5h-246z" />
    <glyph glyph-name="uni0304" unicode="&#x304;" horiz-adv-x="0" 
d="M-543 1145l43 246h615l-43 -246h-615z" />
    <glyph glyph-name="uni0306" unicode="&#x306;" horiz-adv-x="0" 
d="M-279 1110q-173 0 -259 83t-60 224h270q-7 -44 12.5 -69t59.5 -25q48 0 72 23.5t32 70.5h271q-23 -148 -124.5 -227.5t-273.5 -79.5z" />
    <glyph glyph-name="uni0307" unicode="&#x307;" horiz-adv-x="0" 
d="M-109 1116q-71 0 -113.5 52t-29.5 122q12 71 72.5 122.5t130.5 51.5q71 0 114 -52t31 -122q-14 -71 -74.5 -122.5t-130.5 -51.5z" />
    <glyph glyph-name="uni0308" unicode="&#x308;" horiz-adv-x="0" 
d="M-479 1106q-63 0 -100.5 45.5t-26.5 108.5q10 63 63.5 108t116.5 45t100.5 -45t26.5 -108q-10 -63 -63.5 -108.5t-116.5 -45.5zM-90 1106q-63 0 -100.5 45.5t-26.5 108.5q10 63 63.5 108t116.5 45t100.5 -45t26.5 -108q-10 -63 -63.5 -108.5t-116.5 -45.5z" />
    <glyph glyph-name="uni030A" unicode="&#x30a;" horiz-adv-x="0" 
d="M-205 1096q-116 0 -184 77.5t-49 186.5q20 110 106 179t205 69t186 -77.5t47 -187.5q-19 -110 -104 -178.5t-207 -68.5zM-178 1282q36 0 58.5 19t27.5 49q6 30 -10 50.5t-52 20.5q-34 0 -56 -18.5t-28 -48.5q-5 -31 10.5 -51.5t49.5 -20.5z" />
    <glyph glyph-name="uni030B" unicode="&#x30b;" horiz-adv-x="0" 
d="M-807 1126h303l228 287h-316zM-432 1126h303l248 287h-316z" />
    <glyph glyph-name="uni030C" unicode="&#x30c;" horiz-adv-x="0" 
d="M-186 1434h307l-271 -308h-303l-163 308h286l51 -113z" />
    <glyph glyph-name="uni0312" unicode="&#x312;" horiz-adv-x="0" 
d="M-23 2007l-137 -430h287l96 430h-246z" />
    <glyph glyph-name="uni0326" unicode="&#x326;" horiz-adv-x="0" 
d="M-291 -553l137 430h-286l-97 -430h246z" />
    <glyph glyph-name="uni0327" unicode="&#x327;" horiz-adv-x="0" 
d="M-279 -94q48 -17 80.5 -61t20.5 -115q-9 -47 -38 -81.5t-87.5 -60t-148.5 -32t-220 1.5l37 213q192 -15 201 28q3 18 -23 27t-80 14l29 160h246z" />
    <glyph glyph-name="uni0328" unicode="&#x328;" horiz-adv-x="0" 
d="M-410 -438q-90 0 -139 47t-33 139q20 113 176 252h254q-108 -99 -122 -174q-13 -53 34 -53q17 -3 50 8l-33 -184q-90 -35 -187 -35z" />
    <glyph glyph-name="uni0394" unicode="&#x394;" horiz-adv-x="1351" 
d="M1047 1434l215 -1434h-1352l719 1434h418zM426 307h453l-91 768z" />
    <glyph glyph-name="uni03A9" unicode="&#x3a9;" horiz-adv-x="1572" 
d="M1571 737q-21 -126 -85.5 -233.5t-162.5 -188.5h145l-55 -315h-569l22 129l33 186q130 42 221 148.5t117 253.5q33 189 -64.5 307.5t-275.5 118.5q-177 0 -315.5 -118.5t-171.5 -307.5q-26 -147 27 -253.5t167 -148.5l-55 -315h-569l55 315h182q-82 92 -117 211.5
t-12 251.5q36 198 155.5 354t300.5 243t390 87q118 0 226 -36.5t191.5 -103.5t141 -156t78.5 -200t0 -229z" />
    <glyph glyph-name="pi" unicode="&#x3c0;" horiz-adv-x="1372" 
d="M1421 1024l-51 -287h-160l-129 -737h-307l129 737h-348l-129 -737h-307l129 737h-168l51 287h1290z" />
    <glyph glyph-name="uni0401" unicode="&#x401;" horiz-adv-x="1085" 
d="M551 1516q-63 0 -100.5 45t-26.5 108q10 63 63.5 108.5t116.5 45.5t100.5 -45.5t26.5 -108.5q-10 -63 -63.5 -108t-116.5 -45zM940 1516q-63 0 -100.5 45t-26.5 108q10 63 63.5 108.5t116.5 45.5t100.5 -45.5t26.5 -108.5q-10 -63 -63.5 -108t-116.5 -45zM1120 1118h-563
l-43 -239h514l-55 -308h-512l-45 -256h573l-55 -315h-901l252 1434h891z" />
    <glyph glyph-name="uni0402" unicode="&#x402;" horiz-adv-x="1423" 
d="M1024 950q187 0 277 -111t57 -292l-23 -129q-45 -251 -174.5 -351.5t-374.5 -86.5l56 305q81 -4 117.5 26.5t48.5 106.5l14 92q13 81 -18.5 113t-104.5 32q-92 0 -184 -39l-109 -616h-327l196 1118h-348l55 316h1065l-55 -316h-389l-37 -205q130 37 258 37z" />
    <glyph glyph-name="uni0403" unicode="&#x403;" horiz-adv-x="962" 
d="M1126 1841l-278 -287h-303l205 287h376zM285 1434h819l-55 -316h-492l-197 -1118h-327z" />
    <glyph glyph-name="uni0404" unicode="&#x404;" horiz-adv-x="1480" 
d="M754 291q236 0 372 182l267 -174q-116 -154 -289 -241t-369 -87q-216 0 -374.5 103.5t-227 279t-33.5 383.5q26 155 103 290t188.5 230.5t256.5 150t302 54.5q205 0 351.5 -88.5t218.5 -245.5l-301 -157q-84 172 -304 172q-145 0 -260.5 -73t-177.5 -200h584l-55 -307
h-582q17 -127 105 -199.5t225 -72.5z" />
    <glyph glyph-name="uni0405" unicode="&#x405;" horiz-adv-x="1200" 
d="M553 -29q-224 0 -365 96t-180 259l299 153q53 -192 275 -192q97 0 149 34t62 87q5 27 -3 48.5t-24.5 38t-51 33.5t-67 29.5t-88.5 30.5q-46 15 -84.5 31t-78 36.5t-69 42.5t-58 50t-45 59.5t-29.5 70.5t-12 82.5t7 96.5q17 103 69 183t126 127t160 71t180 24
q176 0 306 -83.5t186 -239.5l-287 -152q-37 79 -92 119.5t-142 40.5q-74 0 -118 -31t-54 -78q-7 -32 4 -56.5t43 -46.5t70.5 -39t103.5 -40q39 -14 64 -23.5t62.5 -25t61.5 -29t55 -33t50.5 -39.5t41 -45.5t32.5 -55t19 -64t7.5 -75.5t-8.5 -87q-35 -197 -189 -302.5
t-388 -105.5z" />
    <glyph glyph-name="uni0406" unicode="&#x406;" horiz-adv-x="573" 
d="M285 1434h327l-252 -1434h-327z" />
    <glyph glyph-name="uni0407" unicode="&#x407;" horiz-adv-x="573" 
d="M268 1516q-63 0 -100.5 45t-26.5 108q10 63 64 108.5t117 45.5t100.5 -45.5t26.5 -108.5q-10 -63 -64 -108t-117 -45zM657 1516q-63 0 -100.5 45t-26.5 108q10 63 64 108.5t117 45.5t100.5 -45.5t26.5 -108.5q-10 -63 -64 -108t-117 -45zM285 1434h327l-252 -1434h-327z
" />
    <glyph glyph-name="uni0408" unicode="&#x408;" horiz-adv-x="1167" 
d="M475 -29q-179 0 -292 71.5t-167 217.5l301 164q20 -71 64 -102t123 -31q192 0 223 170l172 973h328l-172 -973q-43 -246 -194.5 -368t-385.5 -122z" />
    <glyph glyph-name="uni0409" unicode="&#x409;" horiz-adv-x="1945" 
d="M1475 922q97 0 182.5 -37.5t143 -101t83.5 -154t8 -189.5q-37 -203 -194 -321.5t-385 -118.5h-502l197 1118h-316l-94 -536q-20 -115 -53.5 -208t-75.5 -154.5t-92.5 -108t-104.5 -69.5t-112.5 -37.5t-115.5 -13t-114 4.5l54 307q118 -15 186 40.5t98 225.5l152 865h971
l-91 -512h175zM1565 461q13 75 -26.5 114t-117.5 39h-174l-55 -307h174q78 0 132 39.5t67 114.5z" />
    <glyph glyph-name="uni040A" unicode="&#x40a;" horiz-adv-x="1945" 
d="M1475 922q97 0 182.5 -37.5t143 -101t83.5 -154t8 -189.5q-37 -203 -194 -321.5t-385 -118.5h-502l109 614h-451l-109 -614h-327l252 1434h327l-90 -512h451l90 512h328l-91 -512h175zM1565 461q13 75 -26.5 114t-117.5 39h-174l-55 -307h174q78 0 132 39.5t67 114.5z
" />
    <glyph glyph-name="uni040B" unicode="&#x40b;" horiz-adv-x="1433" 
d="M1006 950q194 0 288 -107.5t62 -295.5l-94 -547h-328l88 510q14 82 -22 113.5t-117 31.5q-93 0 -168 -37l-109 -618h-327l196 1118h-348l55 316h1065l-55 -316h-389l-35 -203q106 35 238 35z" />
    <glyph glyph-name="uni040C" unicode="&#x40c;" horiz-adv-x="1282" 
d="M1229 1841l-279 -287h-303l205 287h377zM1444 1434l-651 -705l399 -729h-338l-375 682l-119 -682h-327l252 1434h327l-106 -600l551 600h387z" />
    <glyph glyph-name="uni040E" unicode="&#x40e;" horiz-adv-x="1249" 
d="M1163 1819l-45 -267h-614l45 267h614zM1051 1434h340l-572 -1012q-71 -126 -148.5 -212t-163 -133t-173 -64.5t-191.5 -12.5l54 307q107 -10 179 27.5t128 120.5l-301 979h315l184 -627z" />
    <glyph glyph-name="uni040F" unicode="&#x40f;" horiz-adv-x="1331" 
d="M1042 1434h328l-252 -1434h-379l-49 -274h-328l50 274h-379l252 1434h327l-196 -1119h430z" />
    <glyph glyph-name="uni0410" unicode="&#x410;" horiz-adv-x="1392" 
d="M944 0l-29 225h-532l-115 -225h-358l739 1434h418l236 -1434h-359zM537 532h342l-68 543z" />
    <glyph glyph-name="uni0411" unicode="&#x411;" horiz-adv-x="1198" 
d="M745 901q206 0 324.5 -134.5t83.5 -336.5q-37 -205 -185 -317.5t-382 -112.5h-553l252 1434h921l-55 -316h-594l-39 -217h227zM829 451q13 74 -26.5 108.5t-112.5 34.5h-225l-51 -287h225q73 0 125 35t65 109z" />
    <glyph glyph-name="uni0412" unicode="&#x412;" horiz-adv-x="1228" 
d="M1225 1014q-27 -180 -172 -279q144 -114 116 -325q-24 -185 -166 -297.5t-389 -112.5h-581l252 1434h540q94 0 174 -30.5t135 -84.5t80 -133.5t11 -171.5zM782 1126h-223l-45 -254h223q62 0 104.5 35t53.5 92q10 53 -19 90t-94 37zM848 444q11 61 -21 99.5t-100 38.5
h-264l-49 -275h264q68 0 113.5 38t56.5 99z" />
    <glyph glyph-name="uni0413" unicode="&#x413;" horiz-adv-x="962" 
d="M1104 1434l-55 -316h-492l-197 -1118h-327l252 1434h819z" />
    <glyph glyph-name="uni0414" unicode="&#x414;" horiz-adv-x="1454" 
d="M1411 1434l-197 -1119h154l-104 -589h-328l47 274h-717l-47 -274h-328l105 589h145q142 162 197 476l113 643h960zM500 315h387l143 811h-305l-59 -340q-54 -306 -166 -471z" />
    <glyph glyph-name="uni0415" unicode="&#x415;" horiz-adv-x="1085" 
d="M1120 1118h-563l-43 -239h514l-55 -308h-512l-45 -256h573l-55 -315h-901l252 1434h891z" />
    <glyph glyph-name="uni0416" unicode="&#x416;" horiz-adv-x="1888" 
d="M2019 1434l-575 -729l334 -705h-344l-299 639l-113 -639h-328l111 633l-504 -633h-371l600 743l-340 691h345l299 -637l112 637h328l-111 -631l477 631h379z" />
    <glyph glyph-name="uni0417" unicode="&#x417;" horiz-adv-x="1140" 
d="M1139 1018q-34 -193 -195 -291q81 -57 117 -145t16 -197q-35 -199 -190.5 -306.5t-399.5 -107.5q-198 0 -323.5 90.5t-177.5 249.5l299 156q26 -90 82.5 -139t167.5 -49q88 0 148 40.5t73 110.5q12 72 -32.5 112t-145.5 40h-183l51 290h142q95 0 151 37.5t68 104.5
q11 67 -26.5 104t-123.5 37q-145 0 -239 -168l-268 170q85 139 226.5 222t334.5 83q100 0 186.5 -33t146 -90.5t86 -141t9.5 -179.5z" />
    <glyph glyph-name="uni0418" unicode="&#x418;" horiz-adv-x="1372" 
d="M33 0l252 1434h327l-133 -756l686 756h246l-252 -1434h-328l134 756l-686 -756h-246z" />
    <glyph glyph-name="uni0419" unicode="&#x419;" horiz-adv-x="1372" 
d="M543 1554l45 267h614l-45 -267h-614zM33 0l252 1434h327l-133 -756l686 756h246l-252 -1434h-328l134 756l-686 -756h-246z" />
    <glyph glyph-name="uni041A" unicode="&#x41a;" horiz-adv-x="1282" 
d="M1444 1434l-651 -705l399 -729h-338l-375 682l-119 -682h-327l252 1434h327l-106 -600l551 600h387z" />
    <glyph glyph-name="uni041B" unicode="&#x41b;" horiz-adv-x="1372" 
d="M-70 -4l54 307q118 -15 186 40.5t98 225.5l152 865h991l-252 -1434h-328l197 1118h-336l-94 -536q-20 -115 -53.5 -208t-75.5 -154.5t-92.5 -108t-104.5 -69.5t-112.5 -37.5t-115.5 -13t-114 4.5z" />
    <glyph glyph-name="uni041C" unicode="&#x41c;" horiz-adv-x="1679" 
d="M1718 1434l-252 -1434h-327l147 840l-489 -615h-37l-252 619l-148 -844h-327l252 1434h327l248 -648l502 648h356z" />
    <glyph glyph-name="uni041D" unicode="&#x41d;" horiz-adv-x="1351" 
d="M1063 1434h328l-252 -1434h-328l100 569h-450l-101 -569h-327l252 1434h327l-96 -549h451z" />
    <glyph glyph-name="uni041E" unicode="&#x41e;" horiz-adv-x="1613" 
d="M721 -29q-153 0 -282.5 61t-213 163.5t-118.5 244.5t-7 297q28 157 104 291t188.5 230t260.5 150t314 54q150 0 278.5 -61t212 -163.5t119 -244.5t8.5 -297q-38 -210 -156.5 -374.5t-302.5 -257.5t-405 -93zM756 291q179 0 323.5 119t177.5 307q33 189 -64 307.5
t-275 118.5t-317.5 -118.5t-172.5 -307.5q-33 -190 59.5 -308t268.5 -118z" />
    <glyph glyph-name="uni041F" unicode="&#x41f;" horiz-adv-x="1331" 
d="M1370 1434l-252 -1434h-327l196 1118h-430l-197 -1118h-327l252 1434h1085z" />
    <glyph glyph-name="uni0420" unicode="&#x420;" horiz-adv-x="1208" 
d="M803 1434q147 0 254 -67.5t154.5 -184.5t27.5 -260q-30 -210 -187 -340.5t-401 -130.5h-211l-80 -451h-327l252 1434h518zM911 942q16 84 -23.5 134t-137.5 50h-191l-65 -368h190q92 0 150.5 49t76.5 135z" />
    <glyph glyph-name="uni0421" unicode="&#x421;" horiz-adv-x="1480" 
d="M735 -29q-216 0 -374.5 103.5t-227 279t-33.5 383.5q26 155 103 290t188.5 230.5t256.5 150t302 54.5q205 0 351.5 -88.5t218.5 -245.5l-301 -157q-84 172 -304 172q-186 0 -319.5 -117t-167.5 -309q-34 -191 57 -308.5t269 -117.5q236 0 372 182l267 -174
q-116 -154 -289 -241t-369 -87z" />
    <glyph glyph-name="uni0422" unicode="&#x422;" horiz-adv-x="1105" 
d="M1247 1434l-55 -316h-369l-196 -1118h-328l197 1118h-369l55 316h1065z" />
    <glyph glyph-name="uni0423" unicode="&#x423;" horiz-adv-x="1249" 
d="M1051 1434h340l-572 -1012q-71 -126 -148.5 -212t-163 -133t-173 -64.5t-191.5 -12.5l54 307q107 -10 179 27.5t128 120.5l-301 979h315l184 -627z" />
    <glyph glyph-name="uni0424" unicode="&#x424;" horiz-adv-x="1687" 
d="M1143 1303q282 -42 429.5 -206t106.5 -401q-44 -246 -240.5 -394.5t-504.5 -176.5l-29 -166h-319l30 172q-283 42 -430.5 205.5t-105.5 400.5q42 246 239.5 395t505.5 177l29 166h320zM408 717q-47 -246 262 -289l102 578q-320 -42 -364 -289zM1352 717q44 247 -262 289
l-103 -578q163 22 252.5 93.5t112.5 195.5z" />
    <glyph glyph-name="uni0425" unicode="&#x425;" horiz-adv-x="1269" 
d="M1391 1434l-533 -713l301 -721h-356l-174 414l-310 -414h-389l559 748l-286 686h356l160 -379l282 379h390z" />
    <glyph glyph-name="uni0426" unicode="&#x426;" horiz-adv-x="1413" 
d="M1174 315h153l-104 -589h-328l49 274h-911l252 1434h327l-196 -1119h430l196 1119h328z" />
    <glyph glyph-name="uni0427" unicode="&#x427;" horiz-adv-x="1300" 
d="M1012 1434h327l-252 -1434h-327l84 477q-93 -22 -201 -22q-254 0 -386 123t-93 344l90 512h328l-82 -463q-20 -112 25 -156.5t159 -44.5q116 0 217 37z" />
    <glyph glyph-name="uni0428" unicode="&#x428;" horiz-adv-x="1925" 
d="M1636 1434h328l-252 -1434h-1679l252 1434h327l-196 -1119h348l197 1119h327l-196 -1119h348z" />
    <glyph glyph-name="uni0429" unicode="&#x429;" horiz-adv-x="2007" 
d="M1767 315h154l-104 -589h-328l49 274h-1505l252 1434h327l-196 -1119h348l197 1119h327l-196 -1119h348l196 1119h328z" />
    <glyph glyph-name="uni042A" unicode="&#x42a;" horiz-adv-x="1413" 
d="M238 0l196 1118h-328l56 316h655l-78 -451h209q129 0 233.5 -70.5t155 -189.5t27.5 -252q-38 -220 -195 -345.5t-393 -125.5h-538zM618 307h211q80 0 136.5 52.5t70.5 132.5q14 78 -26 131t-115 53h-211z" />
    <glyph glyph-name="uni042B" unicode="&#x42b;" horiz-adv-x="1740" 
d="M33 0l252 1434h327l-80 -451h211q129 0 233.5 -70.5t155 -189.5t27.5 -252q-38 -220 -195 -345.5t-393 -125.5h-538zM1200 0l252 1434h328l-252 -1434h-328zM414 307h211q80 0 136 52.5t70 132.5q14 78 -26 131t-115 53h-211z" />
    <glyph glyph-name="uni042C" unicode="&#x42c;" horiz-adv-x="1208" 
d="M743 983q129 0 233.5 -70.5t155 -189.5t27.5 -252q-38 -220 -195 -345.5t-393 -125.5h-538l252 1434h327l-80 -451h211zM831 492q14 78 -26 131t-115 53h-211l-65 -369h211q80 0 136 52.5t70 132.5z" />
    <glyph glyph-name="uni042D" unicode="&#x42d;" horiz-adv-x="1474" 
d="M821 1462q162 0 293 -61t212 -164.5t113.5 -244t6.5 -296.5q-35 -209 -151 -373.5t-296 -258t-393 -93.5q-198 0 -354 88t-227 246l301 158q38 -83 119 -127.5t192 -44.5q143 0 256.5 73t175.5 199h-584l56 307h583q-17 127 -105 200t-228 73q-117 0 -211 -50.5
t-156 -134.5l-264 172q113 156 288 244t373 88z" />
    <glyph glyph-name="uni042E" unicode="&#x42e;" horiz-adv-x="2170" 
d="M1524 1462q150 0 278.5 -61t212 -163.5t119 -244.5t8.5 -297q-38 -208 -161 -374t-307.5 -258.5t-395.5 -92.5q-133 0 -248.5 46.5t-196.5 128t-128 193.5t-50 241h-192l-103 -580h-327l252 1434h327l-94 -539h193q93 255 314 411t499 156zM1815 717q33 189 -64.5 307.5
t-275.5 118.5t-317.5 -118.5t-172.5 -307.5q-33 -190 59.5 -308t268.5 -118q179 0 324 119t178 307z" />
    <glyph glyph-name="uni042F" unicode="&#x42f;" horiz-adv-x="1280" 
d="M1319 1434l-252 -1434h-328l82 471h-80l-381 -471h-399l430 514q-131 60 -187 184.5t-30 268.5q16 91 61.5 173t117 148.5t176.5 106t227 39.5h563zM647 758h225l66 368h-225q-81 0 -142 -52.5t-75 -131.5q-13 -77 31 -130.5t120 -53.5z" />
    <glyph glyph-name="uni0430" unicode="&#x430;" horiz-adv-x="1275" 
d="M946 1024h307l-180 -1024h-307l12 70q-119 -99 -307 -99q-81 0 -149 23t-115.5 62.5t-82.5 94t-50 117t-19 131.5t11 138q18 100 65.5 191.5t119 164.5t173 116.5t217.5 43.5q193 0 287 -138zM569 262q107 0 187 67.5t100 180.5v2q20 114 -36 182t-163 68t-185.5 -68
t-98.5 -182t34.5 -182t161.5 -68z" />
    <glyph glyph-name="uni0431" unicode="&#x431;" horiz-adv-x="1159" 
d="M532 -29q-163 0 -280 72.5t-166.5 199.5t-22.5 285q18 107 39.5 181.5t57 147.5t87.5 128.5t129 108t183 100.5q32 15 82.5 37.5t73.5 32.5t60 28t55 29.5t44 29.5t42 35t34.5 39.5t34.5 49.5l234 -146q-51 -121 -152.5 -192t-290.5 -138q-137 -48 -201 -93t-98 -105
q122 96 285 96q72 0 141.5 -33t124 -90.5t79.5 -148.5t7 -195q-36 -209 -192.5 -334t-389.5 -125zM559 248q95 0 166 57.5t86 145.5q17 89 -36 147.5t-150 58.5q-86 0 -161 -54t-91 -144q-17 -92 37 -151.5t149 -59.5z" />
    <glyph glyph-name="uni0432" unicode="&#x432;" horiz-adv-x="1054" 
d="M1010 715q-25 -138 -133 -201q57 -40 82.5 -102t13.5 -136q-24 -131 -124 -203.5t-274 -72.5h-552l180 1024h512q153 0 235 -89.5t60 -219.5zM639 778h-193l-24 -143h190q92 0 103 70q7 37 -13 55t-63 18zM682 330q6 36 -15.5 53.5t-62.5 17.5h-225l-25 -147h224
q41 0 69.5 19.5t34.5 56.5z" />
    <glyph glyph-name="uni0433" unicode="&#x433;" horiz-adv-x="829" 
d="M920 1024l-52 -295h-409l-129 -729h-307l180 1024h717z" />
    <glyph glyph-name="uni0434" unicode="&#x434;" horiz-adv-x="1228" 
d="M1016 287h133l-100 -561h-299l49 274h-570l-49 -274h-299l101 561h127q103 124 143 354l67 383h826zM434 287h283l80 463h-228l-18 -109q-40 -221 -117 -354z" />
    <glyph glyph-name="uni0435" unicode="&#x435;" horiz-adv-x="1191" 
d="M678 1053q147 0 260.5 -69.5t166.5 -194.5t25 -277q-10 -65 -32 -123h-733q23 -143 210 -143q130 0 216 80l215 -176q-176 -179 -451 -179q-130 0 -232.5 44.5t-164 121t-86 178.5t-6.5 217q36 223 209 372t403 149zM408 623h434q-7 81 -57.5 119t-127.5 38
q-82 0 -146.5 -40.5t-102.5 -116.5z" />
    <glyph glyph-name="uni0436" unicode="&#x436;" horiz-adv-x="1576" 
d="M1636 1024l-428 -520l258 -504h-309l-231 459l-80 -459h-299l80 453l-371 -453h-326l443 543l-238 481h301l215 -434l76 434h299l-78 -442l352 442h336z" />
    <glyph glyph-name="uni0437" unicode="&#x437;" horiz-adv-x="927" 
d="M883 729q-25 -150 -148 -219q63 -41 91 -106t16 -142q-24 -134 -140 -212.5t-319 -78.5q-155 0 -260.5 61t-145.5 183l265 135q35 -112 176 -112q120 0 135 79q6 35 -14 53.5t-70 18.5h-145l45 258h110q97 0 109 70q6 36 -17 55t-67 19q-113 0 -185 -117l-231 143
q168 236 444 236q120 0 207 -47.5t123 -121t21 -155.5z" />
    <glyph glyph-name="uni0438" unicode="&#x438;" 
d="M940 1024h225l-180 -1024h-299l88 500l-526 -500h-225l180 1024h299l-88 -500z" />
    <glyph glyph-name="uni0439" unicode="&#x439;" 
d="M399 1145l45 266h615l-45 -266h-615zM940 1024h225l-180 -1024h-299l88 500l-526 -500h-225l180 1024h299l-88 -500z" />
    <glyph glyph-name="uni043A" unicode="&#x43a;" horiz-adv-x="1075" 
d="M1155 1024l-453 -512l283 -512h-328l-245 467l-82 -467h-307l180 1024h307l-74 -424l365 424h354z" />
    <glyph glyph-name="uni043B" unicode="&#x43b;" horiz-adv-x="1116" 
d="M1094 1024l-181 -1024h-307l129 729h-223l-53 -305q-43 -249 -173.5 -350t-353.5 -74l50 287q140 -31 174 157l102 580h836z" />
    <glyph glyph-name="uni043C" unicode="&#x43c;" horiz-adv-x="1310" 
d="M1288 1024l-180 -1024h-295l94 530l-295 -358h-37l-165 356l-93 -528h-294l180 1024h295l157 -397l316 397h317z" />
    <glyph glyph-name="uni043D" unicode="&#x43d;" 
d="M858 1024h307l-180 -1024h-307l65 369h-348l-65 -369h-307l180 1024h307l-66 -369h349z" />
    <glyph glyph-name="uni043E" unicode="&#x43e;" horiz-adv-x="1208" 
d="M541 -29q-79 0 -148 18t-120 49.5t-93 75t-66.5 94.5t-40 108.5t-14.5 117t11 119.5q20 100 71 189.5t127.5 159t184 110.5t231.5 41t222.5 -51t154 -133.5t77.5 -184t3 -205.5q-18 -99 -71 -191.5t-131 -162.5t-182 -112t-216 -42zM561 270q101 0 178.5 67t96.5 175
q20 107 -34 174.5t-155 67.5q-100 0 -175 -67t-95 -175q-19 -108 32.5 -175t151.5 -67z" />
    <glyph glyph-name="uni043F" unicode="&#x43f;" 
d="M1165 1024l-180 -1024h-307l129 737h-348l-129 -737h-307l180 1024h962z" />
    <glyph glyph-name="uni0440" unicode="&#x440;" horiz-adv-x="1275" 
d="M801 1053q146 0 248.5 -81.5t142.5 -208.5t18 -271q-14 -98 -58.5 -189.5t-113.5 -166.5t-170 -120t-217 -45q-205 0 -301 146l-92 -527h-307l252 1434h307l-14 -86q124 115 305 115zM903 512q20 114 -33.5 182t-160.5 68q-104 0 -184 -65.5t-103 -174.5l-4 -18
q-15 -111 41.5 -176.5t161.5 -65.5q107 0 184.5 68t97.5 182z" />
    <glyph glyph-name="uni0441" unicode="&#x441;" horiz-adv-x="1095" 
d="M543 -29q-161 0 -279 74.5t-170 202.5t-28 284q23 148 108.5 267t217 186.5t284.5 67.5q160 0 272 -72.5t164 -194.5l-281 -147q-48 111 -182 111q-102 0 -180 -64.5t-96 -169.5q-19 -105 36.5 -173.5t155.5 -68.5q132 0 213 115l248 -158q-79 -129 -207.5 -194.5
t-275.5 -65.5z" />
    <glyph glyph-name="uni0442" unicode="&#x442;" horiz-adv-x="962" 
d="M1032 1024l-51 -295h-305l-129 -729h-307l129 729h-310l52 295h921z" />
    <glyph glyph-name="uni0443" unicode="&#x443;" horiz-adv-x="1085" 
d="M836 1024h340l-525 -993q-92 -174 -197.5 -275.5t-215.5 -137t-248 -28.5l49 287q110 0 167.5 35.5t110.5 132.5l-227 979h316l126 -627z" />
    <glyph glyph-name="uni0444" unicode="&#x444;" horiz-adv-x="1413" 
d="M948 1032q214 -44 324 -194.5t76 -345.5q-36 -203 -189.5 -339.5t-394.5 -168.5l-70 -394h-299l70 402q-214 44 -323.5 194.5t-75.5 345.5q36 203 189 339.5t394 168.5l70 394h299zM1049 512q15 86 -23.5 145.5t-128.5 85.5l-82 -462q99 26 159 86t75 145zM365 512
q-15 -86 23 -145.5t128 -85.5l82 462q-98 -26 -158 -86t-75 -145z" />
    <glyph glyph-name="uni0445" unicode="&#x445;" horiz-adv-x="1085" 
d="M1163 1024l-448 -514l280 -510h-331l-152 276l-242 -276h-360l463 530l-271 494h332l141 -260l228 260h360z" />
    <glyph glyph-name="uni0446" unicode="&#x446;" horiz-adv-x="1249" 
d="M995 287h174l-100 -561h-299l49 274h-796l180 1024h307l-129 -737h307l129 737h307z" />
    <glyph glyph-name="uni0447" unicode="&#x447;" horiz-adv-x="1116" 
d="M786 1024h308l-181 -1024h-307l53 301q-128 -27 -217 -27q-182 0 -284 101t-72 270l66 379h307l-60 -338q-11 -59 24 -92t112 -33q80 0 176 35z" />
    <glyph glyph-name="uni0448" unicode="&#x448;" horiz-adv-x="1720" 
d="M1391 1024h307l-180 -1024h-1495l180 1024h307l-129 -737h287l129 737h307l-129 -737h287z" />
    <glyph glyph-name="uni0449" unicode="&#x449;" horiz-adv-x="1740" 
d="M1528 287h133l-100 -561h-299l49 274h-1288l180 1024h307l-129 -737h266l129 737h307l-129 -737h267l129 737h307z" />
    <glyph glyph-name="uni044A" unicode="&#x44a;" horiz-adv-x="1198" 
d="M793 717q170 0 265.5 -109t67.5 -270q-30 -164 -146 -251t-314 -87h-480l129 729h-276l51 295h584l-53 -307h172zM831 358q6 41 -16 67t-67 26h-175l-32 -185h174q45 0 76.5 26t39.5 66z" />
    <glyph glyph-name="uni044B" unicode="&#x44b;" horiz-adv-x="1515" 
d="M629 717q170 0 266 -109t68 -270q-30 -163 -146.5 -250.5t-314.5 -87.5h-479l180 1024h307l-53 -307h172zM1186 1024h307l-180 -1024h-307zM668 358q6 41 -16.5 67t-67.5 26h-174l-33 -185h174q45 0 77 26t40 66z" />
    <glyph glyph-name="uni044C" unicode="&#x44c;" horiz-adv-x="1034" 
d="M629 717q170 0 266 -109t68 -270q-30 -163 -146.5 -250.5t-314.5 -87.5h-479l180 1024h307l-53 -307h172zM668 358q6 41 -16.5 67t-67.5 26h-174l-33 -185h174q45 0 77 26t40 66z" />
    <glyph glyph-name="uni044D" unicode="&#x44d;" horiz-adv-x="1095" 
d="M565 1053q114 0 210.5 -45t158.5 -120.5t89 -179.5t7 -216q-40 -233 -206 -377t-408 -144q-150 0 -267 72t-167 193l270 143q54 -115 199 -115q65 0 124.5 29.5t100.5 81.5h-285l49 274h285q-22 53 -70.5 82t-117.5 29q-145 0 -226 -119l-241 152q83 120 214.5 190
t280.5 70z" />
    <glyph glyph-name="uni044E" unicode="&#x44e;" horiz-adv-x="1669" 
d="M1149 1053q84 0 156.5 -23.5t124.5 -64.5t92.5 -96.5t60 -119t27 -132.5t-7.5 -138q-18 -100 -70.5 -192t-129.5 -162t-180.5 -112t-215.5 -42q-107 0 -194.5 32t-145 87.5t-92 126t-44.5 152.5h-135l-65 -369h-307l180 1024h307l-66 -369h125q67 174 218.5 286
t361.5 112zM1300 512q20 107 -35.5 174.5t-156.5 67.5q-100 0 -177 -67t-97 -175q-19 -108 34 -175t154 -67t180.5 67.5t97.5 174.5z" />
    <glyph glyph-name="uni044F" unicode="&#x44f;" horiz-adv-x="1075" 
d="M1053 1024l-181 -1024h-299l52 295h-60l-256 -295h-358l307 344q-86 55 -126.5 148t-22.5 188q12 69 45.5 130t87 109.5t134 76.5t177.5 28h500zM406 649q-7 -41 16 -70.5t74 -29.5h174l37 205h-175q-52 0 -85.5 -31.5t-40.5 -73.5z" />
    <glyph glyph-name="uni0451" unicode="&#x451;" horiz-adv-x="1191" 
d="M530 1116q-63 0 -100.5 45.5t-26.5 108.5q10 63 64 108t117 45t100.5 -45t26.5 -108q-10 -63 -64 -108.5t-117 -45.5zM920 1116q-63 0 -100.5 45.5t-26.5 108.5q10 63 63.5 108t116.5 45t100.5 -45t26.5 -108q-10 -63 -63.5 -108.5t-116.5 -45.5zM678 1053
q147 0 260.5 -69.5t166.5 -194.5t25 -277q-10 -65 -32 -123h-733q23 -143 210 -143q130 0 216 80l215 -176q-176 -179 -451 -179q-130 0 -232.5 44.5t-164 121t-86 178.5t-6.5 217q36 223 209 372t403 149zM408 623h434q-7 81 -57.5 119t-127.5 38q-82 0 -146.5 -40.5
t-102.5 -116.5z" />
    <glyph glyph-name="uni0452" unicode="&#x452;" horiz-adv-x="1198" 
d="M805 1053q166 0 260.5 -114t60.5 -310l-110 -629q-45 -251 -174.5 -351.5t-374.5 -86.5l53 295q85 -5 130.5 28.5t58.5 114.5l102 584q16 93 -26 139.5t-121 46.5q-85 0 -146.5 -53t-79.5 -158l-98 -559h-307l196 1118h-123l35 193h121l23 123h307l-23 -123h289l-35 -193
h-286l-33 -190q52 58 132.5 91.5t168.5 33.5z" />
    <glyph glyph-name="uni0453" unicode="&#x453;" horiz-adv-x="829" 
d="M952 1434l-278 -287h-303l204 287h377zM203 1024h717l-52 -295h-409l-129 -729h-307z" />
    <glyph glyph-name="uni0454" unicode="&#x454;" horiz-adv-x="1095" 
d="M547 264q156 0 237 119l242 -152q-83 -120 -215 -190t-281 -70q-153 0 -269 76t-168.5 205.5t-26.5 279.5q40 230 211 375.5t403 145.5q150 0 267 -72t167 -193l-270 -143q-54 115 -195 115q-136 0 -223 -111h276l-49 -274h-280q22 -52 67.5 -81.5t106.5 -29.5z" />
    <glyph glyph-name="uni0455" unicode="&#x455;" horiz-adv-x="958" 
d="M422 -29q-317 0 -432 252l276 139q45 -116 183 -116q103 0 112 53q4 25 -22 43t-70 31t-97.5 28t-105 40.5t-91 61t-57.5 97.5t-3 143q14 79 57.5 140.5t104.5 97.5t129 54t139 18q135 0 238 -58.5t153 -160.5l-277 -138q-35 90 -133 90q-92 0 -104 -63q-6 -30 19 -50
t69 -32t97.5 -25t105.5 -36t92 -57.5t58 -98t3 -148.5q-19 -105 -84.5 -175t-156 -100t-203.5 -30z" />
    <glyph glyph-name="uni0456" unicode="&#x456;" horiz-adv-x="532" 
d="M375 1114q-77 0 -121.5 54.5t-32.5 129.5q12 74 74.5 129.5t138.5 55.5t122 -55t34 -130q-12 -76 -75 -130t-140 -54zM23 0l180 1024h307l-180 -1024h-307z" />
    <glyph glyph-name="uni0457" unicode="&#x457;" horiz-adv-x="532" 
d="M176 1106q-63 0 -100.5 45.5t-26.5 108.5q10 63 63.5 108t116.5 45t100.5 -45t26.5 -108q-10 -63 -63.5 -108.5t-116.5 -45.5zM565 1106q-63 0 -100.5 45.5t-26.5 108.5q10 63 63.5 108t116.5 45t100.5 -45t26.5 -108q-10 -63 -63.5 -108.5t-116.5 -45.5zM23 0l180 1024
h307l-180 -1024h-307z" />
    <glyph glyph-name="uni0458" unicode="&#x458;" horiz-adv-x="563" 
d="M465 1483q76 0 122 -55t34 -130q-12 -76 -75 -130t-140 -54t-121.5 54.5t-32.5 129.5q12 74 74.5 129.5t138.5 55.5zM53 0l180 1024h308l-181 -1024q-44 -251 -173 -351.5t-375 -86.5l53 295q84 -5 129.5 28.5t58.5 114.5z" />
    <glyph glyph-name="uni0459" unicode="&#x459;" horiz-adv-x="1566" 
d="M1178 696q158 0 251 -104.5t64 -263.5q-29 -160 -142 -244t-296 -84h-469l129 729h-203l-53 -305q-43 -249 -173.5 -350t-353.5 -74l50 287q140 -31 174 157l102 580h815l-57 -328h162zM1198 348q7 38 -12.5 60t-52.5 22h-164l-29 -164h164q33 0 60 22t34 60z" />
    <glyph glyph-name="uni045A" unicode="&#x45a;" horiz-adv-x="1638" 
d="M1249 696q103 0 182 -46.5t116 -131.5t18 -190q-29 -160 -142.5 -244t-296.5 -84h-469l72 410h-328l-71 -410h-307l180 1024h307l-57 -328h327l58 328h307l-58 -328h162zM1270 348q7 38 -13 60t-53 22h-164l-28 -164h164q33 0 60 22t34 60z" />
    <glyph glyph-name="uni045B" unicode="&#x45b;" horiz-adv-x="1198" 
d="M805 1053q166 0 260.5 -114t60.5 -310l-110 -629h-307l102 584q16 93 -26 139.5t-121 46.5q-85 0 -146.5 -53t-79.5 -158l-98 -559h-307l196 1118h-123l35 193h121l23 123h307l-23 -123h289l-35 -193h-286l-33 -190q52 58 132.5 91.5t168.5 33.5z" />
    <glyph glyph-name="uni045C" unicode="&#x45c;" horiz-adv-x="1075" 
d="M1075 1434l-278 -287h-303l204 287h377zM1155 1024l-453 -512l283 -512h-328l-245 467l-82 -467h-307l180 1024h307l-74 -424l365 424h354z" />
    <glyph glyph-name="uni045E" unicode="&#x45e;" horiz-adv-x="1085" 
d="M979 1411l-45 -266h-615l46 266h614zM836 1024h340l-525 -993q-92 -174 -197.5 -275.5t-215.5 -137t-248 -28.5l49 287q110 0 167.5 35.5t110.5 132.5l-227 979h316l126 -627z" />
    <glyph glyph-name="uni045F" unicode="&#x45f;" 
d="M858 1024h307l-180 -1024h-332l-49 -274h-299l49 274h-331l180 1024h307l-129 -737h348z" />
    <glyph glyph-name="uni0490" unicode="&#x490;" horiz-adv-x="962" 
d="M821 1679h328l-100 -561h-492l-197 -1118h-327l252 1434h493z" />
    <glyph glyph-name="uni0491" unicode="&#x491;" horiz-adv-x="829" 
d="M657 1229h299l-88 -500h-409l-129 -729h-307l180 1024h418z" />
    <glyph glyph-name="Wgrave" unicode="&#x1e80;" horiz-adv-x="2043" 
d="M1391 1556l-129 287h-355l195 -287h289zM326 0l-144 1434h328l76 -1004l452 1004h267l100 -1004l424 1004h356l-647 -1434h-373l-86 846l-381 -846h-372z" />
    <glyph glyph-name="wgrave" unicode="&#x1e81;" horiz-adv-x="1597" 
d="M1096 1147h-289l-195 287h355zM1329 1024h338l-508 -1024h-287l-67 539l-240 -539h-307l-147 1024h307l63 -549l244 549h297l68 -549z" />
    <glyph glyph-name="Wacute" unicode="&#x1e82;" horiz-adv-x="2043" 
d="M1022 1556h303l279 287h-377zM326 0l-144 1434h328l76 -1004l452 1004h267l100 -1004l424 1004h356l-647 -1434h-373l-86 846l-381 -846h-372z" />
    <glyph glyph-name="wacute" unicode="&#x1e83;" horiz-adv-x="1597" 
d="M1309 1434l-279 -287h-303l205 287h377zM1329 1024h338l-508 -1024h-287l-67 539l-240 -539h-307l-147 1024h307l63 -549l244 549h297l68 -549z" />
    <glyph glyph-name="Wdieresis" unicode="&#x1e84;" horiz-adv-x="2043" 
d="M1004 1516q-63 0 -100.5 45t-26.5 108q10 63 63.5 108.5t116.5 45.5t100.5 -45.5t26.5 -108.5q-10 -63 -63.5 -108t-116.5 -45zM1393 1516q-63 0 -100.5 45t-26.5 108q10 63 63.5 108.5t116.5 45.5t100.5 -45.5t26.5 -108.5q-10 -63 -63.5 -108t-116.5 -45zM326 0
l-144 1434h328l76 -1004l452 1004h267l100 -1004l424 1004h356l-647 -1434h-373l-86 846l-381 -846h-372z" />
    <glyph glyph-name="wdieresis" unicode="&#x1e85;" horiz-adv-x="1597" 
d="M709 1106q-63 0 -100.5 45.5t-26.5 108.5q10 63 63.5 108t116.5 45t100.5 -45t26.5 -108q-10 -63 -63.5 -108.5t-116.5 -45.5zM1098 1106q-63 0 -100.5 45.5t-26.5 108.5q10 63 63.5 108t116.5 45t100.5 -45t26.5 -108q-10 -63 -63.5 -108.5t-116.5 -45.5zM1329 1024h338
l-508 -1024h-287l-67 539l-240 -539h-307l-147 1024h307l63 -549l244 549h297l68 -549z" />
    <glyph glyph-name="Ygrave" unicode="&#x1ef2;" horiz-adv-x="1249" 
d="M993 1556h-288l-195 287h354zM1411 1434l-602 -807l-111 -627h-327l110 629l-319 805h354l168 -484l336 484h391z" />
    <glyph glyph-name="ygrave" unicode="&#x1ef3;" horiz-adv-x="1085" 
d="M811 1147h-289l-194 287h354zM836 1024h340l-525 -993q-92 -174 -197.5 -275.5t-215.5 -137t-248 -28.5l49 287q110 0 167.5 35.5t110.5 132.5l-227 979h316l126 -627z" />
    <glyph glyph-name="endash" unicode="&#x2013;" horiz-adv-x="1259" 
d="M115 465l51 295h1014l-52 -295h-1013z" />
    <glyph glyph-name="emdash" unicode="&#x2014;" horiz-adv-x="1464" 
d="M115 465l51 295h1218l-51 -295h-1218z" />
    <glyph glyph-name="quoteleft" unicode="&#x2018;" horiz-adv-x="593" 
d="M147 829l271 605h246l-189 -605h-328z" />
    <glyph glyph-name="quoteright" unicode="&#x2019;" horiz-adv-x="593" 
d="M664 1434l-271 -605h-246l189 605h328z" />
    <glyph glyph-name="quotesinglbase" unicode="&#x201a;" horiz-adv-x="593" 
d="M467 317l-270 -604h-246l188 604h328z" />
    <glyph glyph-name="quotedblleft" unicode="&#x201c;" horiz-adv-x="1003" 
d="M147 829l271 605h246l-189 -605h-328zM557 829l270 605h246l-188 -605h-328z" />
    <glyph glyph-name="quotedblright" unicode="&#x201d;" horiz-adv-x="1003" 
d="M664 1434l-271 -605h-246l189 605h328zM1073 1434l-270 -605h-246l188 605h328z" />
    <glyph glyph-name="quotedblbase" unicode="&#x201e;" horiz-adv-x="1003" 
d="M467 317l-270 -604h-246l188 604h328zM877 317l-271 -604h-246l189 604h328z" />
    <glyph glyph-name="dagger" unicode="&#x2020;" horiz-adv-x="983" 
d="M1018 1178l-51 -295h-256l-156 -883h-307l155 883h-256l52 295h256l45 256h307l-45 -256h256z" />
    <glyph glyph-name="daggerdbl" unicode="&#x2021;" horiz-adv-x="983" 
d="M967 883h-256l-60 -332h256l-51 -295h-256l-45 -256h-307l45 256h-256l51 295h256l59 332h-256l52 295h256l45 256h307l-45 -256h256z" />
    <glyph glyph-name="bullet" unicode="&#x2022;" horiz-adv-x="778" 
d="M371 410q-126 0 -199.5 95t-50.5 224q23 127 125.5 211t236.5 84q125 0 198 -92t50 -219q-24 -131 -124 -217t-236 -86z" />
    <glyph glyph-name="ellipsis" unicode="&#x2026;" horiz-adv-x="1556" 
d="M190 -29q-79 0 -125 59.5t-32 139.5q14 81 78 135.5t149 54.5q79 0 126.5 -59t33.5 -139q-14 -81 -78 -136t-152 -55zM682 -29q-79 0 -125.5 59.5t-32.5 139.5t78.5 135t149.5 55q79 0 126 -59t33 -139q-14 -81 -77.5 -136t-151.5 -55zM1174 -29q-79 0 -125.5 59.5
t-32.5 139.5q14 81 78 135.5t149 54.5q79 0 126.5 -59t33.5 -139q-14 -81 -77.5 -136t-151.5 -55z" />
    <glyph glyph-name="perthousand" unicode="&#x2030;" horiz-adv-x="2383" 
d="M494 766q-104 0 -179.5 50.5t-107 128.5t-19.5 165q19 143 128 247.5t280 104.5q81 0 146.5 -33.5t101.5 -87t52 -121t-1 -135.5q-30 -134 -135.5 -226.5t-265.5 -92.5zM199 227l1104 1026l131 -84l-1104 -1028zM522 1001q48 0 84.5 33.5t44.5 79.5q8 49 -16 81t-72 32
q-47 0 -83 -32.5t-44 -80.5q-9 -48 15 -80.5t71 -32.5zM1085 -25q-106 0 -181.5 53t-105.5 133t-16 169q10 67 41.5 127t81.5 109t123.5 77.5t159.5 28.5q105 0 181.5 -55.5t106.5 -139.5t11 -174q-28 -136 -134.5 -232t-267.5 -96zM1864 -25q-106 0 -181.5 53t-105.5 133
t-16 169q10 67 41.5 127t81 109t123 77.5t159.5 28.5q105 0 181.5 -55.5t106.5 -139.5t11 -174q-18 -87 -68 -159.5t-137 -120.5t-196 -48zM1114 211q48 0 84.5 33.5t44.5 79.5q8 49 -16 80.5t-72 31.5q-47 0 -82.5 -32t-44.5 -80t15 -80.5t71 -32.5zM1892 211
q48 0 84.5 33.5t44.5 79.5q8 49 -16 80.5t-72 31.5q-47 0 -82.5 -32t-44.5 -80t15 -80.5t71 -32.5z" />
    <glyph glyph-name="guilsinglleft" unicode="&#x2039;" horiz-adv-x="741" 
d="M709 1022l-295 -397l153 -381h-266l-158 389l289 389h277z" />
    <glyph glyph-name="guilsinglright" unicode="&#x203a;" horiz-adv-x="743" 
d="M483 1022l158 -389l-289 -389h-276l295 397l-154 381h266z" />
    <glyph glyph-name="fraction" unicode="&#x2044;" horiz-adv-x="368" 
d="M-203 0h-215l1061 1434h215z" />
    <glyph glyph-name="Euro" unicode="&#x20ac;" horiz-adv-x="1275" 
d="M698 291q73 0 130.5 37.5t111.5 115.5l256 -157q-88 -153 -226.5 -234.5t-314.5 -81.5q-226 0 -352 149t-131 400h-139l30 172h121l6 45q1 3 2.5 10.5t2.5 10.5h-121l30 172h136q85 251 253.5 391.5t399.5 140.5q155 0 269.5 -82t162.5 -221l-285 -149q-56 133 -192 133
q-180 0 -270 -213h387l-31 -172h-408q-1 -7 -4 -20.5t-4 -20.5q-1 -4 -2 -12.5t-2 -12.5h410l-31 -172h-391q9 -229 196 -229z" />
    <glyph glyph-name="uni20BD" unicode="&#x20bd;" horiz-adv-x="1239" 
d="M868 1434q96 0 181 -42t142 -111.5t82 -164t7 -194.5q-36 -208 -188.5 -329.5t-391.5 -121.5h-217l-14 -84h430l-35 -201h-430l-33 -186h-327l32 186h-143l35 201h143l15 84h-142l49 287h144l119 676h542zM956 942q14 78 -26 131t-115 53h-215l-65 -368h215
q75 0 133.5 53t72.5 131z" />
    <glyph glyph-name="uni2116" unicode="&#x2116;" horiz-adv-x="2144" 
d="M1776 766q-149 0 -236.5 107t-60.5 251q25 147 139 242.5t272 95.5q149 0 235.5 -106t61.5 -252q-27 -146 -139.5 -242t-271.5 -96zM33 0l252 1434h245l412 -805l141 805h328l-252 -1434h-246l-409 805l-144 -805h-327zM1815 1012q46 0 78 28t40 74q8 45 -15 74t-67 29
t-77 -29t-41 -74t15 -73.5t67 -28.5zM1378 377l52 287h659l-51 -287h-660z" />
    <glyph glyph-name="trademark" unicode="&#x2122;" horiz-adv-x="974" 
d="M563 1307h-112l-50 -283h-137l49 283h-112l22 127h363zM1075 1434l-71 -410h-132l35 203l-110 -129h-13l-63 133l-37 -207h-131l72 410h131l59 -142l111 142h149z" />
    <glyph glyph-name="estimated" unicode="&#x212e;" horiz-adv-x="1597" 
d="M965 1454q217 0 374 -99t223.5 -267t30.5 -371q-6 -31 -37 -31h-1146q-31 0 -37 -31l-68 -393q-5 -22 6 -39q140 -182 447 -182q294 0 512 199q18 18 39 18h71q21 0 25.5 -12t-12.5 -27q-267 -239 -648 -239q-177 0 -317.5 61t-224.5 164.5t-117 241t-6 290.5
q27 152 104.5 284t191.5 227.5t266.5 150.5t322.5 55zM1368 1176q3 22 -8 38q-138 179 -406 179q-264 0 -469 -183q-17 -17 -20 -39l-70 -393q-6 -30 25 -30h840q30 0 36 30z" />
    <glyph glyph-name="oneeighth" unicode="&#x215b;" horiz-adv-x="1652" 
d="M1204 1434h215l-1061 -1434h-215zM334 1169l-166 -45l-23 219l267 91h219l-146 -820h-249zM1599 590q-17 -108 -116 -168q97 -75 78 -205q-17 -117 -109.5 -181.5t-249.5 -64.5q-148 0 -224 72.5t-56 189.5q11 65 50 117t103 84q-80 67 -59 176q20 113 109 175.5
t221 62.5q124 0 199 -71.5t54 -186.5zM1219 573q-6 -32 13.5 -48.5t59.5 -16.5q37 0 62.5 17t31.5 48q6 33 -14 50.5t-57 17.5q-84 0 -96 -68zM1335 260q6 36 -12.5 57t-60.5 21t-69.5 -21t-33.5 -57q-6 -37 13 -58.5t61 -21.5t69 21.5t33 58.5z" />
    <glyph glyph-name="threeeighths" unicode="&#x215c;" horiz-adv-x="1800" 
d="M721 850q-24 -134 -117 -199t-242 -65q-240 0 -307 184l219 117q20 -48 47 -67t68 -19q73 0 82 63q4 31 -15.5 46.5t-56.5 15.5h-51l-63 125l149 157h-264l39 226h575l-30 -174l-162 -170q74 -33 109 -95.5t20 -144.5zM1352 1434h215l-1061 -1434h-215zM1747 590
q-17 -107 -117 -168q97 -75 78 -205q-17 -117 -109.5 -181.5t-248.5 -64.5q-148 0 -224.5 73t-56.5 189q22 135 154 201q-81 67 -60 176q20 113 109 175.5t221 62.5q124 0 199.5 -71.5t54.5 -186.5zM1366 573q-6 -32 14 -48.5t60 -16.5q37 0 62.5 17t31.5 48
q6 33 -14.5 50.5t-57.5 17.5q-84 0 -96 -68zM1483 260q6 36 -13 57t-61 21t-69 -21t-33 -57q-6 -37 12.5 -58.5t60.5 -21.5t69.5 21.5t33.5 58.5z" />
    <glyph glyph-name="fiveeighths" unicode="&#x215d;" horiz-adv-x="1771" 
d="M702 842q-22 -132 -112.5 -194t-227.5 -62q-229 0 -296 184l213 111q28 -86 112 -86q37 0 60 18t28 47q5 30 -11.5 48t-51.5 18h-277l123 508h502l-39 -226h-289l-22 -84h47q58 0 106 -17t83.5 -50.5t50 -88.5t1.5 -126zM1323 1434h215l-1061 -1434h-215zM1718 590
q-17 -108 -116 -168q96 -75 77 -205q-17 -117 -109.5 -181.5t-248.5 -64.5q-148 0 -224.5 73t-56.5 189q22 135 154 201q-80 67 -59 176q20 113 108.5 175.5t220.5 62.5q124 0 199.5 -71.5t54.5 -186.5zM1337 573q-6 -32 14 -48.5t60 -16.5q37 0 62.5 17t31.5 48
q6 33 -14 50.5t-57 17.5q-85 0 -97 -68zM1454 260q6 36 -13 57t-61 21t-69 -21t-33 -57q-6 -37 13 -58.5t61 -21.5t69 21.5t33 58.5z" />
    <glyph glyph-name="seveneighths" unicode="&#x215e;" horiz-adv-x="1695" 
d="M354 614h-264l330 594h-297l39 226h573l-33 -191zM1247 1434h215l-1061 -1434h-215zM1642 590q-17 -108 -116 -168q97 -75 78 -205q-17 -117 -109.5 -181.5t-249.5 -64.5q-148 0 -224 72.5t-56 189.5q11 65 50 117t103 84q-80 67 -59 176q20 113 109 175.5t221 62.5
q124 0 199 -71.5t54 -186.5zM1262 573q-6 -32 13.5 -48.5t59.5 -16.5q37 0 63 17t32 48q6 33 -14.5 50.5t-57.5 17.5q-84 0 -96 -68zM1378 260q6 36 -12.5 57t-60.5 21t-69.5 -21t-33.5 -57q-6 -37 13 -58.5t61 -21.5t69 21.5t33 58.5z" />
    <glyph glyph-name="arrowleft" unicode="&#x2190;" horiz-adv-x="1617" 
d="M1597 864l-51 -295h-917l385 -467h-389l-506 615l723 614h430l-549 -467h874z" />
    <glyph glyph-name="arrowup" unicode="&#x2191;" horiz-adv-x="1392" 
d="M1364 819l-68 -385l-378 461l-158 -895h-307l151 854l-543 -459l74 424l723 615z" />
    <glyph glyph-name="arrowright" unicode="&#x2192;" horiz-adv-x="1617" 
d="M1067 1331l506 -614l-723 -615h-430l549 467h-877l51 295h920l-385 467h389z" />
    <glyph glyph-name="arrowdown" unicode="&#x2193;" horiz-adv-x="1392" 
d="M862 580l541 460l-74 -426l-723 -614l-506 614l68 385l379 -460l158 895h307z" />
    <glyph glyph-name="arrowboth" unicode="&#x2194;" horiz-adv-x="2252" 
d="M1882 729l326 -12l-676 -574h-416l496 426h-991l350 -426h-381l-471 574l674 573h421l-501 -426h989l-350 426h383l473 -573l-326 14v-2z" />
    <glyph glyph-name="arrowupdn" unicode="&#x2195;" horiz-adv-x="1310" 
d="M1280 807l-346 420l-172 -987l493 419l-73 -413l-674 -574l-471 574l67 381l345 -420l172 987l-492 -420l74 414l674 573l471 -573z" />
    <glyph glyph-name="uni2196" unicode="&#x2196;" horiz-adv-x="1320" 
d="M1323 987h-676l551 -672l-227 -190l-553 670l-119 -676l-236 287l154 868h870z" />
    <glyph glyph-name="uni2197" unicode="&#x2197;" horiz-adv-x="1320" 
d="M506 1274h868l-153 -868l-338 -287l112 637l-766 -650l-190 228l768 653h-639z" />
    <glyph glyph-name="uni2198" unicode="&#x2198;" horiz-adv-x="1320" 
d="M1090 1292l237 -286l-153 -869h-869l-237 287h675l-550 672l225 190l553 -668z" />
    <glyph glyph-name="uni2199" unicode="&#x2199;" horiz-adv-x="1320" 
d="M1350 1079l-770 -655h641l-336 -287h-869l154 869l336 286l-115 -643l770 654z" />
    <glyph glyph-name="partialdiff" unicode="&#x2202;" horiz-adv-x="1200" 
d="M664 1462q116 0 218 -56t171.5 -157t98.5 -242t-1 -311q-64 -362 -247 -543.5t-443 -181.5q-137 0 -235.5 64.5t-139 169t-18.5 225.5q37 208 180.5 334.5t343.5 126.5q160 0 266 -72q8 170 -65 262t-224 95q-106 3 -237 -64l49 277q129 73 283 73zM504 258
q108 0 185 80.5t122 222.5q-78 64 -199 64q-87 0 -154.5 -55t-84.5 -150q-13 -76 25 -119t106 -43z" />
    <glyph glyph-name="emptyset" unicode="&#x2205;" horiz-adv-x="1646" 
d="M1714 1475l-239 -250q83 -106 115.5 -242.5t6.5 -286.5q-36 -202 -161.5 -367.5t-309 -259.5t-385.5 -94t-364 111l-121 -127h-252l240 250q-84 107 -117 243.5t-6 284.5q35 202 161 367.5t310.5 259.5t386.5 94q203 0 362 -108l121 125h252zM324 717q-37 -205 67 -357
l803 836q-106 61 -240 61q-224 0 -407 -157t-223 -383zM1395 717q37 203 -68 356l-803 -835q108 -62 240 -62q147 0 283 72t229 196.5t119 272.5z" />
    <glyph glyph-name="product" unicode="&#x220f;" horiz-adv-x="1310" 
d="M-39 -410l324 1844h1065l-324 -1844h-307l272 1549h-450l-273 -1549h-307z" />
    <glyph glyph-name="summation" unicode="&#x2211;" horiz-adv-x="1167" 
d="M-100 -410l51 287l541 688l-277 647l39 222h963l-52 -295h-598l258 -607l-508 -647h658l-51 -295h-1024z" />
    <glyph glyph-name="minus" unicode="&#x2212;" horiz-adv-x="1146" 
d="M113 573l51 287h942l-51 -287h-942z" />
    <glyph glyph-name="radical" unicode="&#x221a;" horiz-adv-x="1404" 
d="M449 0l-173 381h-217l52 295h372l131 -322l658 1284h332l-861 -1638h-294z" />
    <glyph glyph-name="infinity" unicode="&#x221e;" horiz-adv-x="1658" 
d="M1264 1085q166 0 260 -109t65 -276q-30 -166 -148.5 -259t-285.5 -93q-168 0 -319 166q-196 -166 -365 -166q-167 0 -263.5 109.5t-66.5 275.5q29 165 150 258.5t289 93.5q171 0 317 -165q199 165 367 165zM524 625q71 0 160 92q-58 92 -127 92q-41 0 -71.5 -26.5
t-36.5 -65.5q-8 -39 13 -65.5t62 -26.5zM1282 717q6 39 -14 65.5t-60 26.5q-70 0 -159 -92q58 -92 127 -92q40 0 69 26.5t37 65.5z" />
    <glyph glyph-name="integral" unicode="&#x222b;" horiz-adv-x="905" 
d="M-164 -418l53 307q24 -14 56 -16t64.5 8.5t61.5 40t44 74.5l379 1096q34 100 82 172.5t102.5 114.5t119.5 61.5t131.5 18t139.5 -20.5l-55 -308q-23 14 -54.5 16t-63.5 -8t-61 -39.5t-44 -74.5l-379 -1096q-34 -100 -82 -172.5t-103 -114t-120 -61.5t-131.5 -18.5
t-139.5 20.5z" />
    <glyph glyph-name="approxequal" unicode="&#x2248;" horiz-adv-x="1146" 
d="M639 760q-69 31 -117.5 45.5t-87 11.5t-60 -10.5t-61.5 -26.5l-174 58q39 108 92.5 177.5t117.5 98.5t135 26.5t151 -36.5q64 -27 105 -39t79.5 -11.5t65.5 23t47 68.5l223 -119q-38 -100 -94.5 -169t-124 -101.5t-143.5 -31.5t-154 36zM289 289l-226 119
q38 100 95.5 169t124.5 101.5t143 31.5t154 -36q70 -31 119 -45.5t87 -12t59 10t60 26.5l174 -57q-149 -411 -495 -266q-64 27 -104.5 39t-79 11.5t-65 -23t-46.5 -68.5z" />
    <glyph glyph-name="notequal" unicode="&#x2260;" horiz-adv-x="1064" 
d="M1030 788h-321l-91 -143h388l-52 -287h-514l-159 -256h-189l160 256h-197l51 287h324l90 143h-389l51 287h516l160 256h189l-160 -256h194z" />
    <glyph glyph-name="lessequal" unicode="&#x2264;" horiz-adv-x="1085" 
d="M1155 1372l-57 -330l-602 -165l542 -166l-53 -301l-860 348l25 133l22 133zM6 82l51 287h922l-51 -287h-922z" />
    <glyph glyph-name="greaterequal" unicode="&#x2265;" horiz-adv-x="1085" 
d="M233 1372l861 -348l-23 -133l-24 -133l-984 -348l58 327l604 166l-545 166zM6 82l51 287h922l-51 -287h-922z" />
    <glyph glyph-name="lozenge" unicode="&#x25ca;" horiz-adv-x="1146" 
d="M373 0l-254 717l506 717h221l256 -717l-508 -717h-221zM545 416l229 325l-98 277l-230 -326z" />
    <glyph glyph-name="i.loclTRK" horiz-adv-x="532" 
d="M375 1116q-71 0 -114 52t-30 122q12 71 72.5 122.5t130.5 51.5q71 0 114.5 -52t31.5 -122q-14 -71 -74.5 -122.5t-130.5 -51.5zM23 0l180 1024h307l-180 -1024h-307z" />
    <glyph glyph-name="f_f_j" horiz-adv-x="1740" 
d="M1718 1024l-180 -1024q-44 -251 -173.5 -351.5t-375.5 -86.5l53 295q85 -5 130.5 28.5t58.5 114.5l129 729h-262l-129 -729h-307l129 729h-267l-129 -729h-307l129 729h-137l51 295h137q81 467 576 438l-51 -295q-191 17 -218 -143h267l4 20q39 229 178.5 334t396.5 105
q115 0 250 -29l-49 -283q-96 17 -205 17q-240 0 -264 -144l-4 -20h569z" />
    <glyph glyph-name="f_j" horiz-adv-x="1167" 
d="M1145 1024l-180 -1024q-44 -251 -173.5 -351.5t-375.5 -86.5l53 295q84 -5 129.5 28.5t58.5 114.5l129 729h-262l-129 -729h-307l129 729h-137l51 295h137q39 228 179 333t397 105q119 0 250 -28l-50 -283q-91 16 -204 16q-241 0 -265 -143h570z" />
    <glyph glyph-name="uni0414.loclBGR" horiz-adv-x="1515" 
d="M1280 315h170l-104 -589h-328l49 274h-799l-49 -274h-328l105 589h170l545 1119h417zM516 315h430l-82 752z" />
    <glyph glyph-name="uni041B.loclBGR" horiz-adv-x="1310" 
d="M-90 0l698 1434h418l195 -1434h-351l-104 1055l-490 -1055h-366z" />
    <glyph glyph-name="uni0424.loclBGR" horiz-adv-x="1769" 
d="M1202 1444q292 -48 441.5 -251.5t97.5 -496.5q-54 -306 -264 -493t-533 -221l-33 -187h-307l35 195q-292 50 -441.5 252t-97.5 495q54 306 264.5 493.5t532.5 221.5l33 186h307zM1413 717q64 368 -262 430l-154 -860q180 32 281.5 140t134.5 290zM428 717
q-67 -368 262 -430l154 860q-352 -62 -416 -430z" />
    <glyph glyph-name="uni0414.ss01" horiz-adv-x="1454" 
d="M1411 1434l-197 -1119h154l-57 -315h-1368l53 315h145q142 162 197 476l113 643h960zM500 315h387l143 811h-305l-59 -340q-54 -306 -166 -471z" />
    <glyph glyph-name="uni0426.ss01" horiz-adv-x="1413" 
d="M1174 315h153l-55 -315h-1239l252 1434h327l-196 -1119h430l196 1119h328z" />
    <glyph glyph-name="uni0429.ss01" horiz-adv-x="2007" 
d="M1767 315h154l-55 -315h-1833l252 1434h327l-196 -1119h348l197 1119h327l-196 -1119h348l196 1119h328z" />
    <glyph glyph-name="uni0414.loclBGR.ss01" horiz-adv-x="1515" 
d="M1280 315h170l-55 -315h-1454l55 315h170l545 1119h417zM516 315h430l-82 752z" />
    <glyph glyph-name="uni0432.loclBGR" horiz-adv-x="1157" 
d="M1096 1077q-12 -73 -52.5 -134.5t-119.5 -123.5q96 -56 139 -157t18 -236q-38 -223 -180 -339t-375 -116q-141 0 -245.5 63.5t-152 179.5t-22.5 261l87 490q41 239 180 368t354 129q87 0 161.5 -28.5t125.5 -78.5t73.5 -122.5t8.5 -155.5zM700 1176q-73 0 -128 -60.5
t-74 -159.5l-19 -102l64 12q76 13 104 13q74 51 106 93.5t38 88.5q10 54 -14 84.5t-77 30.5zM774 446q18 102 -57 139t-223 7l-62 -12l-20 -113q-15 -91 25.5 -146t123.5 -55q88 0 143.5 47.5t69.5 132.5z" />
    <glyph glyph-name="uni0433.loclBGR" horiz-adv-x="966" 
d="M428 -29q-91 0 -170 26t-134.5 73.5t-81 119.5t-9.5 158q14 75 51.5 129.5t87 83t106 47t111.5 28t100.5 19t75.5 26.5t35 44q4 27 -16 42t-60 15q-87 0 -153 -90l-244 146q137 215 420 215q110 0 200.5 -47t138 -134.5t27.5 -195.5q-12 -72 -49 -124.5t-86 -80.5
t-105.5 -46.5t-112 -27.5t-101 -17.5t-76 -23.5t-35.5 -39q-6 -34 20 -52.5t81 -18.5q130 0 194 121l240 -160q-65 -116 -184.5 -176t-270.5 -60z" />
    <glyph glyph-name="uni0434.loclBGR" horiz-adv-x="1277" 
d="M956 1024h299l-172 -973q-18 -107 -58.5 -191t-95.5 -139.5t-126 -91.5t-147.5 -51.5t-163.5 -15.5q-172 0 -297 62.5t-181 185.5l275 143q59 -121 225 -121q110 0 181 56t89 163l13 72q-121 -111 -308 -111q-80 0 -148.5 21.5t-117 59t-85.5 89t-54 112t-22.5 127.5
t8.5 136q16 95 61.5 182.5t115 158t169 113t213.5 42.5q216 0 307 -150zM580 299q103 0 182 59t104 154l8 43q8 94 -50 152.5t-160 58.5q-109 0 -189.5 -65.5t-99.5 -168.5t38.5 -168t166.5 -65z" />
    <glyph glyph-name="uni0436.loclBGR" horiz-adv-x="1576" 
d="M-70 0l443 543l-238 481h301l215 -434l150 844h299l-152 -850l352 440h336l-428 -520l258 -504h-309l-229 459l-82 -459h-299l80 453l-371 -453h-326z" />
    <glyph glyph-name="uni0438.loclBGR" 
d="M858 1024h307l-180 -1024h-307l16 96q-52 -58 -133 -91.5t-168 -33.5q-166 0 -260.5 114t-60.5 310l110 629h307l-102 -584q-16 -93 26.5 -139.5t121.5 -46.5q81 0 141.5 49.5t81.5 149.5z" />
    <glyph glyph-name="uni0439.loclBGR" 
d="M1036 1411l-45 -266h-614l45 266h614zM858 1024h307l-180 -1024h-307l16 96q-52 -58 -133 -91.5t-168 -33.5q-166 0 -260.5 114t-60.5 310l110 629h307l-102 -584q-16 -93 26.5 -139.5t121.5 -46.5q81 0 141.5 49.5t81.5 149.5z" />
    <glyph glyph-name="uni043A.loclBGR" horiz-adv-x="1075" 
d="M1155 1024l-453 -512l283 -512h-328l-245 467l-82 -467h-307l251 1434h308l-148 -834l367 424h354z" />
    <glyph glyph-name="uni043B.loclBGR" horiz-adv-x="1044" 
d="M954 0h-315l-86 627l-303 -627h-340l549 1024h307z" />
    <glyph glyph-name="uni043F.loclBGR" 
d="M795 1053q166 0 260.5 -114t60.5 -310l-110 -629h-308l103 584q16 93 -26.5 139.5t-121.5 46.5q-81 0 -141.5 -49.5t-81.5 -149.5l-100 -571h-307l180 1024h307l-16 -96q52 58 133 91.5t168 33.5z" />
    <glyph glyph-name="uni0442.loclBGR" horiz-adv-x="1740" 
d="M1343 1053q178 0 268 -118t58 -306l-110 -629h-308l105 602q14 78 -15.5 123t-101.5 45q-74 0 -122.5 -46.5t-67.5 -131.5l-105 -592h-307l104 602q14 79 -15 123.5t-101 44.5q-74 0 -123 -44.5t-68 -129.5l-104 -596h-307l180 1024h307l-16 -92q48 55 121.5 88t162.5 33
q182 0 250 -140q127 140 315 140z" />
    <glyph glyph-name="uni0446.loclBGR" horiz-adv-x="1269" 
d="M1098 287h92l-100 -561h-299l53 301q-62 32 -90 84q-143 -140 -344 -140q-184 0 -277.5 115t-60.5 309l110 629h307l-102 -584q-16 -93 26.5 -139.5t121.5 -46.5t138 45.5t81 138.5l104 586h307l-118 -676q-9 -61 51 -61z" />
    <glyph glyph-name="uni0448.loclBGR" horiz-adv-x="1740" 
d="M1411 1024h307l-180 -1024h-307l16 92q-48 -55 -121.5 -88t-162.5 -33q-182 0 -250 140q-127 -140 -316 -140q-178 0 -267.5 118t-57.5 306l110 629h307l-104 -602q-14 -78 15.5 -123t101.5 -45q74 0 122.5 46.5t67.5 131.5l105 592h307l-105 -602q-14 -78 15.5 -123
t101.5 -45q74 0 123 44.5t68 129.5z" />
    <glyph glyph-name="uni0449.loclBGR" horiz-adv-x="1822" 
d="M1651 287h92l-101 -561h-299l54 301q-57 26 -88 77q-126 -133 -326 -133q-192 0 -266 133q-123 -133 -320 -133q-178 0 -267.5 118t-57.5 306l110 629h307l-104 -602q-14 -78 15.5 -123t101.5 -45q74 0 122.5 46.5t67.5 131.5l105 592h307l-105 -602q-14 -78 15.5 -123
t101.5 -45q145 0 187 162l108 608h307l-119 -676q-9 -61 52 -61z" />
    <glyph glyph-name="uni044C.loclBGR" horiz-adv-x="1013" 
d="M596 754q188 0 284 -111.5t64 -290.5q-31 -174 -160 -277.5t-325 -103.5q-200 0 -309.5 120.5t-77.5 301.5l110 631h299l-47 -270h162zM649 373q10 49 -15.5 81.5t-84.5 32.5h-162l-16 -94q-11 -61 20 -98t96 -37q61 0 108.5 35.5t53.5 79.5z" />
    <glyph glyph-name="uni044A.loclBGR" horiz-adv-x="1198" 
d="M780 754q188 0 284 -111.5t64 -290.5q-31 -174 -160 -277.5t-325 -103.5q-200 0 -309.5 120.5t-77.5 301.5l59 344h-276l51 287h576l-48 -270h162zM834 373q10 49 -16 81.5t-85 32.5h-162l-16 -94q-11 -61 20.5 -98t96.5 -37q61 0 108.5 35.5t53.5 79.5z" />
    <glyph glyph-name="uni044E.loclBGR" horiz-adv-x="1669" 
d="M1149 1053q84 0 156.5 -23.5t124.5 -64.5t92.5 -96.5t60 -119t27 -132.5t-7.5 -138q-18 -100 -70.5 -192t-129.5 -162t-180.5 -112t-215.5 -42q-107 0 -194.5 32t-145 87.5t-92 126t-44.5 152.5h-135l-65 -369h-307l251 1434h308l-138 -779h125q67 174 218.5 286
t361.5 112zM1300 512q20 107 -35.5 174.5t-156.5 67.5q-100 0 -177 -67t-97 -175q-19 -108 34 -175t154 -67t180.5 67.5t97.5 174.5z" />
    <glyph glyph-name="zero.sinf" horiz-adv-x="835" 
d="M274 -356q-166 0 -254 124.5t-53 325.5q36 203 153.5 314.5t289.5 111.5q164 0 253.5 -125t53.5 -325q-35 -203 -152 -314.5t-291 -111.5zM309 -106q57 0 97 49t55 139q15 91 -7 139.5t-79 48.5t-97 -49t-55 -139q-15 -91 7 -139.5t79 -48.5z" />
    <glyph glyph-name="one.sinf" horiz-adv-x="561" 
d="M246 492h219l-146 -820h-249l98 555l-166 -45l-22 219z" />
    <glyph glyph-name="two.sinf" horiz-adv-x="729" 
d="M-96 -328l26 158l355 309q58 51 70 69q11 17 14 34q4 24 -9.5 38.5t-40.5 14.5q-39 0 -69 -25t-60 -75l-194 122q57 94 147.5 148.5t208.5 54.5q136 0 213.5 -78.5t52.5 -214.5q-6 -33 -21 -63t-42.5 -61t-51 -52.5t-65.5 -56.5l-112 -96h243l-39 -226h-626z" />
    <glyph glyph-name="three.sinf" horiz-adv-x="702" 
d="M618 492l-30 -175l-162 -170q74 -33 109 -95.5t20 -143.5q-47 -264 -358 -264q-241 0 -308 184l220 117q20 -48 46.5 -67t67.5 -19q73 0 82 63q4 31 -15.5 46.5t-56.5 15.5h-51l-63 125l149 157h-264l39 226h575z" />
    <glyph glyph-name="four.sinf" horiz-adv-x="733" 
d="M614 23l-39 -226h-73l-23 -125h-237l22 125h-368l38 226l320 469h274l-311 -469h86l23 124h237l-22 -124h73z" />
    <glyph glyph-name="five.sinf" horiz-adv-x="686" 
d="M559 266h-289l-22 -84h47q58 0 106.5 -17t84 -50.5t50 -88.5t1.5 -126q-22 -132 -112.5 -194t-227.5 -62q-230 0 -297 184l213 111q28 -86 112 -86q37 0 60 18t28 47q5 30 -11.5 48t-51.5 18h-277l123 508h502z" />
    <glyph glyph-name="six.sinf" horiz-adv-x="700" 
d="M356 225q113 -20 170.5 -103t38.5 -198q-24 -131 -118.5 -205.5t-243.5 -74.5q-140 0 -217 87.5t-54 217.5q15 92 72 162l299 381h264zM340 -63q7 43 -14 64.5t-62 21.5q-84 0 -104 -86q-10 -43 10.5 -66t62.5 -23q41 0 69.5 23t37.5 66z" />
    <glyph glyph-name="seven.sinf" horiz-adv-x="604" 
d="M-4 492h573l-32 -191l-349 -629h-264l330 594h-297z" />
    <glyph glyph-name="eight.sinf" horiz-adv-x="724" 
d="M612 262q-17 -108 -116 -168q96 -75 77 -205q-17 -117 -109 -181t-249 -64q-148 0 -224.5 73t-56.5 189q22 134 154 200q-80 67 -59 177q20 113 108.5 175t220.5 62q124 0 199.5 -71.5t54.5 -186.5zM231 246q-6 -32 14 -49t60 -17q36 0 62 17.5t32 48.5q6 33 -14 50
t-57 17q-85 0 -97 -67zM348 -68q6 36 -13 57t-61 21t-69 -21t-33 -57q-6 -37 13 -58t61 -21t69 21t33 58z" />
    <glyph glyph-name="nine.sinf" horiz-adv-x="700" 
d="M346 520q140 0 216.5 -87.5t53.5 -217.5q-15 -94 -71 -162l-299 -381h-264l211 267q-113 20 -170.5 103t-38.5 198q24 131 118.5 205.5t243.5 74.5zM209 227q-7 -43 14 -64.5t62 -21.5q84 0 104 86q10 43 -11 65.5t-63 22.5q-41 0 -69 -22.5t-37 -65.5z" />
    <glyph glyph-name="zero.tf" 
d="M516 -29q-178 0 -298 99t-164 273t-5 394q60 337 241 531t455 194q107 0 195 -37t147.5 -105t96.5 -163.5t42 -211.5t-16 -249q-60 -338 -240 -531.5t-454 -193.5zM555 291q254 0 330 426q37 209 -7.5 317.5t-172.5 108.5q-254 0 -330 -426q-37 -209 7.5 -317.5
t172.5 -108.5z" />
    <glyph glyph-name="one.tf" 
d="M743 315h379l-55 -315h-1106l55 315h400l133 760l-264 -69l-31 292l399 136h287z" />
    <glyph glyph-name="two.tf" 
d="M-29 0l41 238l609 481q98 77 153 138t66 124q7 27 1 55.5t-20 52.5t-47 39t-80 15q-81 0 -142.5 -43t-119.5 -131l-260 170q99 159 248.5 241t324.5 82q139 0 245 -65.5t154.5 -176.5t26.5 -239q-24 -132 -102 -233t-240 -228l-258 -205h500l-55 -315h-1045z" />
    <glyph glyph-name="three.tf" 
d="M1231 1434l-45 -267l-312 -305q133 -58 203 -175t43 -267q-20 -115 -75 -202.5t-136 -140.5t-179 -79.5t-212 -26.5q-415 0 -512 338l301 158q55 -176 236 -176q112 0 174 46t76 124q13 78 -34 124t-159 46h-61l-97 192l308 303h-555l53 308h983z" />
    <glyph glyph-name="four.tf" 
d="M1161 532l-53 -303h-143l-41 -229h-332l41 229h-672l53 303l598 902h369l-600 -902h305l53 308h332l-53 -308h143z" />
    <glyph glyph-name="five.tf" 
d="M1174 1126h-584l-49 -196h147q104 0 192 -34.5t149 -97t87 -158t6 -210.5q-40 -226 -202.5 -342.5t-391.5 -116.5q-420 0 -522 338l301 158q27 -87 86.5 -131.5t161.5 -44.5q110 0 170.5 44t73.5 116q11 72 -33 115.5t-154 43.5h-473l203 824h885z" />
    <glyph glyph-name="six.tf" 
d="M737 999q118 -12 206.5 -61.5t137 -123t66 -161.5t2.5 -182q-13 -77 -44 -148.5t-85 -136t-124.5 -112t-167.5 -75.5t-208 -28q-95 0 -175.5 21.5t-136 60t-98 90.5t-61.5 112t-26 126.5t8 132.5q28 165 149 295l557 625h385zM825 487q18 98 -39 153.5t-159 55.5
q-108 0 -181.5 -54t-91.5 -155q-18 -99 38.5 -153.5t160.5 -54.5q107 0 180.5 54.5t91.5 153.5z" />
    <glyph glyph-name="seven.tf" 
d="M203 1434h1085l-47 -275l-717 -1159h-364l688 1118h-701z" />
    <glyph glyph-name="eight.tf" 
d="M1204 1028q-33 -191 -209 -289q88 -62 126.5 -153t19.5 -195q-36 -198 -199.5 -309t-429.5 -111t-402 123t-100 322q19 106 87 193.5t177 144.5q-139 109 -106 290q18 102 72 182.5t133 131.5t176 77.5t205 26.5t197.5 -29t152.5 -83t90.5 -137t9.5 -185zM492 1016
q-9 -62 33.5 -100.5t131.5 -38.5q90 0 148 39t67 100q11 62 -32 100.5t-133 38.5t-147 -38.5t-68 -100.5zM823 451q14 82 -39.5 127t-169.5 45t-186 -45t-84 -127q-15 -82 39 -127t170 -45t185.5 45t84.5 127z" />
    <glyph glyph-name="nine.tf" 
d="M739 1462q95 0 175.5 -21.5t136.5 -59.5t98 -90t61.5 -112t26.5 -126.5t-8 -132.5q-28 -164 -150 -295l-557 -625h-385l385 434q-118 12 -206.5 61.5t-136.5 123.5t-65.5 162t-2.5 182q13 77 44 148.5t84.5 136t124 111.5t167.5 75t208 28zM434 946q-18 -98 39.5 -153.5
t159.5 -55.5q108 0 181 54t91 155q18 99 -38 154t-160 55q-107 0 -181 -55t-92 -154z" />
    <glyph glyph-name="zero.dnom" horiz-adv-x="835" 
d="M332 -29q-165 0 -253.5 125t-53.5 326q37 203 154 314.5t288 111.5q164 0 253.5 -125.5t53.5 -325.5q-35 -203 -151.5 -314.5t-290.5 -111.5zM367 221q57 0 96.5 49t54.5 140t-7 139.5t-79 48.5t-96.5 -49t-54.5 -139q-15 -91 7 -140t79 -49z" />
    <glyph glyph-name="one.dnom" horiz-adv-x="561" 
d="M303 819h219l-145 -819h-250l98 555l-166 -45l-22 219z" />
    <glyph glyph-name="two.dnom" horiz-adv-x="739" 
d="M-39 0l27 158l354 309q4 4 15.5 13.5t14.5 12.5t12 11t11.5 11.5t8.5 10t8.5 10.5t6 10t5 11.5t2.5 11.5q4 25 -9.5 39.5t-39.5 14.5q-39 0 -69 -25.5t-60 -75.5l-195 123q57 94 148 148.5t209 54.5q136 0 213.5 -78.5t52.5 -214.5q-6 -33 -21 -63t-42.5 -61t-51 -52.5
t-65.5 -56.5l-113 -97h244l-39 -225h-627z" />
    <glyph glyph-name="three.dnom" horiz-adv-x="708" 
d="M676 819l-31 -174l-162 -170q74 -33 109 -95.5t20 -143.5q-48 -265 -358 -265q-240 0 -307 185l219 116q20 -48 47 -67t68 -19q72 0 81 64q4 31 -15 46t-56 15h-51l-64 125l150 158h-265l39 225h576z" />
    <glyph glyph-name="four.dnom" horiz-adv-x="731" 
d="M672 350l-39 -225h-74l-22 -125h-238l23 125h-369l39 225l319 469h275l-312 -469h86l23 125h238l-23 -125h74z" />
    <glyph glyph-name="five.dnom" horiz-adv-x="679" 
d="M616 594h-288l-23 -84h47q58 0 106.5 -17t84 -50.5t50 -89t1.5 -126.5q-22 -132 -112.5 -194t-227.5 -62q-230 0 -297 185l213 110q28 -86 113 -86q37 0 60 18.5t28 47.5q5 30 -12 47.5t-52 17.5h-276l123 508h501z" />
    <glyph glyph-name="six.dnom" horiz-adv-x="698" 
d="M414 553q113 -20 170.5 -103t38.5 -198q-24 -131 -119 -206t-244 -75q-140 0 -216.5 87.5t-53.5 217.5q15 94 71 162l299 381h265zM397 264q7 43 -13.5 64.5t-61.5 21.5q-85 0 -105 -86q-10 -43 11 -65.5t63 -22.5q41 0 69 22.5t37 65.5z" />
    <glyph glyph-name="seven.dnom" horiz-adv-x="604" 
d="M53 819h574l-33 -190l-348 -629h-264l329 594h-297z" />
    <glyph glyph-name="eight.dnom" horiz-adv-x="722" 
d="M670 590q-17 -107 -117 -168q97 -75 78 -205q-17 -117 -109.5 -181.5t-249.5 -64.5q-148 0 -224 72.5t-56 189.5q11 65 50 117t103 84q-80 67 -59 176q20 113 109 175.5t221 62.5q124 0 199.5 -71.5t54.5 -186.5zM289 573q-6 -32 13.5 -48.5t59.5 -16.5q37 0 63 17t32 48
q6 33 -14.5 50.5t-57.5 17.5q-84 0 -96 -68zM406 260q6 36 -13 57t-61 21t-69.5 -21t-33.5 -57q-6 -37 13 -58.5t61 -21.5t69.5 21.5t33.5 58.5z" />
    <glyph glyph-name="nine.dnom" horiz-adv-x="698" 
d="M403 848q140 0 217 -87.5t54 -217.5q-15 -92 -72 -162l-299 -381h-264l211 266q-113 20 -170.5 103t-38.5 198q24 131 118.5 206t243.5 75zM266 555q-7 -43 14 -64.5t62 -21.5q84 0 104 86q10 43 -10.5 65.5t-62.5 22.5q-41 0 -69.5 -22.5t-37.5 -65.5z" />
    <glyph glyph-name="zero.numr" horiz-adv-x="835" 
d="M440 586q-166 0 -254 124.5t-53 325.5q37 203 154 314.5t288 111.5q164 0 254 -125t54 -325q-35 -203 -152 -314.5t-291 -111.5zM475 836q57 0 97 49t55 139q15 91 -7 139.5t-79 48.5t-97 -49t-55 -139q-15 -91 7 -139.5t79 -48.5z" />
    <glyph glyph-name="one.numr" horiz-adv-x="561" 
d="M412 1434h219l-146 -820h-249l98 555l-166 -45l-23 219z" />
    <glyph glyph-name="two.numr" horiz-adv-x="739" 
d="M70 614l26 158l355 309q58 51 70 69q11 16 14 34q4 24 -9.5 38.5t-40.5 14.5q-39 0 -69 -25t-60 -75l-194 123q57 94 147.5 148t208.5 54q136 0 213.5 -78.5t52.5 -214.5q-6 -33 -21 -63t-42.5 -61t-51 -52.5t-65.5 -56.5l-112 -96h243l-39 -226h-626z" />
    <glyph glyph-name="three.numr" horiz-adv-x="708" 
d="M784 1434l-30 -174l-162 -170q74 -33 109 -95.5t20 -144.5q-24 -134 -117 -199t-242 -65q-240 0 -307 184l219 117q20 -48 47 -67t68 -19q73 0 82 63q4 31 -15.5 46.5t-56.5 15.5h-51l-63 125l149 157h-264l39 226h575z" />
    <glyph glyph-name="four.numr" horiz-adv-x="731" 
d="M780 965l-39 -226h-73l-23 -125h-237l22 125h-369l39 226l320 469h274l-311 -469h86l23 125h237l-22 -125h73z" />
    <glyph glyph-name="five.numr" horiz-adv-x="679" 
d="M725 1208h-289l-22 -84h47q58 0 106 -17t83.5 -50.5t50 -88.5t1.5 -126q-22 -132 -112.5 -194t-227.5 -62q-229 0 -296 184l213 111q28 -86 112 -86q37 0 60 18t28 47q5 30 -11.5 48t-51.5 18h-277l123 508h502z" />
    <glyph glyph-name="six.numr" horiz-adv-x="698" 
d="M522 1167q113 -20 170.5 -103t38.5 -198q-24 -131 -118.5 -205.5t-243.5 -74.5q-140 0 -217 87.5t-54 217.5q15 92 72 162l299 381h264zM506 879q7 43 -14 64.5t-62 21.5q-84 0 -104 -86q-10 -43 10.5 -65.5t62.5 -22.5q41 0 69.5 22.5t37.5 65.5z" />
    <glyph glyph-name="seven.numr" horiz-adv-x="604" 
d="M162 1434h573l-33 -191l-348 -629h-264l330 594h-297z" />
    <glyph glyph-name="eight.numr" horiz-adv-x="724" 
d="M778 1204q-17 -108 -116 -168q96 -75 77 -205q-17 -117 -109 -181t-249 -64q-148 0 -224.5 73t-56.5 189q22 135 154 201q-80 67 -59 176q20 113 108.5 175t220.5 62q124 0 199.5 -71.5t54.5 -186.5zM397 1188q-6 -32 14 -49t60 -17q36 0 62 17.5t32 48.5q6 33 -14 50
t-57 17q-85 0 -97 -67zM514 874q6 36 -13 57t-61 21t-69 -21t-33 -57q-6 -37 13 -58t61 -21t69 21t33 58z" />
    <glyph glyph-name="nine.numr" horiz-adv-x="698" 
d="M512 1462q140 0 216.5 -87.5t53.5 -217.5q-15 -94 -71 -162l-299 -381h-265l211 267q-113 20 -170 103t-38 198q24 131 118.5 205.5t243.5 74.5zM375 1169q-7 -43 14 -64.5t62 -21.5q84 0 104 86q10 43 -11 65.5t-63 22.5q-41 0 -69 -22.5t-37 -65.5z" />
    <glyph glyph-name="zero.sups" horiz-adv-x="835" 
d="M498 913q-166 0 -254.5 125t-53.5 326q36 203 153.5 314.5t289.5 111.5q164 0 253.5 -125.5t53.5 -325.5q-35 -203 -151.5 -314.5t-290.5 -111.5zM532 1163q57 0 97 49.5t55 139.5q15 91 -7 139.5t-79 48.5t-97 -49t-55 -139q-15 -91 7 -140t79 -49z" />
    <glyph glyph-name="one.sups" horiz-adv-x="561" 
d="M469 1761h219l-145 -819h-250l98 555l-166 -45l-22 219z" />
    <glyph glyph-name="two.sups" horiz-adv-x="739" 
d="M127 942l27 158l354 309q4 4 15.5 13.5t14.5 12.5t12 11t11.5 11.5t8.5 10t8.5 10.5t6 10t5 11.5t2.5 11.5q4 25 -9.5 39.5t-39.5 14.5q-39 0 -69 -25.5t-60 -75.5l-195 123q57 94 147.5 148.5t208.5 54.5q136 0 214 -78.5t53 -214.5q-6 -33 -21 -63t-42.5 -61t-51 -52.5
t-65.5 -56.5l-113 -97h244l-39 -225h-627z" />
    <glyph glyph-name="three.sups" horiz-adv-x="710" 
d="M844 1761l-31 -174l-162 -170q74 -33 109 -95.5t20 -143.5q-48 -265 -358 -265q-240 0 -307 185l219 116q20 -48 47 -67t68 -19q72 0 81 64q4 31 -15 46t-56 15h-51l-64 125l150 158h-265l39 225h576z" />
    <glyph glyph-name="four.sups" horiz-adv-x="731" 
d="M838 1292l-39 -225h-74l-23 -125h-237l22 125h-368l39 225l319 469h275l-312 -469h86l23 125h237l-22 -125h74z" />
    <glyph glyph-name="five.sups" horiz-adv-x="677" 
d="M782 1536h-288l-23 -84h47q58 0 106.5 -17t84 -50.5t50 -89t1.5 -126.5q-22 -132 -112.5 -194t-227.5 -62q-230 0 -297 185l213 110q28 -86 113 -86q37 0 60 18.5t28 47.5q5 30 -12 47.5t-52 17.5h-276l122 508h502z" />
    <glyph glyph-name="six.sups" horiz-adv-x="698" 
d="M580 1495q113 -20 170 -103t38 -198q-24 -131 -118.5 -206t-243.5 -75q-140 0 -216.5 88t-53.5 218q15 93 71 161l299 381h265zM563 1206q7 43 -14 64.5t-62 21.5q-84 0 -104 -86q-10 -43 11 -65.5t63 -22.5q41 0 69 22.5t37 65.5z" />
    <glyph glyph-name="seven.sups" horiz-adv-x="606" 
d="M221 1761h574l-33 -190l-348 -629h-264l329 594h-297z" />
    <glyph glyph-name="eight.sups" horiz-adv-x="722" 
d="M836 1532q-17 -107 -117 -168q97 -75 78 -205q-17 -117 -109.5 -181.5t-249.5 -64.5q-148 0 -224 73t-56 190q22 134 153 200q-80 67 -59 176q20 113 109 175.5t221 62.5q124 0 199.5 -71.5t54.5 -186.5zM455 1516q-6 -32 13.5 -49t59.5 -17q37 0 63 17.5t32 48.5
q6 32 -14.5 49.5t-57.5 17.5q-84 0 -96 -67zM571 1202q6 36 -12.5 57t-60.5 21t-69.5 -21t-33.5 -57q-6 -37 13 -58.5t61 -21.5t69 21.5t33 58.5z" />
    <glyph glyph-name="nine.sups" horiz-adv-x="698" 
d="M569 1790q140 0 217 -87.5t54 -217.5q-15 -92 -72 -162l-299 -381h-264l211 266q-113 20 -170.5 103t-38.5 198q24 131 118.5 206t243.5 75zM432 1497q-7 -43 14 -64.5t62 -21.5q84 0 104 86q10 43 -10.5 65.5t-62.5 22.5q-41 0 -69.5 -22.5t-37.5 -65.5z" />
    <glyph glyph-name="cent.tf" 
d="M641 479q132 0 213 115l248 -158q-79 -129 -207.5 -194.5t-276.5 -65.5q-64 0 -137 17l-94 -193h-127l115 231q-133 67 -196.5 202t-37.5 304q35 225 207 372.5t404 147.5q66 0 125 -12l94 189h127l-113 -228q141 -69 203 -215l-281 -147q-22 53 -63 78l-219 -443h16z
M449 721q-12 -65 6.5 -118.5t60.5 -84.5l217 436h-8q-102 0 -180 -64t-96 -169z" />
    <glyph glyph-name="dollar.tf" 
d="M754 852q35 -13 60.5 -23.5t59 -25.5t57.5 -29.5t52.5 -33.5t48 -40.5t39 -47t31 -55.5t19 -64.5t6.5 -75.5t-9 -86q-33 -183 -172.5 -284.5t-347.5 -113.5l-31 -178h-143l33 180q-182 18 -298 105t-155 225l299 154q50 -152 207 -174l53 301q-1 0 -2 1t-2 1
q-41 15 -74.5 30t-69.5 33.5t-63.5 37.5t-55.5 42.5t-46 49t-35 57t-23 66t-9 75.5t7 86q17 102 68.5 180.5t125 124t158 68.5t177.5 24l31 176h143l-33 -188q126 -27 218 -100.5t139 -190.5l-289 -151q-45 94 -123 127zM524 1038q-6 -41 18 -71.5t79 -57.5l43 242
q-62 -6 -98 -35t-42 -78zM784 408q7 41 -15 69t-73 53l-41 -241q112 29 129 119z" />
    <glyph glyph-name="Euro.tf" 
d="M637 291q129 0 225 153l254 -161q-81 -149 -213 -230.5t-301 -81.5q-199 0 -309.5 149.5t-108.5 399.5h-141l31 172h123q3 11 8 45q1 3 2 10.5t2 10.5h-125l31 172h135q79 254 229 393t367 139q146 0 253.5 -80.5t157.5 -224.5l-284 -149q-43 135 -164 135
q-150 0 -225 -213h309l-31 -172h-323q-6 -22 -9 -41q-1 -4 -2 -12.5t-2 -12.5h326l-31 -172h-313q-6 -229 129 -229z" />
    <glyph glyph-name="florin.tf" 
d="M698 1098q47 102 103 175t114.5 115t125.5 60.5t132 16.5t138 -21l-54 -307q-54 17 -102.5 15t-91 -33t-68.5 -89l-73 -162h227l-53 -295h-312l-292 -639q-47 -102 -103 -175t-114.5 -115t-125.5 -60.5t-132 -16.5t-138 21l53 308q54 -17 102.5 -15.5t91.5 33t69 88.5
l262 571h-221l53 295h305z" />
    <glyph glyph-name="uni20BD.tf" 
d="M807 1434q96 0 181 -42t142 -111.5t82 -164t7 -194.5q-36 -206 -191.5 -328.5t-388.5 -122.5h-156l-14 -84h369l-35 -201h-369l-33 -186h-327l32 186h-143l35 201h143l15 84h-142l49 287h144l119 676h481zM895 942q14 78 -26 131t-115 53h-154l-65 -368h153q75 0 134 53
t73 131z" />
    <glyph glyph-name="sterling.tf" 
d="M530 551l-41 -236h644l-56 -315h-1106l56 315h135l41 236h-113l51 287h113l29 166q41 229 179 343.5t343 114.5q156 0 269.5 -80.5t160.5 -224.5l-295 -156q-25 73 -65.5 107.5t-106.5 34.5q-60 0 -103 -37t-55 -102l-28 -166h419l-51 -287h-420z" />
    <glyph glyph-name="yen.tf" 
d="M1350 1434l-486 -682h254l-33 -181h-317l-14 -82h317l-31 -180h-317l-55 -309h-328l55 309h-317l31 180h317l14 82h-317l33 181h254l-248 682h356l141 -465l302 465h389z" />
    <glyph glyph-name="brevecy" horiz-adv-x="778" 
d="M195 1145l45 266h614l-45 -266h-614z" />
    </font>
</defs>
</svg>
